<svg xmlns="http://www.w3.org/2000/svg" xmlns:xlink="http://www.w3.org/1999/xlink" fill="none" version="1.1" width="824" height="824" viewBox="0 0 824 824"><defs><linearGradient x1="0.6881235837936401" y1="0.39630499482154846" x2="0.14941699890421545" y2="0.6370896446239058" id="master_svg0_6_12914"><stop offset="0%" stop-color="#B70C0D" stop-opacity="1"/><stop offset="56.51659965515137%" stop-color="#D0141A" stop-opacity="1"/><stop offset="100%" stop-color="#EB5C62" stop-opacity="1"/></linearGradient><filter id="master_svg1_6_13198" filterUnits="objectBoundingBox" color-interpolation-filters="sRGB" x="-0.05591456629106526" y="-0.1885629931197623" width="1.1118291325821306" height="1.3771259862395246"><feFlood flood-opacity="0" result="BackgroundImageFix"/><feBlend mode="normal" in="SourceGraphic" in2="BackgroundImageFix" result="shape"/><feGaussianBlur stdDeviation="1.2467273473739624" result="effect1_foregroundBlur"/></filter><linearGradient x1="0.5" y1="0" x2="0.5" y2="1" id="master_svg2_6_12278"><stop offset="0%" stop-color="#FF6861" stop-opacity="1"/><stop offset="100%" stop-color="#C01017" stop-opacity="1"/></linearGradient><filter id="master_svg3_6_13203" filterUnits="objectBoundingBox" color-interpolation-filters="sRGB" x="-2.0519906024815966" y="-0.7874389146703776" width="5.103981204963193" height="2.5748778293407555"><feFlood flood-opacity="0" result="BackgroundImageFix"/><feBlend mode="normal" in="SourceGraphic" in2="BackgroundImageFix" result="shape"/><feGaussianBlur stdDeviation="7.480364799499512" result="effect1_foregroundBlur"/></filter><filter id="master_svg4_6_13206" filterUnits="objectBoundingBox" color-interpolation-filters="sRGB" x="-0.9049773939683271" y="-0.2941177446617706" width="2.809954787936654" height="1.588235489323541"><feFlood flood-opacity="0" result="BackgroundImageFix"/><feBlend mode="normal" in="SourceGraphic" in2="BackgroundImageFix" result="shape"/><feGaussianBlur stdDeviation="4.98690938949585" result="effect1_foregroundBlur"/></filter><linearGradient x1="0.5" y1="0" x2="0.5" y2="1" id="master_svg5_6_12338"><stop offset="0%" stop-color="#FF6861" stop-opacity="1"/><stop offset="100%" stop-color="#B60A11" stop-opacity="1"/></linearGradient><filter id="master_svg6_6_13211" filterUnits="objectBoundingBox" color-interpolation-filters="sRGB" x="-1.6124062475791765" y="-0.6768409866485168" width="4.224812495158353" height="2.3536819732970335"><feFlood flood-opacity="0" result="BackgroundImageFix"/><feBlend mode="normal" in="SourceGraphic" in2="BackgroundImageFix" result="shape"/><feGaussianBlur stdDeviation="6.570364475250244" result="effect1_foregroundBlur"/></filter><filter id="master_svg7_6_13214" filterUnits="objectBoundingBox" color-interpolation-filters="sRGB" x="-1.0880548824825844" y="-0.20567810464833433" width="3.176109764965169" height="1.4113562092966687"><feFlood flood-opacity="0" result="BackgroundImageFix"/><feBlend mode="normal" in="SourceGraphic" in2="BackgroundImageFix" result="shape"/><feGaussianBlur stdDeviation="4.380242824554443" result="effect1_foregroundBlur"/></filter><linearGradient x1="0.5" y1="0" x2="0.5" y2="1" id="master_svg8_6_12458"><stop offset="0%" stop-color="#FF6861" stop-opacity="1"/><stop offset="100%" stop-color="#BB0A11" stop-opacity="1"/></linearGradient><filter id="master_svg9_6_13219" filterUnits="objectBoundingBox" color-interpolation-filters="sRGB" x="-0.7975006789257285" y="-0.40898981474065693" width="2.5950013578514572" height="1.817979629481314"><feFlood flood-opacity="0" result="BackgroundImageFix"/><feBlend mode="normal" in="SourceGraphic" in2="BackgroundImageFix" result="shape"/><feGaussianBlur stdDeviation="7.480364799499512" result="effect1_foregroundBlur"/></filter><filter id="master_svga_6_13222" filterUnits="objectBoundingBox" color-interpolation-filters="sRGB" x="-1.0737638064127835" y="-0.18583490909886966" width="3.147527612825567" height="1.3716698181977394"><feFlood flood-opacity="0" result="BackgroundImageFix"/><feBlend mode="normal" in="SourceGraphic" in2="BackgroundImageFix" result="shape"/><feGaussianBlur stdDeviation="4.98690938949585" result="effect1_foregroundBlur"/></filter><linearGradient x1="0.5" y1="0.36332666873931885" x2="0.5125357429762909" y2="0.5878538921939286" id="master_svgb_6_12414"><stop offset="0%" stop-color="#B30E16" stop-opacity="1"/><stop offset="100%" stop-color="#F44B41" stop-opacity="1"/></linearGradient><filter id="master_svgc_6_13229" filterUnits="objectBoundingBox" color-interpolation-filters="sRGB" x="-1.2073740890585059" y="-0.5875170418755554" width="3.4147481781170117" height="2.175034083751111"><feFlood flood-opacity="0" result="BackgroundImageFix"/><feBlend mode="normal" in="SourceGraphic" in2="BackgroundImageFix" result="shape"/><feGaussianBlur stdDeviation="6.233636856079102" result="effect1_foregroundBlur"/></filter><linearGradient x1="0.2033691555261612" y1="0.6301649808883667" x2="0.798609454349889" y2="0.2923808349032193" id="master_svgd_6_12384"><stop offset="0%" stop-color="#C40E0F" stop-opacity="1"/><stop offset="100%" stop-color="#FF7E74" stop-opacity="1"/></linearGradient><filter id="master_svge_6_13234" filterUnits="objectBoundingBox" color-interpolation-filters="sRGB" x="-1.1312114860735927" y="-0.443369423171703" width="3.2624229721471854" height="1.886738846343406"><feFlood flood-opacity="0" result="BackgroundImageFix"/><feBlend mode="normal" in="SourceGraphic" in2="BackgroundImageFix" result="shape"/><feGaussianBlur stdDeviation="6.233636856079102" result="effect1_foregroundBlur"/></filter><linearGradient x1="0.5731095671653748" y1="0.06707482039928436" x2="0.5000000146378937" y2="0.8237958222663126" id="master_svgf_6_12394"><stop offset="0%" stop-color="#FA6354" stop-opacity="1"/><stop offset="100%" stop-color="#E81F1F" stop-opacity="1"/></linearGradient><filter id="master_svgg_6_13239" filterUnits="objectBoundingBox" color-interpolation-filters="sRGB" x="-0.30221100299157566" y="-0.3215091611126141" width="1.6044220059831513" height="1.6430183222252281"><feFlood flood-opacity="0" result="BackgroundImageFix"/><feBlend mode="normal" in="SourceGraphic" in2="BackgroundImageFix" result="shape"/><feGaussianBlur stdDeviation="6.233636856079102" result="effect1_foregroundBlur"/></filter><filter id="master_svgh_6_13242" filterUnits="objectBoundingBox" color-interpolation-filters="sRGB" x="-0.6737056727829975" y="-0.18916260691045075" width="2.347411345565995" height="1.3783252138209015"><feFlood flood-opacity="0" result="BackgroundImageFix"/><feBlend mode="normal" in="SourceGraphic" in2="BackgroundImageFix" result="shape"/><feGaussianBlur stdDeviation="6.233636856079102" result="effect1_foregroundBlur"/></filter><filter id="master_svgi_6_13245" filterUnits="objectBoundingBox" color-interpolation-filters="sRGB" x="-0.08650517665926252" y="-0.2581351656558109" width="1.173010353318525" height="1.516270331311622"><feFlood flood-opacity="0" result="BackgroundImageFix"/><feBlend mode="normal" in="SourceGraphic" in2="BackgroundImageFix" result="shape"/><feGaussianBlur stdDeviation="1.2467273473739624" result="effect1_foregroundBlur"/></filter><linearGradient x1="0.5" y1="0" x2="0.5" y2="1" id="master_svgj_6_12278"><stop offset="0%" stop-color="#FF6861" stop-opacity="1"/><stop offset="100%" stop-color="#C01017" stop-opacity="1"/></linearGradient><linearGradient x1="0.5" y1="0" x2="0.5" y2="0.8609175086021423" id="master_svgk_6_12427"><stop offset="0%" stop-color="#DF8368" stop-opacity="1"/><stop offset="100%" stop-color="#FA9586" stop-opacity="1"/></linearGradient><filter id="master_svgl_6_13251" filterUnits="objectBoundingBox" color-interpolation-filters="sRGB" x="-0.08353998962603" y="-0.304137552810058" width="1.16707997925206" height="1.6082751056201159"><feFlood flood-opacity="0" result="BackgroundImageFix"/><feBlend mode="normal" in="SourceGraphic" in2="BackgroundImageFix" result="shape"/><feGaussianBlur stdDeviation="3.6764705181121826" result="effect1_foregroundBlur"/></filter><filter id="master_svgm_6_13254" filterUnits="objectBoundingBox" color-interpolation-filters="sRGB" x="-0.7185009343397333" y="-0.30842025612027196" width="2.4370018686794666" height="1.616840512240544"><feFlood flood-opacity="0" result="BackgroundImageFix"/><feBlend mode="normal" in="SourceGraphic" in2="BackgroundImageFix" result="shape"/><feGaussianBlur stdDeviation="7.480364799499512" result="effect1_foregroundBlur"/></filter><linearGradient x1="0.1528860479593277" y1="0.2831580936908722" x2="0.4999999613943213" y2="0.5000001135603787" id="master_svgn_6_12361"><stop offset="0%" stop-color="#ED6A6A" stop-opacity="1"/><stop offset="100%" stop-color="#F24F41" stop-opacity="1"/></linearGradient><filter id="master_svgo_6_13260" filterUnits="objectBoundingBox" color-interpolation-filters="sRGB" x="-0.5235629025979331" y="-0.956300630872874" width="2.0471258051958663" height="2.912601261745748"><feFlood flood-opacity="0" result="BackgroundImageFix"/><feBlend mode="normal" in="SourceGraphic" in2="BackgroundImageFix" result="shape"/><feGaussianBlur stdDeviation="6.233636856079102" result="effect1_foregroundBlur"/></filter><filter id="master_svgp_6_13263" filterUnits="objectBoundingBox" color-interpolation-filters="sRGB" x="-0.1618982493953685" y="-0.2469689687806193" width="1.323796498790737" height="1.4939379375612387"><feFlood flood-opacity="0" result="BackgroundImageFix"/><feBlend mode="normal" in="SourceGraphic" in2="BackgroundImageFix" result="shape"/><feGaussianBlur stdDeviation="2.493454694747925" result="effect1_foregroundBlur"/></filter><linearGradient x1="0.6361181139945984" y1="0.20253117382526398" x2="0.49999997046962225" y2="0.7224845424392135" id="master_svgq_6_12351"><stop offset="0%" stop-color="#FA6354" stop-opacity="1"/><stop offset="100%" stop-color="#E81F1F" stop-opacity="1"/></linearGradient><filter id="master_svgr_6_13266" filterUnits="objectBoundingBox" color-interpolation-filters="sRGB" x="-0.17383340567037286" y="-0.18167578912447085" width="1.3476668113407457" height="1.3633515782489416"><feFlood flood-opacity="0" result="BackgroundImageFix"/><feBlend mode="normal" in="SourceGraphic" in2="BackgroundImageFix" result="shape"/><feGaussianBlur stdDeviation="6.233636856079102" result="effect1_foregroundBlur"/></filter><linearGradient x1="0.5" y1="0" x2="0.5" y2="1" id="master_svgs_6_12235"><stop offset="0%" stop-color="#FF5D50" stop-opacity="1"/><stop offset="100%" stop-color="#EC3731" stop-opacity="1"/></linearGradient><linearGradient x1="0.5" y1="0" x2="0.5" y2="1" id="master_svgt_6_12235"><stop offset="0%" stop-color="#FF5D50" stop-opacity="1"/><stop offset="100%" stop-color="#EC3731" stop-opacity="1"/></linearGradient><linearGradient x1="0.5" y1="0" x2="0.5" y2="1" id="master_svgu_6_12302"><stop offset="0%" stop-color="#EF7769" stop-opacity="1"/><stop offset="100%" stop-color="#F07357" stop-opacity="1"/></linearGradient><filter id="master_svgv_6_13274" filterUnits="objectBoundingBox" color-interpolation-filters="sRGB" x="-0.5890000424860204" y="-2.01443314849314" width="2.178000084972041" height="5.02886629698628"><feFlood flood-opacity="0" result="BackgroundImageFix"/><feBlend mode="normal" in="SourceGraphic" in2="BackgroundImageFix" result="shape"/><feGaussianBlur stdDeviation="22" result="effect1_foregroundBlur"/></filter><filter id="master_svgw_6_13277" filterUnits="objectBoundingBox" color-interpolation-filters="sRGB" x="-0.3800719099006798" y="-0.12184543255648873" width="1.7601438198013595" height="1.2436908651129774"><feFlood flood-opacity="0" result="BackgroundImageFix"/><feBlend mode="normal" in="SourceGraphic" in2="BackgroundImageFix" result="shape"/><feGaussianBlur stdDeviation="7.480364799499512" result="effect1_foregroundBlur"/></filter><filter id="master_svgx_6_13280" filterUnits="objectBoundingBox" color-interpolation-filters="sRGB" x="-0.29693281804662386" y="-0.6115386900367076" width="1.5938656360932477" height="2.2230773800734154"><feFlood flood-opacity="0" result="BackgroundImageFix"/><feBlend mode="normal" in="SourceGraphic" in2="BackgroundImageFix" result="shape"/><feGaussianBlur stdDeviation="7.480364799499512" result="effect1_foregroundBlur"/></filter><filter id="master_svgy_6_13283" filterUnits="objectBoundingBox" color-interpolation-filters="sRGB" x="-0.19807641607777063" y="-0.16881649637367835" width="1.3961528321555412" height="1.3376329927473567"><feFlood flood-opacity="0" result="BackgroundImageFix"/><feBlend mode="normal" in="SourceGraphic" in2="BackgroundImageFix" result="shape"/><feGaussianBlur stdDeviation="7.480364799499512" result="effect1_foregroundBlur"/></filter><filter id="master_svgz_6_13284" filterUnits="objectBoundingBox" color-interpolation-filters="sRGB" x="-0.3842394032700463" y="-0.333366129910657" width="1.7684788065400925" height="1.6667322598213141"><feFlood flood-opacity="0" result="BackgroundImageFix"/><feBlend mode="normal" in="SourceGraphic" in2="BackgroundImageFix" result="shape"/><feGaussianBlur stdDeviation="7.480364799499512" result="effect1_foregroundBlur"/></filter><filter id="master_svg10_6_13285" filterUnits="objectBoundingBox" color-interpolation-filters="sRGB" x="-0.3123426871517793" y="-0.1328935673980605" width="1.6246853743035587" height="1.265787134796121"><feFlood flood-opacity="0" result="BackgroundImageFix"/><feBlend mode="normal" in="SourceGraphic" in2="BackgroundImageFix" result="shape"/><feGaussianBlur stdDeviation="1.2467273473739624" result="effect1_foregroundBlur"/></filter><filter id="master_svg11_6_13288" filterUnits="objectBoundingBox" color-interpolation-filters="sRGB" x="-0.45623363080662127" y="-0.9241273006628284" width="1.9124672616132425" height="2.8482546013256567"><feFlood flood-opacity="0" result="BackgroundImageFix"/><feBlend mode="normal" in="SourceGraphic" in2="BackgroundImageFix" result="shape"/><feGaussianBlur stdDeviation="7.480364799499512" result="effect1_foregroundBlur"/></filter><linearGradient x1="0.5" y1="0.058463383466005325" x2="0.15076668037366356" y2="0.7674114238768148" id="master_svg12_6_12246"><stop offset="0%" stop-color="#FFFFFF" stop-opacity="1"/><stop offset="100%" stop-color="#EEEEEE" stop-opacity="1"/></linearGradient><linearGradient x1="0.5" y1="0" x2="0.3054429247861488" y2="0.8028191574991713" id="master_svg13_6_12450"><stop offset="0%" stop-color="#FFFFFF" stop-opacity="1"/><stop offset="100%" stop-color="#EEEEEE" stop-opacity="1"/></linearGradient></defs><path d="M210.075188,580.5781860351562C171.64273500000002,580.5781860351562,148.470224,585.6648349351563,140.5576601,595.8381330351563C128.6888142,611.0980800351563,133.77528848,622.9669270351562,149.035406,633.1402240351563C164.295527,643.3135180351562,199.90206899999998,646.7046130351563,223.63974000000002,646.7046130351563C239.46487000000002,646.7046130351563,251.33371,637.0965000351563,259.24626,617.8802800351563L210.075188,580.5781860351562Z" fill="url(#master_svg0_6_12914)" fill-opacity="1" style="mix-blend-mode:passthrough"/><path d="M223.82234234375,591.0070320351563Q149.10476234375,597.0514830351563,134.634321306763,607.0251010351562C135.55321240375,603.5033210351562,137.48857474375,599.7841000351563,140.55766014375,595.8381330351563Q152.42650834375002,580.5781860351562,210.07518734375,580.5781860351562L223.82234234375,591.0070320351563Z" fill-rule="evenodd" fill="#F15F57" fill-opacity="1" style="mix-blend-mode:passthrough" filter="url(#master_svg1_6_13198)"/><path d="M199.33537465405274,550.36279296875C185.77100925405273,561.66645496875,180.68436145405275,573.53530096875,184.07543175405274,585.96932996875C189.16203735405273,604.62036896875,216.29082465405273,631.74916096875,229.85522065405274,631.74916096875C238.89814765405274,631.74916096875,228.72486465405274,604.62037296875,199.33537465405274,550.36279296875Z" fill="url(#master_svg2_6_12278)" fill-opacity="1" style="mix-blend-mode:passthrough"/><path d="M186.19425459526366,591.7114566953124Q188.01243639526368,577.7750036953125,197.63977639526368,557.1449832953125L195.58059039526367,553.7130063205796Q179.48888059526368,569.1518906953125,184.07541649526368,585.9693296953125C184.57797669526366,587.8120646953125,185.29570369526368,589.7375566953125,186.19425459526366,591.7114566953124Z" fill-rule="evenodd" fill="#F8D5D9" fill-opacity="1" style="opacity:0.6000000238418579;" filter="url(#master_svg3_6_13203)"/><path d="M201.56984994155275,554.50462106875L214.59535784155273,618.18473796875C206.96538784155274,608.01143596875,207.81315984155273,610.55477096875,202.72651484155273,602.92478896875C197.63986684155273,595.2948229687499,196.79209614155275,592.75149896875,194.24877164155274,587.66484796875Q189.87147454155274,578.91025496875,196.79475354155272,552.57693406875Q198.01120424155275,551.46627066875,199.33537484155272,550.36279296875Q200.47183184155273,552.46086956875,201.56984994155275,554.50462106875Z" fill-rule="evenodd" fill="#D31919" fill-opacity="1" style="mix-blend-mode:passthrough" filter="url(#master_svg4_6_13206)"/><path d="M217.98619316577148,523.23388671875C201.0307011657715,536.79828171875,193.6833218657715,555.4493257187501,195.9440543057715,579.18701571875C199.33515286577148,614.79354871875,238.33288216577148,641.92233671875,251.89727816577147,647.00898671875C260.9402041657715,650.40007671875,268.8527641657715,650.40007671875,275.6349601657715,647.00898671875L236.6373291657715,597.8380587187501L217.98619316577148,523.23388671875Z" fill="url(#master_svg5_6_12338)" fill-opacity="1" style="mix-blend-mode:passthrough"/><path d="M211.92243788452149,528.7183977476365Q209.50862688452148,538.6704930890625,209.50862688452148,548.6225817890625C209.50862688452148,558.4914927890625,204.88005538452148,564.7999607890625,195.6229118028415,567.5479887890625Q196.67396228452148,544.3750477890625,211.92243788452149,528.7183977476365Z" fill-rule="evenodd" fill="#F8D5D9" fill-opacity="1" style="opacity:0.5;" filter="url(#master_svg6_6_13211)"/><path d="M216.2907085532715,596.14250171875C210.3333883532715,578.27110271875,207.44082455327148,550.95686671875,210.4194526532715,537.55331771875Q211.55376245327147,532.44902991875,213.9838976532715,526.69680901875Q215.8868517532715,524.91335951875,217.98619265327147,523.23388671875L225.31215885327148,552.53760171875L225.3121778532715,586.69966171875Q225.60013385327147,607.98072071875,222.7441508532715,608.41136171875Q220.49358185327148,608.75071671875,216.2907085532715,596.14250171875Z" fill-rule="evenodd" fill="#D31919" fill-opacity="1" style="mix-blend-mode:passthrough" filter="url(#master_svg7_6_13214)"/><path d="M255.3698467475586,475.758508682251C231.6320497475586,485.93180468225097,218.0676560475586,503.452482682251,214.6766675475586,528.320539682251C209.5901851475586,565.622621682251,223.15480044755859,601.2291686822509,235.02356874755858,614.7935586822509C246.8923417475586,628.3579486822509,267.2386897475586,643.617888682251,280.8030927475586,652.095638682251C289.8460237475586,657.747478682251,298.3237687475586,649.834908682251,306.2363357475586,628.3579486822509C272.3253407475586,597.838068682251,255.3698427475586,574.665559682251,255.3698427475586,558.840417682251C255.3698427475586,543.015291682251,255.3698427475586,515.321325682251,255.3698467475586,475.758508682251Z" fill="url(#master_svg8_6_12458)" fill-opacity="1" style="mix-blend-mode:passthrough"/><path d="M245.19678474755858,501.711576291626C245.19678474755858,495.494558291626,246.3271557475586,489.136247291626,248.5878907475586,482.63664439162596L251.0969427475586,477.723083410492Q250.7161517475586,477.910717711626,250.3391727475586,478.10120389162597Q249.3727077475586,480.380295291626,248.5878907475586,482.63664439162596L249.3262557475586,478.621768531626Q219.3145241475586,494.308429291626,214.6766675475586,528.3204782916259C213.72273181755858,535.316232291626,213.4248016775586,542.2523512916259,213.64866126355858,548.994623291626C214.5398669275586,550.2016472916259,215.4561585475586,550.882509291626,216.37244894755858,550.882509291626C223.1546478475586,550.882509291626,245.19678474755858,520.362619291626,245.19678474755858,501.711576291626Z" fill-rule="evenodd" fill="#F8D5D9" fill-opacity="1" style="opacity:0.4000000059604645;" filter="url(#master_svg9_6_13219)"/><path d="M243.5012721944336,569.0137178867187C236.7188586944336,548.6671298867187,238.4145488744336,518.1472398867188,241.8057174944336,502.8872988867187C243.51287889443358,495.20523488671876,247.15361789443358,486.55635688671873,252.7279367944336,476.94066548671873Q254.0271937944336,476.33390366671875,255.36984679443358,475.75848388671875L255.3698427944336,558.8403928867187Q255.3698427944336,563.6009898867187,257.4157067944336,569.2481228867188Q255.1919997944336,582.8048438867188,251.8311617944336,583.0928738867187Q248.2954787944336,583.3958838867187,243.5012721944336,569.0137178867187Z" fill-rule="evenodd" fill="#D31919" fill-opacity="1" style="mix-blend-mode:passthrough" filter="url(#master_svga_6_13222)"/><path d="M525.4003221777343,582.5777778966309C544.4752501777343,576.2195226966309,555.9202801777344,579.1869321966309,566.0935061777344,577.4911300616309C576.2667231777343,575.7953276966308,581.3534391777343,613.0979462966309,566.0935061777344,618.1843142966309C550.8335611777344,623.2706872966309,520.3136751777344,624.9661822966309,503.35818417773436,618.1840402966309C492.05452207773436,613.6626132966309,487.5330573777344,608.5759852966308,489.7937896877344,602.9241522966308C500.8148591777344,593.5987412966308,512.6837021777344,586.8166160966308,525.4003221777343,582.5777778966309Z" fill="url(#master_svgb_6_12414)" fill-opacity="1" style="mix-blend-mode:passthrough"/><path d="M559.9220810183593,619.8756664899292C562.1692605183594,619.3677744899292,564.2435207183594,618.8009784899292,566.0935063183593,618.1843514899292C581.3534393183594,613.0979834899292,576.2667233183594,575.7953648899291,566.0935063183593,577.4911672549292C564.6466522183593,577.7323470999291,563.1740742183594,577.8792041199292,561.6574812183594,577.9719803899292Q549.4216595183593,604.6078804899292,559.9220810183593,619.8756664899292Z" fill-rule="evenodd" fill="#BC0A0E" fill-opacity="1" style="mix-blend-mode:passthrough" filter="url(#master_svgc_6_13229)"/><path d="M576.2669019263916,565.6231061816407C583.0491009263916,558.8403415816406,594.9179399263916,550.3625950816406,615.2645249263916,553.7542620316407C635.6111089263916,557.1459293816406,644.0888619263916,574.1009671816406,644.0888619263916,584.2742651816407C644.0888619263916,591.0564571816407,622.6119059263916,602.3601221816406,579.6580009263917,618.1852571816406C568.3543396263916,618.1852571816406,562.7025089263916,612.5334241816406,562.7025089263916,601.2297551816406C562.7025089263916,584.2742651816407,569.4847054263917,572.4058721816406,576.2669019263916,565.6231061816407Z" fill="url(#master_svgd_6_12384)" fill-opacity="1" style="mix-blend-mode:passthrough"/><path d="M580.9960652426757,561.4412929544432C579.1961862426758,562.8303450269531,577.6289382426758,564.2609079269531,576.2668542426758,565.6231060269531C569.4846577426758,572.4058726269532,562.7024612426758,584.2742656269531,562.7024612426758,601.2297556269531Q562.7024612426758,615.2584876269532,574.3096182426758,617.6800536269532Q585.4702472426758,609.3708536269531,584.6943662426758,602.3879276269531Q584.3312512426758,599.1198846269531,581.3537002426758,596.1423336269531Q571.3624811426757,586.1511156269531,580.9960652426757,561.4412929544432Z" fill-rule="evenodd" fill="#B30610" fill-opacity="1" style="mix-blend-mode:passthrough" filter="url(#master_svge_6_13234)"/><path d="M581.3536433627929,589.3599589191895C588.135847362793,579.1868810191894,596.6136323627929,565.6227505191895,630.524727362793,570.7091561191894C664.4358193627929,575.7955622191895,677.999989362793,624.9669879191895,677.999989362793,645.3135869191894C677.999989362793,665.6601829191894,672.9135793627929,702.9618159191895,640.6980213627929,721.6130859191894C608.4824753627929,740.2643359191894,583.049230362793,728.3954859191895,596.6136323627929,713.1355359191895C610.1780283627929,697.8755959191894,613.569122362793,669.0512729191895,611.873695362793,660.5733149191894C610.1782573627929,652.0953559191895,601.700393362793,662.2688709191895,596.6136323627929,669.0512729191895C591.5268673627929,675.8336659191895,583.049350362793,691.0931859191894,581.353801362793,701.2664859191894C579.658252362793,711.4397959191895,567.789410562793,702.9620359191895,564.398310162793,694.4842859191895C561.007211962793,686.0065259191895,557.615854062793,662.2693369191894,561.007071762793,643.6180759191894C564.3982891627929,624.9667969191895,574.5714463627929,599.5330349191895,581.3536433627929,589.3599589191895Z" fill="url(#master_svgf_6_12394)" fill-opacity="1" style="mix-blend-mode:passthrough"/><path d="M675.391532784668,670.4474546535645C665.389037784668,687.5737306535644,644.7277027846679,712.0436366535645,633.915717784668,718.2222026535644C626.042377784668,722.7214466535645,609.215430784668,727.9667166535644,599.768487484668,729.5033756535645C608.192167784668,732.8324086535645,623.476060784668,731.5839116535644,640.698264784668,721.6130866535644C661.9993207846679,709.2807926535645,671.439758784668,688.7947386535644,675.391532784668,670.4474546535645ZM594.690401084668,726.0687756535644C591.912756084668,722.7525976535644,592.178476924668,718.1253546535645,596.613876384668,713.1355326535645C610.1782717846679,697.8755986535645,613.569366784668,669.0512736535644,611.873939784668,660.5733146535645C610.791618784668,655.1612182535645,606.945325784668,657.3499624535644,602.981698784668,661.4051828535645C605.174115784668,655.3950840535645,608.1380587846679,652.8570271135644,611.873529784668,653.7910270735645C618.655669784668,655.4868049535645,620.351211784668,669.0507006535645,615.2646277846679,684.3109246535645C610.738927784668,697.8884276535645,599.5019516846679,718.1766776535644,594.690401084668,726.0687756535644Z" fill-rule="evenodd" fill="#C2111C" fill-opacity="1" style="mix-blend-mode:passthrough" filter="url(#master_svgg_6_13239)"/><path d="M581.652702362793,588.911016317627C581.552602362793,589.061345317627,581.452942362793,589.2110143176269,581.3536433627929,589.3599583176269C574.5714463627929,599.533035317627,564.3982891627929,624.966797317627,561.007071762793,643.6180763176269C557.615854062793,662.269336317627,561.007211962793,686.0065293176269,564.398310162793,694.4842893176269C567.220636362793,701.540099317627,575.9153293627929,708.595919317627,579.730062362793,704.899389317627C570.881625362793,689.7561793176269,571.008772362793,668.462101317627,571.1458773627929,645.4999583176269C571.1629843627929,642.6349063176269,571.180246362793,639.7438853176269,571.180248362793,636.8356013176269Q571.180268362793,608.0112613176269,596.613449362793,574.100269317627L594.404934362793,575.119584917627C588.264854362793,578.9809527176269,584.749227362793,584.260687317627,581.652702362793,588.911016317627Z" fill-rule="evenodd" fill="#C2111C" fill-opacity="1" style="mix-blend-mode:passthrough" filter="url(#master_svgh_6_13242)"/><g filter="url(#master_svgi_6_13245)"><path d="M616.518012625,568.8763816968261Q625.319949625,569.1907379068261,638.868343625,572.8862599968262L639.136054625,571.9047865968262Q625.474002625,568.1782615368262,616.5543216250001,567.8597002668262Q608.177558625,567.5605290568262,601.511150625,570.2278129968262Q587.964987325,575.6477446968262,580.917344125,587.3933124968262L581.789687125,587.9167384968262Q588.661032725,576.4649896968261,601.889064625,571.1723443968261Q608.355981625,568.5848795068262,616.518012625,568.8763816968261Z" fill-rule="evenodd" fill="#B90109" fill-opacity="1" style="mix-blend-mode:passthrough"/></g><path d="M290.89497744042967,435.0653076171875C259.2447274404297,461.0637306171875,243.4196014404297,489.8880696171875,243.4196014404297,521.5383226171875C243.4196014404297,569.0137176171875,255.28844544042968,591.0558476171875,285.8083304404297,621.5757176171875C316.3282164404297,652.0956076171875,373.9768814404297,667.3555776171875,433.3211014404297,653.7911676171875C472.8839214404297,644.7482476171875,494.3608814404297,636.2704876171875,497.75197144042966,628.3579276171874C531.6629514404297,611.4024376171875,553.7050914404297,593.3165776171875,563.8784014404297,574.1003576171875C574.0516814404297,554.8841276171875,483.0572014404297,508.5391086171875,290.89497744042967,435.0653076171875Z" fill="url(#master_svgj_6_12278)" fill-opacity="1" style="mix-blend-mode:passthrough"/><g><path d="M552.3679625024414,554.4627576496875C550.6545625024414,554.1817558096875,548.8396525024414,553.9454313396875,546.9231825024414,553.7537841796875L406.1921465024414,563.9270781796876C387.7220535024414,610.5038181796875,372.6750275024414,641.3915481796876,361.0510593769654,656.5902541796875C376.8424025024414,659.0556441796875,393.7203945024414,659.4999141796875,411.0269695024414,657.5720941796875C429.0997165024414,654.0695841796875,447.7658925024414,650.0997691796875,462.2937125024414,646.3299481796876C483.4907625024414,640.0462191796875,495.31020250244137,634.0555491796875,497.7520225024414,628.3579251796875Q548.6184925024414,602.9246901796876,563.8784525024414,574.1003571796875Q564.2316825024413,573.4331491796875,564.4222925024415,572.7223341796876Q566.3019325024414,565.7128121796875,552.3679625024414,554.4627576496875Z" fill-rule="evenodd" fill="url(#master_svgk_6_12427)" fill-opacity="1" style="mix-blend-mode:passthrough"/></g><path d="M386.1302566855469,622.10618565625Q392.69801968554685,628.97261465625,404.4967036855469,630.83564765625C420.60443068554684,633.37908965625,469.7753906855469,625.53742965625,506.2297626855469,612.18495165625C542.6841126855469,598.83247365625,566.4218126855469,579.96917725625,546.9229126855469,583.36026000625Q507.9251426855469,590.14244075625,379.0635375855469,583.36044311625Q374.7652260855469,610.22433665625,386.1302566855469,622.10618565625Z" fill-rule="evenodd" fill="#E17968" fill-opacity="1" style="mix-blend-mode:passthrough" filter="url(#master_svgl_6_13251)"/><path d="M282.3770444404297,442.48298890407426Q268.8728864404297,481.41531419140625,282.41717944042966,515.2760621914063Q287.30366144042966,527.4922791914063,283.16848344042967,533.5473551914063Q276.2278214404297,543.7104611914062,243.87162530042968,536.5166011914063C243.56714252042968,531.8086851914063,243.4196014404297,526.8316111914063,243.4196014404297,521.5383831914063Q243.4196018723773,478.53234519140625,282.3770444404297,442.48298890407426Z" fill-rule="evenodd" fill="#F8D5D9" fill-opacity="1" style="opacity:0.4000000059604645;" filter="url(#master_svgm_6_13254)"/><path d="M358.7173768876953,594.4469795507813C349.6744458876953,578.6218528507812,333.8493268876953,570.7092895507812,311.2420118876953,570.7092895507812C277.3310128876953,570.7092895507812,267.15771578769534,591.0558835507812,262.07106838769533,602.9247245507812C256.9844195876953,614.7935755507813,262.07133738769534,630.0535165507813,273.9399158876953,635.1401595507813C281.8523008876953,638.5312655507812,310.1114538876953,624.9668695507812,358.7173768876953,594.4469795507813Z" fill="url(#master_svgn_6_12361)" fill-opacity="1" style="mix-blend-mode:passthrough"/><path d="M313.78861265332034,570.7435326497813Q312.5299876533203,570.7092895507812,311.24201165332033,570.7092895507812C284.5119496533203,570.7092895507812,272.53071265332034,583.3511355507812,266.1638709286413,594.5179825507812C267.6601211533203,599.3580665507812,271.0540385533203,595.7350865507813,276.1613473533203,590.2830795507813C280.8395546533203,585.2891315507812,286.9553396533203,578.7605829507812,294.36708065332033,575.7958936507813Q304.3730926533203,571.7934987507813,313.78861265332034,570.7435326497813Z" fill-rule="evenodd" fill="#EAA4A0" fill-opacity="1" style="opacity:0.5;" filter="url(#master_svgo_6_13260)"/><path d="M269.41833690371095,638.222984545166C261.50553820371096,626.919322545166,265.46182012557995,616.746025545166,281.28718180371095,607.703094445166C297.11254080371094,598.6601638751661,312.37260480371094,595.834247545166,327.06737480371095,599.225347545166L269.41833690371095,638.222984545166Z" fill="#C50F10" fill-opacity="1" style="mix-blend-mode:passthrough" filter="url(#master_svgp_6_13263)"/><path d="M265.4620041991943,667.3558884174805C260.37525129919436,648.7046544174805,265.4620038991943,626.6624224174805,285.80859779919433,609.7072064174805C306.1551917991943,592.7519894274805,351.93488879919437,580.8831524174805,387.54143979919434,609.7070174174804C423.14799979919434,638.5308834174805,446.8856697991944,677.5289914174805,445.19014979919433,699.5711304174805C443.49459979919436,721.6132704174804,431.6257497991943,704.6577804174805,419.75689979919434,692.7889404174805C407.88806979919434,680.9200894174804,387.54143979919434,667.3556974174804,384.1503697991943,669.0512394174805C380.7592997991943,670.7468034174805,377.36818979919434,680.9200894174804,387.5414697991943,692.7889404174805C397.7147697991943,704.6577804174805,406.19250979919434,714.8310804174805,412.9747197991943,721.6132704174804C419.75689979919434,728.3954704174805,421.45245979919434,738.5687604174805,402.80142979919435,741.9598804174805C384.1503697991943,745.3509704174805,334.97940679919435,738.5687604174805,314.6328337991943,726.6999104174805C294.28625679919435,714.8310804174805,270.54875709919435,686.0071414174805,265.4620041991943,667.3558884174805Z" fill="url(#master_svgq_6_12351)" fill-opacity="1" style="mix-blend-mode:passthrough"/><path d="M285.80859779919433,609.7072067487304C265.4620038991943,626.6624224487305,260.37525129919436,648.7046544487305,265.4620041991943,667.3558884487304C270.54875709919435,686.0071414487304,294.28625679919435,714.8310774487304,314.6328337991943,726.6999174487305C334.97940679919435,738.5687674487305,384.1503697991943,745.3509774487304,402.80142979919435,741.9598774487305C404.3627697991943,741.6760074487305,405.78152979919435,741.3445774487304,407.0666397991944,740.9716074487305Q398.98487979919435,738.7872974487304,384.14995979919433,736.8731174487305C331.58792679919435,730.0909074487305,285.8084427991943,696.1799394487305,275.6349757991943,662.2689364487305C269.42300799919434,641.5627324487305,279.01535879919436,628.4426234487305,285.88365979919433,619.0483834487304C289.91192779919436,613.5386505487305,293.00316379919434,609.3105549487304,291.4193327991943,605.5853088111804C289.3854447991943,606.9099425487304,287.5082797991943,608.2908272487305,285.80859779919433,609.7072067487304Z" fill-rule="evenodd" fill="#C41A25" fill-opacity="1" style="mix-blend-mode:passthrough" filter="url(#master_svgr_6_13266)"/><path d="M505.561566484375,87.029109Q505.873826484375,86.9232121,506.17690648437497,86.793386Q506.479976484375,86.6635599,506.772046484375,86.5105886Q507.064136484375,86.3576174,507.343446484375,86.1824255Q507.622776484375,86.0072327,507.887636484375,85.8108778Q508.15251648437504,85.6145229,508.401336484375,85.398191Q508.650146484375,85.1818585,508.881406484375,84.946856Q509.11266648437504,84.711854,509.324996484375,84.4596014Q509.537326484375,84.2073488,509.729396484375,83.9393692Q509.92147648437503,83.6713896,510.092176484375,83.3893018Q510.262876484375,83.107214,510.41114648437497,82.8127213Q510.559416484375,82.518229,510.684386484375,82.2131114Q510.809326484375,81.9079933,510.91021648437504,81.5940928Q511.011106484375,81.2801926,511.087306484375,80.9594055Q511.163516484375,80.6386187,511.21456648437504,80.3128829Q511.265626484375,79.98714715,511.291226484375,79.65842998Q511.316836484375,79.32971287,511.316816484375,79Q511.316816484375,78.79186934,511.30660648437504,78.58398938Q511.29638648437503,78.37610942,511.275996484375,78.16898096Q511.255586484375,77.9618526,511.225056484375,77.7559745Q511.194506484375,77.5500966,511.15389648437497,77.3459651Q511.11329648437504,77.1418338,511.06271648437496,76.9399405Q511.01214648437497,76.7380471,510.95173648437503,76.5388784Q510.891326484375,76.3397102,510.82119648437504,76.1437461Q510.75108648437504,75.947782,510.671436484375,75.75549409999999Q510.591796484375,75.5632067,510.502806484375,75.3750584Q510.413816484375,75.1869106,510.315706484375,75.0033555Q510.21758648437503,74.8198009,510.110576484375,74.6412811Q510.003566484375,74.4627619,509.88795648437497,74.2897072Q509.772306484375,74.116653,509.648346484375,73.949481Q509.524356484375,73.7823086,509.392336484375,73.6214213Q509.260286484375,73.4605341,509.120516484375,73.3063197Q508.980746484375,73.1521053,508.833576484375,73.0049343Q508.686396484375,72.8577633,508.532196484375,72.7179918Q508.37797648437504,72.5782194,508.217086484375,72.4461827Q508.05618648437496,72.314146,507.889006484375,72.1901627Q507.721836484375,72.0661793,507.548786484375,71.9505486Q507.375736484375,71.8349175,507.19721648437496,71.7279167Q507.018706484375,71.6209164,506.835146484375,71.5228038Q506.651576484375,71.4246922,506.463436484375,71.3357048Q506.27529648437496,71.2467175,506.083006484375,71.1670694Q505.890716484375,71.0874214,505.694766484375,71.0173039Q505.498796484375,70.9471865,505.29962648437504,70.8867693Q505.10046648437503,70.8263512,504.89855648437504,70.7757797Q504.696666484375,70.7252083,504.492536484375,70.6846046Q504.288426484375,70.6440001,504.082536484375,70.6134605Q503.876666484375,70.582922,503.669536484375,70.562521Q503.462406484375,70.5421219,503.25453648437497,70.531909Q503.046646484375,70.5216961,502.838516484375,70.5216961Q502.094956484375,70.5216961,501.362756484375,70.6511211Q500.630556484375,70.7805462,499.932056484375,71.0354447Q404.758674484375,104.551718,377.933011984375,174.298531Q351.024992484375,244.25948,392.106782484375,312.20394999999996Q392.246498484375,312.44102,392.401289484375,312.66852Q392.556081484375,312.89603,392.725299484375,313.11301000000003Q392.894519484375,313.33002,393.077453484375,313.53557Q393.260387484375,313.74113,393.456264484375,313.93439Q393.652145484375,314.12766,393.860145484375,314.30782Q394.068145484375,314.48798,394.287387484375,314.65427Q394.506633484375,314.82056,394.736198484375,314.97229Q394.965766484375,315.12402,395.204687484375,315.26053Q395.443611484375,315.39705000000004,395.690881484375,315.51779Q395.938154484375,315.63851999999997,396.192733484375,315.74295Q396.447317484375,315.84740999999997,396.708135484375,315.93515Q396.968956484375,316.02286000000004,397.234912484375,316.09348Q397.500871484375,316.16409,397.770851484375,316.21733Q398.040830484375,316.27054999999996,398.313694484375,316.30617Q398.586555484375,316.34180000000003,398.861152484375,316.35965Q399.135751484375,316.37747,399.410928484375,316.37747Q399.619060484375,316.37747,399.826940484375,316.36726Q400.034820484375,316.35704,400.241949484375,316.33664Q400.449077484375,316.31622,400.654954484375,316.28569Q400.860832484375,316.25514,401.064962484375,316.21454Q401.269092484375,316.17393000000004,401.470987484375,316.12337Q401.672882484375,316.07280000000003,401.872051484375,316.01239Q402.071218484375,315.95196999999996,402.267183484375,315.88184Q402.463146484375,315.81172000000004,402.655433484375,315.73207Q402.84772148437503,315.65242,403.035869484375,315.56345Q403.224018484375,315.47446,403.407573484375,315.37634Q403.591127484375,315.27823,403.769647484375,315.17122Q403.948165484375,315.06421,404.121219484375,314.94858Q404.294275484375,314.83295,404.461448484375,314.70897Q404.628620484375,314.58499,404.789508484375,314.45295999999996Q404.950395484375,314.32092,405.10461048437503,314.18115Q405.258823484375,314.04134999999997,405.405994484375,313.8942Q405.553165484375,313.74702,405.692937484375,313.59281999999996Q405.832710484375,313.4386,405.964746484375,313.27773Q406.096782484375,313.11681999999996,406.220764484375,312.94965Q406.344747484375,312.78247,406.460378484375,312.60942Q406.576009484375,312.43637,406.683010484375,312.25786Q406.790012484375,312.07935,406.888124484375,311.8958Q406.986236484375,311.71225000000004,407.075222484375,311.52408Q407.164209484375,311.33594,407.243858484375,311.14365Q407.323505484375,310.95135,407.393623484375,310.7554Q407.463741484375,310.55944999999997,407.524158484375,310.36028999999996Q407.584575484375,310.16112,407.635147484375,309.95923Q407.685718484375,309.75732,407.726322484375,309.55319Q407.766927484375,309.34906,407.797466484375,309.14319Q407.828006484375,308.93732,407.848407484375,308.73019Q407.868808484375,308.52306999999996,407.879020484375,308.31519000000003Q407.889232484375,308.1073,407.889232484375,307.89917Q407.889232484375,307.31064000000003,407.807914484375,306.72774000000004Q407.726596484375,306.14484,407.56552548437503,305.57878Q407.404447484375,305.01270999999997,407.166706484375,304.47433Q406.928962484375,303.93593999999996,406.619115484375,303.43557999999996Q406.614377484375,303.42793,406.609725484375,303.42024000000004Q369.834330084375,242.58772,393.758348484375,180.38519Q417.773647484375,117.94535400000001,505.561566484375,87.029109Z" fill-rule="evenodd" fill="url(#master_svgs_6_12235)" fill-opacity="1" style="mix-blend-mode:passthrough"/><path d="M687.7843908642578,134.75458814384766Q687.9595308642578,134.71594904384764,688.1328908642578,134.66993804384765Q688.3062308642578,134.62392804384766,688.4774808642578,134.57062724384767Q688.6487308642578,134.51732634384766,688.8175708642578,134.45683144384765Q688.9864008642578,134.39633654384767,689.1525308642579,134.32875534384766Q689.3186508642578,134.26117464384765,689.4817808642579,134.18662884384764Q689.6449108642578,134.11208344384767,689.8047308642579,134.03070544384767Q689.9645508642578,133.94932844384766,690.1207908642577,133.86126424384764Q690.2770208642578,133.77320094384766,690.4294008642578,133.67860894384765Q690.5817708642578,133.58401684384765,690.7300308642577,133.48306564384765Q690.8782808642578,133.38211444384766,691.0221108642578,133.27498434384765Q691.1659408642578,133.16785434384767,691.3051308642578,133.05473754384766Q691.4442908642578,132.94162084384766,691.5785708642578,132.82271954384765Q691.7128408642578,132.70381834384764,691.8419608642578,132.57934474384766Q691.9710808642578,132.45487164384767,692.0948308642578,132.32504944384766Q692.2185708642578,132.19522664384766,692.3367108642578,132.06028744384764Q692.4548508642579,131.92534784384765,692.5671808642578,131.78553294384767Q692.6795208642578,131.64571854384766,692.7858308642578,131.50127844384767Q692.8921508642578,131.35683824384765,692.9922608642578,131.20803114384765Q693.0923908642578,131.05922414384764,693.1861108642578,130.90631674384767Q693.2798508642578,130.75340894384766,693.3670208642578,130.59667394384766Q693.4542108642578,130.43993954384766,693.5346808642578,130.27965834384764Q693.6151608642579,130.11937694384767,693.6888008642578,129.95583584384767Q693.7624208642578,129.79229454384765,693.8290508642579,129.62578584384767Q693.8957108642578,129.45927764384766,693.9552308642578,129.29009984384766Q694.0147808642578,129.12092204384766,694.0671208642578,128.94937774384766Q694.1194608642578,128.77783344384767,694.1644908642578,128.60422924384767Q694.2095208642578,128.43062524384766,694.2471808642579,128.25527194384765Q694.2848308642579,128.07991864384766,694.3150308642578,127.90313004384765Q694.3452308642578,127.72634144384766,694.3679308642578,127.54843374384765Q694.3906408642579,127.37052607384766,694.4057808642578,127.19181752384766Q694.4209408642578,127.01310902384766,694.4285308642578,126.83391946384765Q694.4361108642578,126.65472991384766,694.4361308642578,126.47537994384766Q694.4361308642578,126.26724928384766,694.4259208642578,126.05936932384766Q694.4156908642578,125.85148936384766,694.3953108642578,125.64436090384766Q694.3748908642578,125.43723254384766,694.3443608642579,125.23135444384765Q694.3138108642578,125.02547654384766,694.2732108642579,124.82134504384766Q694.2326008642578,124.61721374384766,694.1820408642578,124.41532044384766Q694.1314708642578,124.21342704384766,694.0710608642578,124.01425834384766Q694.0106308642578,123.81509014384766,693.9405108642578,123.61912604384766Q693.8703908642578,123.42316194384766,693.7907408642578,123.23087404384765Q693.7110908642578,123.03858664384765,693.6221208642578,122.85043834384766Q693.5331308642578,122.66229054384766,693.4350108642578,122.47873544384765Q693.3369008642578,122.29518084384766,693.2298908642579,122.11666104384766Q693.1228808642578,121.93814184384766,693.0072508642578,121.76508714384765Q692.8916208642578,121.59203294384766,692.7676408642578,121.42486094384766Q692.6436608642578,121.25768854384765,692.5116308642578,121.09680124384765Q692.3795908642578,120.93591404384766,692.2398208642578,120.78169964384766Q692.1000208642578,120.62748524384766,691.9528608642578,120.48031424384766Q691.8056808642579,120.33314324384766,691.6514708642578,120.19337174384765Q691.4972708642579,120.05359934384765,691.3363808642578,119.92156264384765Q691.1754908642579,119.78952594384765,691.0083208642578,119.66554264384766Q690.8411408642578,119.54155924384766,690.6680908642578,119.42592854384766Q690.4950408642578,119.31029744384766,690.3165308642579,119.20329664384765Q690.1380108642578,119.09629634384765,689.9544508642578,118.99818374384766Q689.7709008642578,118.90007214384765,689.5827508642578,118.81108474384766Q689.3946108642579,118.72209744384766,689.2023208642578,118.64244934384766Q689.0100208642579,118.56280134384765,688.8140708642578,118.49268384384766Q688.6181208642578,118.42256644384766,688.4189408642578,118.36214924384765Q688.2197708642578,118.30173114384766,688.0178708642578,118.25115964384766Q687.8159808642579,118.20058824384766,687.6118508642578,118.15998454384766Q687.4077108642578,118.11938004384766,687.2018608642578,118.08884044384766Q686.9959708642577,118.05830194384765,686.7888508642578,118.03790094384766Q686.5817108642578,118.01750184384765,686.3738408642578,118.00728894384766Q686.1659508642579,117.99707604384766,685.9578208642579,117.99707604384766Q684.9350708642578,117.99707604384766,683.9416608642578,118.24028774384766Q609.6068608642578,135.54686264384765,538.8689808642578,182.13034094384767Q464.9182858642578,230.82956994384767,474.0853004642578,295.4340599438476Q474.1100520642578,295.6233299438477,474.1432981642578,295.81131994384765Q474.1765441642578,295.99928994384766,474.21821736425784,296.1855899438476Q474.25989056425783,296.3718899438477,474.30990596425784,296.5561299438476Q474.3599214642578,296.74034994384766,474.4181780642578,296.9221399438477Q474.4764346642578,297.10391994384764,474.5428147642578,297.2829099438477Q474.60919476425784,297.46188994384767,474.6835632642578,297.6376999438477Q474.7579316642578,297.81350994384763,474.8401374642578,297.98579994384767Q474.9223441642578,298.15808994384764,475.0122217642578,298.3264999438477Q475.10209946425783,298.4949099438477,475.1994662642578,298.6591299438477Q475.2968325642578,298.8233299438476,475.40149066425784,298.9829799438477Q475.50614926425783,299.1426299438476,475.6178865642578,299.2974199438477Q475.72962476425784,299.45218994384766,475.84821506425783,299.60176994384767Q475.9668063642578,299.7513499438477,476.0920100642578,299.89544994384767Q476.2172136642578,300.0395599438476,476.3487763642578,300.1778599438477Q476.4803390642578,300.31619994384766,476.6179933642578,300.44844994384766Q476.7556485642578,300.58070994384764,476.8991169642578,300.7066399438477Q477.04258536425783,300.83256994384766,477.1915759642578,300.9519099438477Q477.34056666425784,301.07126994384765,477.4947781642578,301.18376994384766Q477.64898966425784,301.29629994384766,477.8081090642578,301.40175994384765Q477.9672286642578,301.5072299438476,478.1309335642578,301.60541994384766Q478.29463866425783,301.70360994384765,478.46259716425783,301.79432994384763Q478.6305558642578,301.88504994384766,478.8024277642578,301.96812994384766Q478.97429986425783,302.05118994384765,479.14973666425783,302.12645994384764Q479.3251733642578,302.20169994384764,479.5038194642578,302.26898994384766Q479.6824655642578,302.33627994384767,479.8639588642578,302.39544994384767Q480.0454521642578,302.45462994384764,480.2294249642578,302.50555994384763Q480.4133976642578,302.5565099438477,480.59947693425784,302.59912994384763Q480.7855561942578,302.6417499438477,480.97336483425784,302.67593994384765Q481.1611734942578,302.71013994384765,481.3503308342578,302.73582994384765Q481.5394881812578,302.76153994384765,481.7296108342578,302.7787099438476Q481.9197334942578,302.7958799438477,482.1104361442578,302.80446994384766Q482.3011387542578,302.81305994384763,482.49203491425783,302.81305994384763Q482.70016566425784,302.81305994384763,482.9080455642578,302.80282994384766Q483.1159255642578,302.7926399438477,483.3230540642578,302.77225994384764Q483.5301823642578,302.75183994384764,483.7360603642578,302.72130994384764Q483.9419383642578,302.69075994384764,484.1460697642578,302.65013994384765Q484.35020116425784,302.60953994384766,484.55209446425783,302.5589699438476Q484.75398776425783,302.5083999438476,484.9531564642578,302.44797994384766Q485.1523249642578,302.38754994384766,485.3482889642578,302.31743994384766Q485.5442530642578,302.24731994384763,485.7365407642578,302.16766994384767Q485.9288282642578,302.08801994384766,486.1169767642578,301.99902994384763Q486.3051242642578,301.9100599438476,486.4886793642578,301.8119599438477Q486.6722340642578,301.7138399438477,486.85075376425783,301.60682994384763Q487.02927306425784,301.4998199438477,487.2023277642578,301.3841899438477Q487.3753814642578,301.26855994384766,487.5425538642578,301.14459994384765Q487.7097263642578,301.02060994384766,487.87061356425784,300.88856994384764Q488.0315008642578,300.75653994384766,488.18571516425783,300.61676994384766Q488.3399300642578,300.47697994384765,488.4871005642578,300.32980994384764Q488.6342711642578,300.1826399438477,488.7740430642578,300.02842994384764Q488.9138154642578,299.87420994384763,489.04585216425784,299.71332994384767Q489.1778888642578,299.5524399438476,489.30187176425784,299.38525994384764Q489.4258546642578,299.21808994384764,489.5414862642578,299.04503994384766Q489.6571178642578,298.87198994384767,489.7641181642578,298.69345994384764Q489.8711185642578,298.5149499438477,489.9692306642578,298.33139994384766Q490.06734276425783,298.1478299438477,490.1563300642578,297.9596799438476Q490.2453174642578,297.7715199438477,490.32496646425784,297.5792499438477Q490.4046144642578,297.38696994384765,490.4747314642578,297.1909899438476Q490.5448484642578,296.99502994384767,490.6052656642578,296.7958799438477Q490.66568276425784,296.5966999438476,490.7162542642578,296.3948099438477Q490.7668266642578,296.19290994384767,490.8074302642578,295.98877994384765Q490.8480348642578,295.7846499438476,490.8785743642578,295.57876994384765Q490.9091129642578,295.37289994384764,490.9295139642578,295.16577994384767Q490.9499149642578,294.9586599438477,490.9601268642578,294.7507699438477Q490.9703388642578,294.54287994384765,490.9703388642578,294.33475994384764Q490.9703388642578,293.68854994384765,490.87239936425783,293.0497999438477Q490.8714542642578,293.0436599438476,490.87058546425783,293.03752994384763Q483.2261773642578,239.07499994384767,548.1943438642578,196.29107694384766Q616.4011208642578,151.37441094384766,687.7843908642578,134.75458814384766Z" fill-rule="evenodd" fill="url(#master_svgt_6_12235)" fill-opacity="1" style="mix-blend-mode:passthrough"/><path d="M370.58556517736815,312.98572015136716C413.5393511773682,283.5960483513672,464.9709911773682,280.2049489513672,524.8804911773682,302.8124221513672C582.5295811773682,262.1193791513672,619.8312511773681,353.6791301513672,624.9179211773682,368.9390721513672C630.0045611773681,384.1990201513672,638.4822811773681,429.97885515136716,648.6555911773681,440.15216515136717C658.8289311773682,450.3254351513672,663.9155711773682,511.3652351513672,624.9179211773682,540.1895551513671C585.9202711773681,569.0139051513672,521.4894011773681,614.7937451513671,440.10310117736816,609.7070751513672C358.71673017736816,604.6204651513672,287.5036544773682,555.4496051513672,280.72145861736817,494.4097251513672C273.93926237736815,433.3698751513672,309.54537417736816,312.9855731513672,370.58556517736815,312.98572015136716Z" fill="url(#master_svgu_6_12302)" fill-opacity="1" style="mix-blend-mode:passthrough"/><path d="M563.88364734375,579.9609849853516C529.56525734375,598.2359729853515,487.73853334375,612.6842609853516,440.10333234375,609.7070469853516C431.42387734375,609.1645849853516,422.86012744375,608.1207429853515,414.47788670092,606.6146009853516Q482.44980634374997,543.0746749853515,563.88364734375,579.9609849853516Z" fill-rule="evenodd" fill="#ED9682" fill-opacity="1" style="mix-blend-mode:passthrough" filter="url(#master_svgv_6_13274)"/><path d="M316.985893640625,560.5221789233399C296.749858640625,541.8479489233398,283.464787040625,519.0997889233398,280.721449080625,494.40970892333985C274.449489640625,437.96198892333985,304.42784864062503,330.7631269233398,357.24813864062503,314.95319994830515C362.328666640625,321.35944512333987,352.62095664062497,331.76675992333986,339.970489640625,345.32889792333987C325.529151640625,360.81096292333984,307.252906640625,380.40430492333985,302.763770640625,402.84999892333985C296.745317640625,432.94226892333984,287.503826140625,489.3230189233399,294.286022640625,513.0607089233398C300.074653640625,533.3209289233398,310.803909640625,542.4647489233398,316.985893640625,560.5221789233399Z" fill-rule="evenodd" fill="#F8D5D9" fill-opacity="1" style="opacity:0.5;" filter="url(#master_svgw_6_13277)"/><path d="M381.03113965625,306.44635150758086Q375.72748565625,309.4676713858398,370.58580065625,312.9856967858398C357.88679465625,312.98566628583984,346.28862765625,318.19611898583986,335.9439640332,326.99867998583983Q351.21367265625,330.30168498583987,362.10825365625,324.85460998583983Q375.67264565625,318.0726869858398,436.71240765625,355.37450398583985C436.71240765625,344.07071698583985,431.62575565625,333.89736198583984,421.45246165624997,324.85442698583984Q408.23648065625,313.10687298583986,381.03113965625,306.44635150758086Z" fill-rule="evenodd" fill="#F8D5D9" fill-opacity="1" style="opacity:0.5;" filter="url(#master_svgx_6_13280)"/><path d="M319.7192149375,470.6719253491211C315.1977501375,458.2379053491211,312.9369850375,467.8461953491211,312.9369239375,499.49680534912113C302.7635154375,430.5444453491211,311.8064460375,379.6779443491211,340.0657159375,346.8973233491211C382.4546199375,297.72638734912107,445.1898809375,326.5512275491211,457.05868093749996,394.3727033491211C462.99313093750004,428.2834353491211,460.44980093749996,446.93437534912107,443.4943209375,470.6719253491211C426.5388309375,494.4095053491211,397.7144849375,492.7140753491211,375.6723399375,492.7140753491211C353.63020293750003,492.7140753491211,326.5014119375,489.32299534912113,319.7192149375,470.6719253491211Z" fill="#EE4D4A" fill-opacity="1" style="mix-blend-mode:passthrough" filter="url(#master_svgy_6_13283)"/><path d="M550,325.499988586084Q530,341.49998898608396,550,406.49998898608396Q608.200439,401.94212698608396,616.493774,379.19151698608397Q620.027611,369.497348986084,614.5,356.49998898608396C596,312.99998088608396,570,309.49998948608396,550,325.499988586084Z" fill="#F16562" fill-opacity="1" style="mix-blend-mode:passthrough" filter="url(#master_svgz_6_13284)"/><path d="M534.064514175,329.09358921603393Q530.673400875,318.92029121603395,542.542296875,296.87814851603395Q542.220222875,295.48249421603396,541.884549875,294.26357419734654C537.309262875,295.62384191603394,532.575549575,297.79956941603393,527.690882875,300.92213921603394C522.510256275,321.3092802160339,537.246908875,338.6407392160339,534.064514175,329.09358921603393Z" fill-rule="evenodd" fill="#E75646" fill-opacity="1" style="mix-blend-mode:passthrough" filter="url(#master_svg10_6_13285)"/><path d="M536.16607511875,296.3620310115234Q533.68119801875,306.44330231152344,536.74967951875,324.8547363115234C542.40141291875,312.4207043115234,549.74876421875,305.07332231152344,558.79167221875,302.8125913115234C569.57162821875,300.1176009115234,574.99716521875,303.84793531152343,583.57885721875,309.7482933115234C585.79549021875,311.2723393115234,588.22269021875,312.94116631152343,591.00712621875,314.68143831152344C594.02812921875,316.5695683115234,597.23836521875,319.15155231152346,600.63784021875,322.4273913115234C585.27572221875,301.61935041152344,563.30654521875,284.5206056115234,536.16607511875,296.3620310115234Z" fill-rule="evenodd" fill="#F8D5D9" fill-opacity="1" style="opacity:0.6000000238418579;" filter="url(#master_svg11_6_13288)"/><path d="M566.422867046875,494.4096491810547C566.422867046875,494.89757748105467,566.282577046875,495.3752178810547,566.0187150468751,495.7856471810547Q555.323006046875,513.5601120810547,535.723236046875,518.9055000810547L535.674824046875,518.9187030810547L535.625935046875,518.9299870810547Q512.651625046875,524.2317500810547,484.704044246875,508.5333230810547C483.864711526875,508.0944270810547,483.338623046875,507.2256570810547,483.338623046875,506.2785000810547C483.338623046875,504.8732160810547,484.477830446875,503.7340090810547,485.883114146875,503.7340090810547C486.345968746875,503.7340090810547,486.800056446875,503.86025908105466,487.196486946875,504.0991680810547Q513.396345046875,518.8154680810546,534.433350046875,513.9848350810547Q552.027725046875,509.1679710810547,561.6586680468749,493.1657139810547C562.108780046875,492.3625323810547,562.957664046875,491.8651580810547,563.878372046875,491.8651580810547C565.283661046875,491.8651580810547,566.422867046875,493.00436548105466,566.422867046875,494.4096491810547Z" fill-rule="evenodd" fill="#9F1C11" fill-opacity="1" style="mix-blend-mode:passthrough"/><path d="M314.6326510837891,421.50093480859374C324.80594588378904,386.4595818085937,347.97845088378904,368.93890380859375,384.1501688837891,368.93890380859375C438.4077358837891,368.93890380859375,448.58103588378907,421.50093480859374,448.58103588378907,438.4564288085937C448.58103588378907,455.4119188085938,440.1032958837891,489.32290380859376,384.1501688837891,496.1050938085938C328.19704388378904,502.8873138085937,304.4593562837891,468.9763138085938,314.6326510837891,421.50093480859374Z" fill="url(#master_svg12_6_12246)" fill-opacity="1" style="mix-blend-mode:passthrough"/><g><path d="M424.2668681845703,382.585621875238C443.9489131845703,399.362832775238,448.5808541845703,427.015526775238,448.5808541845703,438.456444775238C448.5808541845703,450.567284775238,444.25563818457033,471.32856177523803,421.3940281845703,484.67547977523805C420.31719218457033,485.130639775238,419.2064591845703,485.550149775238,418.0613551845703,485.931859775238C392.6282081845703,494.409639775238,353.6304931845703,480.84521977523804,346.8482703845703,448.62990677523806C340.0660476845703,416.414597775238,355.3260111845703,394.372267775238,375.6726071845703,382.503629175238C392.8566171845703,372.47979997523805,412.4594721845703,374.54995957523806,424.2668681845703,382.585621875238Z" fill-rule="evenodd" fill="#000000" fill-opacity="1" style="mix-blend-mode:passthrough"/></g><g><path d="M394.7561974372711,369.65976268054567C391.42299843727113,369.18883553054565,387.8913064372711,368.93891859054565,384.15001143727113,368.93891859054565Q329.8924354372711,368.93891954421997,314.6324930372711,421.50094959054564C314.0852081772711,424.0549465905457,313.6360628872711,426.56968659054564,313.2847931281011,429.0409465905457C318.2623336372711,415.4912795905457,323.53518543727114,395.7971565905457,341.7612214372711,384.19878759054563C357.5018984372711,374.18200639054567,376.8655794372711,368.99592292354566,394.7561974372711,369.65976268054567Z" fill-rule="evenodd" fill="#000000" fill-opacity="1" style="mix-blend-mode:passthrough"/></g><ellipse cx="414.67005348205566" cy="396.06769371032715" rx="10.423295974731445" ry="8.727746963500977" fill="#FFFFFF" fill-opacity="1" style="mix-blend-mode:passthrough"/><path d="M548.618408203125,387.59002316796875C548.618408203125,370.63480716796875,557.097027803125,333.33039376796876,592.703125203125,343.50456286796873C628.3092192031249,353.67873216796875,633.395874203125,397.76336316796875,633.395874203125,424.8921581679688C633.395874203125,452.02092716796875,599.485752203125,463.88710716796874,577.443176203125,448.62850716796873C555.400604703125,433.36989616796876,548.618408203125,404.54524216796875,548.618408203125,387.59002316796875Z" fill="url(#master_svg13_6_12450)" fill-opacity="1" style="mix-blend-mode:passthrough"/><g><path d="M554.505509903125,360.4435606078125C550.118267803125,369.7277585078125,548.618408203125,380.45876650781247,548.618408203125,387.5900235078125C548.618408203125,403.0600165078125,554.264447203125,428.4110645078125,571.996181203125,444.3234935078125C580.048818203125,449.9323735078125,592.8514552031249,454.4526505078125,602.875946203125,446.9342805078125C616.440338203125,436.7609865078125,626.613632203125,413.0232965078125,618.135879203125,389.28560650781253C609.658134203125,365.5479155078125,585.920654203125,351.9835205078125,570.660505203125,351.9835205078125Q560.820413203125,351.98352020033707,554.505509903125,360.4435606078125Z" fill-rule="evenodd" fill="#1E1216" fill-opacity="1" style="mix-blend-mode:passthrough"/></g><g><path d="M630.7450598200684,393.92451516796876C626.5918698200684,372.09422916796876,616.4150198200683,350.28001306796875,592.7032738200684,343.50456286796873C584.3829488200683,341.12709390796874,577.5439181200684,341.34218930796874,571.9482234178143,343.2843725679688Q573.5515492200684,343.50577736796873,577.4427223200684,343.50577736796873C596.0937648200684,343.50577736796873,606.2669678200683,350.28797526796876,614.7447588200683,362.15682216796876C620.1163368200683,369.67699816796875,626.1685748200683,384.00406616796874,630.7450598200684,393.92451516796876Z" fill-rule="evenodd" fill="#000000" fill-opacity="1" style="mix-blend-mode:passthrough"/></g><ellipse cx="599.9086608886719" cy="369.0797448158264" rx="9.368133544921875" ry="7.032198429107666" fill="#FFFFFF" fill-opacity="1" style="mix-blend-mode:passthrough" transform="matrix(0.695443868637085,0.718580424785614,-0.718580424785614,0.695443868637085,440.26880223502303,-314.19056896817347)"/></svg>