<?xml version="1.0" encoding="UTF-8"?>
<svg width="180px" height="180px" viewBox="0 0 180 180" version="1.1" xmlns="http://www.w3.org/2000/svg" xmlns:xlink="http://www.w3.org/1999/xlink">
    <title>虾钳</title>
    <defs>
        <linearGradient x1="80.4420357%" y1="34.452626%" x2="37.835019%" y2="45.8872335%" id="linearGradient-1">
            <stop stop-color="#F1A896" offset="0%"></stop>
            <stop stop-color="#E14330" offset="100%"></stop>
        </linearGradient>
        <linearGradient x1="50%" y1="12.5874387%" x2="24.8452644%" y2="65.0174744%" id="linearGradient-2">
            <stop stop-color="#FFC4C4" stop-opacity="0" offset="0%"></stop>
            <stop stop-color="#D43423" stop-opacity="0.332604895" offset="61.0853175%"></stop>
            <stop stop-color="#B43530" stop-opacity="0.698426573" offset="100%"></stop>
        </linearGradient>
        <path d="M85.9910549,14.7649499 C86.927839,11.7257256 77.4836835,1.82325947 55.0860846,0.127007346 C32.6884858,-1.56924478 16.1878456,14.1966739 10.8034568,19.2933265 C5.41906795,24.3899792 -0.629021643,33.090682 0.0528131118,35.3482817 C0.507369615,36.8533483 6.25266941,42.2989596 17.2887125,51.6851158 L28.1532245,51.6851158 L37.4703429,58.5684651 C38.0326976,51.6343509 41.8542037,43.1237639 48.9348612,33.0367042 C51.6625915,29.1507969 56.17631,29.6640978 61.0007328,28.0454232 C62.9926683,27.3770955 63.6586881,23.3566566 65.4869197,22.8235956 C67.1007071,22.3530605 71.1660426,23.1354764 72.7766011,22.8235956 C74.7580126,22.4399 75.3167869,18.0678517 77.1262442,17.6881696 C81.2780206,16.8169941 81.7226407,17.2957195 83.9407183,16.6712335 C85.3188195,16.2832377 85.8372715,15.2638717 85.9910549,14.7649499 Z" id="path-3"></path>
        <path d="M85.9910549,14.7649499 C86.927839,11.7257256 77.4836835,1.82325947 55.0860846,0.127007346 C32.6884858,-1.56924478 16.1878456,14.1966739 10.8034568,19.2933265 C5.41906795,24.3899792 -0.629021643,33.090682 0.0528131118,35.3482817 C0.507369615,36.8533483 6.25266941,42.2989596 17.2887125,51.6851158 L28.1532245,51.6851158 L37.4703429,58.5684651 C38.0326976,51.6343509 41.8542037,43.1237639 48.9348612,33.0367042 C51.6625915,29.1507969 56.17631,29.6640978 61.0007328,28.0454232 C62.9926683,27.3770955 63.6586881,23.3566566 65.4869197,22.8235956 C67.1007071,22.3530605 71.1660426,23.1354764 72.7766011,22.8235956 C74.7580126,22.4399 75.3167869,18.0678517 77.1262442,17.6881696 C81.2780206,16.8169941 81.7226407,17.2957195 83.9407183,16.6712335 C85.3188195,16.2832377 85.8372715,15.2638717 85.9910549,14.7649499 Z" id="path-4"></path>
        <filter x="-7.8%" y="-10.8%" width="115.5%" height="121.7%" filterUnits="objectBoundingBox" id="filter-6">
            <feGaussianBlur stdDeviation="1.13888345" in="SourceGraphic"></feGaussianBlur>
        </filter>
        <linearGradient x1="2.04682279e-13%" y1="67.7054254%" x2="109.293203%" y2="38.1522813%" id="linearGradient-7">
            <stop stop-color="#F7A49B" stop-opacity="0" offset="0%"></stop>
            <stop stop-color="#FFDEDA" stop-opacity="0.565525308" offset="40.9470906%"></stop>
            <stop stop-color="#F7A49B" stop-opacity="0.100852273" offset="100%"></stop>
        </linearGradient>
        <linearGradient x1="50%" y1="88.2294936%" x2="100%" y2="0.720118407%" id="linearGradient-8">
            <stop stop-color="#F7A49B" stop-opacity="0" offset="0%"></stop>
            <stop stop-color="#FFDEDA" stop-opacity="0.565525308" offset="40.9470906%"></stop>
            <stop stop-color="#F7A49B" stop-opacity="0.100852273" offset="100%"></stop>
        </linearGradient>
        <linearGradient x1="107.366543%" y1="25.1396635%" x2="50%" y2="72.3143838%" id="linearGradient-9">
            <stop stop-color="#F1A896" offset="0%"></stop>
            <stop stop-color="#E14330" offset="100%"></stop>
        </linearGradient>
        <linearGradient x1="69.3700231%" y1="-8.83768497%" x2="59.7395823%" y2="82.1705567%" id="linearGradient-10">
            <stop stop-color="#FFC4C4" stop-opacity="0" offset="0%"></stop>
            <stop stop-color="#D43423" stop-opacity="0.607277536" offset="70.3638025%"></stop>
            <stop stop-color="#B43530" offset="100%"></stop>
        </linearGradient>
        <path d="M70.1247869,0.212931774 C69.4591923,0.593599227 66.8895613,1.88589023 65.9240383,3.71442731 C65.1874556,5.10939022 66.045891,7.37618101 65.1958128,9.27344055 C64.6471647,10.4979491 61.5857662,11.4905304 60.8832369,12.8000103 C60.0860033,14.2860143 60.2004343,16.8087503 59.307794,18.5931091 C58.4151536,20.377468 54.9145539,20.377468 53.9910654,21.4632385 C50.8444238,25.1628305 50.4454686,28.3660042 45.4659782,30.4722108 C35.6663192,34.6172347 25.1842341,34.9751799 14.019723,31.5460464 L10.0069133,48.5015624 L14.019723,57.5388102 L0,76.4217256 C10.3810074,76.4547508 22.4436747,73.2080489 36.1880018,66.6816201 C56.8044925,56.8919768 67.1795582,38.0370899 70.8588516,26.5119392 C73.9309172,16.8888905 73.1803748,4.18198862 72.5776807,1.99039837 C71.9749866,-0.201191879 70.8488793,-0.201191879 70.1247869,0.212931774 Z" id="path-11"></path>
        <path d="M70.1247869,0.212931774 C69.4591923,0.593599227 66.8895613,1.88589023 65.9240383,3.71442731 C65.1874556,5.10939022 66.045891,7.37618101 65.1958128,9.27344055 C64.6471647,10.4979491 61.5857662,11.4905304 60.8832369,12.8000103 C60.0860033,14.2860143 60.2004343,16.8087503 59.307794,18.5931091 C58.4151536,20.377468 54.9145539,20.377468 53.9910654,21.4632385 C50.8444238,25.1628305 50.4454686,28.3660042 45.4659782,30.4722108 C35.6663192,34.6172347 25.1842341,34.9751799 14.019723,31.5460464 L10.0069133,48.5015624 L14.019723,57.5388102 L0,76.4217256 C10.3810074,76.4547508 22.4436747,73.2080489 36.1880018,66.6816201 C56.8044925,56.8919768 67.1795582,38.0370899 70.8588516,26.5119392 C73.9309172,16.8888905 73.1803748,4.18198862 72.5776807,1.99039837 C71.9749866,-0.201191879 70.8488793,-0.201191879 70.1247869,0.212931774 Z" id="path-12"></path>
        <filter x="-10.8%" y="-10.6%" width="121.7%" height="121.1%" filterUnits="objectBoundingBox" id="filter-14">
            <feGaussianBlur stdDeviation="1.13888345" in="SourceGraphic"></feGaussianBlur>
        </filter>
        <linearGradient x1="50%" y1="100%" x2="63.1685758%" y2="-14.4526999%" id="linearGradient-15">
            <stop stop-color="#F7A49B" stop-opacity="0" offset="0%"></stop>
            <stop stop-color="#FFDEDA" stop-opacity="0.565525308" offset="40.9470906%"></stop>
            <stop stop-color="#F7A49B" stop-opacity="0.100852273" offset="100%"></stop>
        </linearGradient>
        <linearGradient x1="50%" y1="100%" x2="91.9355898%" y2="-14.4526999%" id="linearGradient-16">
            <stop stop-color="#F7A49B" stop-opacity="0" offset="0%"></stop>
            <stop stop-color="#FFDEDA" stop-opacity="0.565525308" offset="40.9470906%"></stop>
            <stop stop-color="#F7A49B" stop-opacity="0.100852273" offset="100%"></stop>
        </linearGradient>
        <linearGradient x1="69.4243694%" y1="28.849553%" x2="45.2194037%" y2="85.894655%" id="linearGradient-17">
            <stop stop-color="#EF624E" offset="0%"></stop>
            <stop stop-color="#DE4330" offset="44.8624214%"></stop>
            <stop stop-color="#D02E20" offset="100%"></stop>
        </linearGradient>
        <filter x="-91.1%" y="-80.8%" width="282.2%" height="261.5%" filterUnits="objectBoundingBox" id="filter-18">
            <feGaussianBlur stdDeviation="5.69441726" in="SourceGraphic"></feGaussianBlur>
        </filter>
        <filter x="-18.4%" y="-20.6%" width="136.7%" height="141.1%" filterUnits="objectBoundingBox" id="filter-19">
            <feGaussianBlur stdDeviation="2.2777669" in="SourceGraphic"></feGaussianBlur>
        </filter>
        <linearGradient x1="79.5290958%" y1="28.849553%" x2="42.7324958%" y2="85.894655%" id="linearGradient-20">
            <stop stop-color="#EF624E" offset="0%"></stop>
            <stop stop-color="#DE4330" offset="44.8624214%"></stop>
            <stop stop-color="#D02E20" offset="100%"></stop>
        </linearGradient>
        <filter x="-71.1%" y="-62.4%" width="242.1%" height="224.7%" filterUnits="objectBoundingBox" id="filter-21">
            <feGaussianBlur stdDeviation="5.69441726" in="SourceGraphic"></feGaussianBlur>
        </filter>
        <filter x="-16.7%" y="-16.8%" width="133.5%" height="133.6%" filterUnits="objectBoundingBox" id="filter-22">
            <feGaussianBlur stdDeviation="2.2777669" in="SourceGraphic"></feGaussianBlur>
        </filter>
        <linearGradient x1="75.6270746%" y1="28.849553%" x2="43.6928352%" y2="85.894655%" id="linearGradient-23">
            <stop stop-color="#EF624E" offset="0%"></stop>
            <stop stop-color="#DE4330" offset="44.8624214%"></stop>
            <stop stop-color="#D02E20" offset="100%"></stop>
        </linearGradient>
        <linearGradient x1="47.1038078%" y1="62.8007501%" x2="41.3242415%" y2="97.2557839%" id="linearGradient-24">
            <stop stop-color="#D83A2A" stop-opacity="0" offset="0%"></stop>
            <stop stop-color="#B72721" offset="100%"></stop>
        </linearGradient>
        <path d="M25.8809188,0.963107416 C29.3199456,3.09950333 31.815156,8.65825407 36.5241168,11.477714 C41.2330777,14.2971738 48.4273272,15.0423718 53.4457148,15.9741315 C61.3096953,17.4342299 65.3745524,24.7188445 63.9368084,30.7117883 C62.2544596,37.7243181 59.9015276,42.4354555 60.5941199,50.3683004 C62.2544596,57.9891351 55.1154193,69.1241328 44.0991227,72.0261872 C33.0828262,74.9282415 18.351809,73.0254859 8.06662075,60.101416 C-2.21856751,47.1773461 3.03293739,27.2284221 7.01283701,19.2798468 C10.3736708,12.5676573 15.5656368,4.93364169 17.6426254,2.77129879 C19.719614,0.608955891 22.441892,-1.17328849 25.8809188,0.963107416 Z" id="path-25"></path>
        <filter x="-52.7%" y="-107.1%" width="205.4%" height="314.3%" filterUnits="objectBoundingBox" id="filter-26">
            <feGaussianBlur stdDeviation="5.69441726" in="SourceGraphic"></feGaussianBlur>
        </filter>
        <linearGradient x1="100%" y1="43.0906678%" x2="-2.70570283e-13%" y2="57.3440281%" id="linearGradient-27">
            <stop stop-color="#F7A49B" stop-opacity="0.252485795" offset="0%"></stop>
            <stop stop-color="#FFC0B9" stop-opacity="0.565525308" offset="47.8638347%"></stop>
            <stop stop-color="#F7A49B" stop-opacity="0.234702797" offset="100%"></stop>
        </linearGradient>
        <filter x="-23.7%" y="-61.9%" width="147.4%" height="223.8%" filterUnits="objectBoundingBox" id="filter-28">
            <feGaussianBlur stdDeviation="1.13888345" in="SourceGraphic"></feGaussianBlur>
        </filter>
    </defs>
    <g id="虾钳" stroke="none" stroke-width="1" fill="none" fill-rule="evenodd">
        <rect fill="#FFFFFF" x="0" y="0" width="180" height="180"></rect>
        <g id="编组-2备份-2" transform="translate(19, 12)">
            <g id="路径-22" transform="translate(49.7483, 0)">
                <g id="左钳" fill-rule="nonzero">
                    <use fill="url(#linearGradient-1)" xlink:href="#path-3"></use>
                    <use fill="url(#linearGradient-2)" xlink:href="#path-3"></use>
                </g>
                <mask id="mask-5" fill="white">
                    <use xlink:href="#path-4"></use>
                </mask>
                <g id="左钳" fill-rule="nonzero"></g>
                <path d="M87.0619,15.5061568 C82.0854492,13.9551179 78.3854666,13.5672488 75.9619523,14.3425495 C72.3266807,15.5055006 73.6764005,20.4966335 71.8409204,20.4966335 C70.0054404,20.4966335 63.9289755,18.7193166 62.2818515,20.4966335 C60.6347276,22.2739504 59.5249818,26.446177 56.690933,26.446177 C53.8568842,26.446177 46.3171903,29.713746 45.4368737,32.2740885 C44.8499959,33.9809836 44.0467418,38.3754133 43.0271113,45.4573777 L61.5804731,29.7545947 L78.3109503,23.0057284 L87.0619,15.5061568 Z" fill="#E33A2B" filter="url(#filter-6)" mask="url(#mask-5)"></path>
                <path d="M79.3926455,13.9549721 C77.190826,13.9097078 75.7544105,14.0638864 75.0833991,14.4175077 C74.0742647,14.9493191 73.4220442,16.3233133 72.8256501,17.1439468" id="路径-25" stroke="url(#linearGradient-7)" stroke-width="1.13888345" stroke-linecap="round" mask="url(#mask-5)"></path>
                <path d="M65.6511956,19.2505277 C64.1955919,18.8184064 62.8613845,19.1374492 61.6485734,20.207656 C60.4357623,21.2778629 59.5423546,22.8445188 58.9683502,24.9076238" id="路径-26" stroke="url(#linearGradient-8)" stroke-width="1.13888345" stroke-linecap="round" mask="url(#mask-5)"></path>
            </g>
            <g id="路径-21" transform="translate(69.8785, 29.664)">
                <g id="右钳" fill-rule="nonzero">
                    <use fill="url(#linearGradient-9)" xlink:href="#path-11"></use>
                    <use fill="url(#linearGradient-10)" xlink:href="#path-11"></use>
                </g>
                <mask id="mask-13" fill="white">
                    <use xlink:href="#path-12"></use>
                </mask>
                <g id="蒙版" fill-rule="nonzero">
                    <use fill="url(#linearGradient-9)" xlink:href="#path-12"></use>
                    <use fill="url(#linearGradient-10)" xlink:href="#path-12"></use>
                </g>
                <path d="M69.6074568,5.55111512e-17 C68.1609815,1.9029231 67.4377438,3.62640335 67.4377438,5.17044074 C67.4377438,7.48649683 67.9816108,11.7616885 65.2267852,12.9246367 C62.4719596,14.0875849 61.4408184,15.9374471 61.4408184,18.5931091 C61.4408184,21.2487711 59.8327177,21.326146 57.671158,22.7330978 C55.5095982,24.1400496 53.6300436,27.4492165 52.582596,28.9044747 C51.5351484,30.3597329 44.1138093,31.9665325 39.0540233,31.9665325 C35.6808327,31.9665325 40.7730716,24.8557839 54.33074,10.6342868 L65.9240383,-0.379757847 L69.6074568,5.55111512e-17 Z" fill="#E33A2B" filter="url(#filter-14)" mask="url(#mask-13)"></path>
                <path d="M67.6418786,5.77845082 C68.0199001,8.9419905 66.9609313,11.0539069 64.464972,12.1142001" id="路径-23" stroke="url(#linearGradient-15)" stroke-width="1.13888345" stroke-linecap="round" mask="url(#mask-13)"></path>
                <path d="M61.4878149,16.9310958 C61.1751524,19.2214056 59.8178442,20.7034872 57.4158901,21.3773406" id="路径-24" stroke="url(#linearGradient-16)" stroke-width="1.13888345" stroke-linecap="round" mask="url(#mask-13)"></path>
            </g>
            <g id="编组-5" transform="translate(0, 95.8802)">
                <path d="M9.61048199,0.302927398 C5.12788098,3.96986537 -3.42571487,20.6614926 1.46438613,38.1489582 C6.35448713,55.6364239 10.4845309,61.1198004 13.737915,61.1198004 C16.991299,61.1198004 16.9828069,46.6047901 27.7266519,43.3644305 C38.4704969,40.124071 45.1693263,32.1015425 45.1693263,29.7635315 C45.1693263,27.4255204 14.093083,-3.36401058 9.61048199,0.302927398 Z" id="3节" fill="url(#linearGradient-17)"></path>
                <path d="M7.52627639,16.1917025 C11.200148,17.3055864 9.22336558,22.8590432 14.044066,27.2060816 C18.8647664,31.5531201 21.0393661,32.4980016 22.5846631,34.1630413 C24.1299602,35.828081 21.7330278,38.1048629 16.5603959,36.9014305 C11.3877641,35.6979981 8.81715411,33.3717112 6.03057435,28.1831739 C3.2439946,22.9946366 3.85240479,15.0778186 7.52627639,16.1917025 Z" id="路径-18" fill="#ED8C7D" filter="url(#filter-18)"></path>
            </g>
            <g id="编组-4" transform="translate(9.3013, 66.7896)">
                <path d="M3.63979907,27.5421594 C0.506037411,30.1778682 -0.604165679,34.0959379 0.309189804,39.2963686 C1.67922303,47.0970146 13.1631064,55.3487515 19.0025531,58.3348425 C24.8419998,61.3209335 32.7162846,61.3209335 36.8047108,59.650503 C39.5303282,58.5368827 28.4753576,47.8341015 3.63979907,27.5421594 Z" id="阴影备份" fill="#9A0E02" filter="url(#filter-19)"></path>
                <path d="M20.0427655,0.200933736 C14.2488888,3.69924306 5.31502846,16.9482626 1.13088066,25.3613256 C-0.459956275,29.2281688 -0.459956275,36.6866541 7.82618352,46.1589517 C16.1123233,55.6312493 29.5933194,60.2285465 34.5362082,61.3629613 C39.479097,62.4973761 49.3814046,42.4414754 55.5542888,41.2340474 C61.727173,40.0266194 25.8366423,-3.29737559 20.0427655,0.200933736 Z" id="2节" fill="url(#linearGradient-20)"></path>
                <path d="M13.283371,16.3081741 C17.1674459,17.6478608 14.9462451,25.2152139 20.0427655,30.4434694 C25.1392859,35.6717249 32.1221191,39.8439062 33.7558315,41.8464772 C35.3895438,43.8490482 31.5349299,44.0977407 26.066342,42.6503525 C20.5977542,41.2029644 15.0274363,36.6838096 12.0814203,30.4434694 C9.13540433,24.2031292 9.39929603,14.9684873 13.283371,16.3081741 Z" id="路径-18" fill="#ED8C7D" filter="url(#filter-21)"></path>
            </g>
            <g id="编组-3" transform="translate(27.4009, 34.8344)">
                <path d="M3.72153028,33.1763563 C0.444755716,36.3294911 -0.668140536,40.8980804 0.382841521,46.8821244 C1.9593146,55.8581903 7.87782744,65.3742764 14.9919679,69.6097268 C22.1061084,73.8451772 28.7780554,75.6681859 38.9709095,71.2515343 C45.7661455,68.3070998 34.0163524,55.6153738 3.72153028,33.1763563 Z" id="阴影" fill="#9A0E02" filter="url(#filter-22)"></path>
                <g id="1节">
                    <use fill="url(#linearGradient-23)" xlink:href="#path-25"></use>
                    <use fill="url(#linearGradient-24)" xlink:href="#path-25"></use>
                </g>
                <path d="M16.0884223,14.8039234 C15.7560675,11.7606551 17.4309201,10.999838 21.1129803,12.5214721 C26.6360705,14.8039234 31.4593338,19.1335415 38.1606789,19.539321 C44.862024,19.9451005 52.8828509,25.4968492 45.5217649,27.3687288 C38.1606789,29.2406085 16.0884223,22.7606381 16.0884223,21.1499796 C16.0884223,20.0762072 16.0884223,17.9608551 16.0884223,14.8039234 Z" id="路径-19" fill="#ED8C7D" filter="url(#filter-26)"></path>
                <path d="M22.347441,13.4226684 C26.4165423,19.528061 33.6180882,22.2570115 43.9520786,21.6095198" id="路径-20" stroke="url(#linearGradient-27)" stroke-width="3.41665035" stroke-linecap="round" filter="url(#filter-28)"></path>
            </g>
        </g>
    </g>
</svg>