<?xml version="1.0" encoding="UTF-8"?>
<svg width="824px" height="824px" viewBox="0 0 824 824" version="1.1" xmlns="http://www.w3.org/2000/svg" xmlns:xlink="http://www.w3.org/1999/xlink">
    <title>GeeClaw</title>
    <defs>
        <linearGradient x1="50%" y1="0%" x2="50%" y2="100%" id="linearGradient-1">
            <stop stop-color="#000000" stop-opacity="0" offset="0%"></stop>
            <stop stop-color="#000000" stop-opacity="0.1" offset="100%"></stop>
        </linearGradient>
        <linearGradient x1="80.4420357%" y1="34.4498531%" x2="37.835019%" y2="45.8865%" id="linearGradient-2">
            <stop stop-color="#F1A896" offset="0%"></stop>
            <stop stop-color="#E14330" offset="100%"></stop>
        </linearGradient>
        <linearGradient x1="50%" y1="12.5807661%" x2="24.8452644%" y2="65.0201528%" id="linearGradient-3">
            <stop stop-color="#FFC4C4" stop-opacity="0" offset="0%"></stop>
            <stop stop-color="#D43423" stop-opacity="0.332604895" offset="61.0853175%"></stop>
            <stop stop-color="#B43530" stop-opacity="0.698426573" offset="100%"></stop>
        </linearGradient>
        <path d="M300.668024,51.6303024 C303.943493,41.0026966 270.92197,6.3756016 192.608687,0.444121227 C114.295405,-5.48735914 56.6008588,49.6431463 37.7743244,67.4651991 C18.94779,85.287252 -2.19937637,115.712003 0.18466123,123.606412 C1.77401963,128.869352 21.8624804,147.911649 60.4500437,180.733303 L98.4378478,180.733303 L131.015185,204.803104 C132.98146,180.555787 146.343369,150.795837 171.100913,115.523252 C180.638432,101.934952 196.420664,103.729871 213.289276,98.0696646 C220.254085,95.7326461 222.582825,81.673914 228.975244,79.809898 C234.617857,78.1645236 248.832317,80.9004875 254.46364,79.809898 C261.391652,78.4681854 263.345409,63.1799399 269.672182,61.8522619 C284.188883,58.805922 285.743499,60.4799362 293.499015,58.2962241 C298.317551,56.9394744 300.13032,53.3749399 300.668024,51.6303024 Z" id="path-4"></path>
        <path d="M300.668024,51.6303024 C303.943493,41.0026966 270.92197,6.3756016 192.608687,0.444121227 C114.295405,-5.48735914 56.6008588,49.6431463 37.7743244,67.4651991 C18.94779,85.287252 -2.19937637,115.712003 0.18466123,123.606412 C1.77401963,128.869352 21.8624804,147.911649 60.4500437,180.733303 L98.4378478,180.733303 L131.015185,204.803104 C132.98146,180.555787 146.343369,150.795837 171.100913,115.523252 C180.638432,101.934952 196.420664,103.729871 213.289276,98.0696646 C220.254085,95.7326461 222.582825,81.673914 228.975244,79.809898 C234.617857,78.1645236 248.832317,80.9004875 254.46364,79.809898 C261.391652,78.4681854 263.345409,63.1799399 269.672182,61.8522619 C284.188883,58.805922 285.743499,60.4799362 293.499015,58.2962241 C298.317551,56.9394744 300.13032,53.3749399 300.668024,51.6303024 Z" id="path-5"></path>
        <filter x="-7.8%" y="-10.8%" width="115.5%" height="121.7%" filterUnits="objectBoundingBox" id="filter-7">
            <feGaussianBlur stdDeviation="3.98210997" in="SourceGraphic"></feGaussianBlur>
        </filter>
        <linearGradient x1="2.04682279e-13%" y1="67.7085832%" x2="109.293203%" y2="38.1501682%" id="linearGradient-8">
            <stop stop-color="#F7A49B" stop-opacity="0" offset="0%"></stop>
            <stop stop-color="#FFDEDA" stop-opacity="0.565525308" offset="40.9470906%"></stop>
            <stop stop-color="#F7A49B" stop-opacity="0.100852273" offset="100%"></stop>
        </linearGradient>
        <linearGradient x1="50%" y1="88.2363119%" x2="100%" y2="0.711329247%" id="linearGradient-9">
            <stop stop-color="#F7A49B" stop-opacity="0" offset="0%"></stop>
            <stop stop-color="#FFDEDA" stop-opacity="0.565525308" offset="40.9470906%"></stop>
            <stop stop-color="#F7A49B" stop-opacity="0.100852273" offset="100%"></stop>
        </linearGradient>
        <linearGradient x1="107.356313%" y1="25.1396635%" x2="50%" y2="72.3143838%" id="linearGradient-10">
            <stop stop-color="#F1A896" offset="0%"></stop>
            <stop stop-color="#E14330" offset="100%"></stop>
        </linearGradient>
        <linearGradient x1="69.3665691%" y1="-8.83768497%" x2="59.7378455%" y2="82.1705567%" id="linearGradient-11">
            <stop stop-color="#FFC4C4" stop-opacity="0" offset="0%"></stop>
            <stop stop-color="#D43423" stop-opacity="0.607277536" offset="70.3638025%"></stop>
            <stop stop-color="#B43530" offset="100%"></stop>
        </linearGradient>
        <path d="M245.191562,0.744583082 C242.864309,2.07570685 233.879585,6.59460978 230.50363,12.9886662 C227.928166,17.8665938 230.929689,25.7931425 227.957388,32.4275087 C226.039037,36.7093887 215.334847,40.1802624 212.878451,44.7592716 C210.09092,49.9555532 210.491029,58.7770948 207.369909,65.0166682 C204.248789,71.2562415 192.00893,71.2562415 188.779949,75.0529805 C177.777706,87.9897703 176.382757,99.1906772 158.971952,106.555693 C124.70741,121.050075 88.0567625,122.301744 49.0200104,110.310697 L34.9892072,169.601005 L49.0200104,201.202591 L0,267.232658 C36.2972288,267.348141 78.4743871,255.995025 126.531475,233.173308 C198.617107,198.940734 234.89356,133.008678 247.758222,92.7073541 C258.49971,59.0573305 255.875436,14.6236417 253.768114,6.96005545 C251.660792,-0.703530838 247.723354,-0.703530838 245.191562,0.744583082 Z" id="path-12"></path>
        <path d="M245.191562,0.744583082 C242.864309,2.07570685 233.879585,6.59460978 230.50363,12.9886662 C227.928166,17.8665938 230.929689,25.7931425 227.957388,32.4275087 C226.039037,36.7093887 215.334847,40.1802624 212.878451,44.7592716 C210.09092,49.9555532 210.491029,58.7770948 207.369909,65.0166682 C204.248789,71.2562415 192.00893,71.2562415 188.779949,75.0529805 C177.777706,87.9897703 176.382757,99.1906772 158.971952,106.555693 C124.70741,121.050075 88.0567625,122.301744 49.0200104,110.310697 L34.9892072,169.601005 L49.0200104,201.202591 L0,267.232658 C36.2972288,267.348141 78.4743871,255.995025 126.531475,233.173308 C198.617107,198.940734 234.89356,133.008678 247.758222,92.7073541 C258.49971,59.0573305 255.875436,14.6236417 253.768114,6.96005545 C251.660792,-0.703530838 247.723354,-0.703530838 245.191562,0.744583082 Z" id="path-13"></path>
        <filter x="-10.8%" y="-10.6%" width="121.7%" height="121.1%" filterUnits="objectBoundingBox" id="filter-15">
            <feGaussianBlur stdDeviation="3.98210997" in="SourceGraphic"></feGaussianBlur>
        </filter>
        <linearGradient x1="50%" y1="100%" x2="63.1662276%" y2="-14.4526999%" id="linearGradient-16">
            <stop stop-color="#F7A49B" stop-opacity="0" offset="0%"></stop>
            <stop stop-color="#FFDEDA" stop-opacity="0.565525308" offset="40.9470906%"></stop>
            <stop stop-color="#F7A49B" stop-opacity="0.100852273" offset="100%"></stop>
        </linearGradient>
        <linearGradient x1="50%" y1="100%" x2="91.9281119%" y2="-14.4526999%" id="linearGradient-17">
            <stop stop-color="#F7A49B" stop-opacity="0" offset="0%"></stop>
            <stop stop-color="#FFDEDA" stop-opacity="0.565525308" offset="40.9470906%"></stop>
            <stop stop-color="#F7A49B" stop-opacity="0.100852273" offset="100%"></stop>
        </linearGradient>
        <linearGradient x1="69.4209056%" y1="28.849553%" x2="45.2202562%" y2="85.894655%" id="linearGradient-18">
            <stop stop-color="#EF624E" offset="0%"></stop>
            <stop stop-color="#DE4330" offset="44.8624214%"></stop>
            <stop stop-color="#D02E20" offset="100%"></stop>
        </linearGradient>
        <filter x="-91.1%" y="-80.8%" width="282.2%" height="261.5%" filterUnits="objectBoundingBox" id="filter-19">
            <feGaussianBlur stdDeviation="19.9105499" in="SourceGraphic"></feGaussianBlur>
        </filter>
        <filter x="-18.4%" y="-20.6%" width="136.7%" height="141.1%" filterUnits="objectBoundingBox" id="filter-20">
            <feGaussianBlur stdDeviation="7.96421994" in="SourceGraphic"></feGaussianBlur>
        </filter>
        <linearGradient x1="79.5238301%" y1="28.849553%" x2="42.7337917%" y2="85.894655%" id="linearGradient-21">
            <stop stop-color="#EF624E" offset="0%"></stop>
            <stop stop-color="#DE4330" offset="44.8624214%"></stop>
            <stop stop-color="#D02E20" offset="100%"></stop>
        </linearGradient>
        <filter x="-71.1%" y="-62.4%" width="242.1%" height="224.7%" filterUnits="objectBoundingBox" id="filter-22">
            <feGaussianBlur stdDeviation="19.9105499" in="SourceGraphic"></feGaussianBlur>
        </filter>
        <filter x="-16.7%" y="-16.8%" width="133.5%" height="133.6%" filterUnits="objectBoundingBox" id="filter-23">
            <feGaussianBlur stdDeviation="7.96421994" in="SourceGraphic"></feGaussianBlur>
        </filter>
        <linearGradient x1="75.6225048%" y1="28.849553%" x2="43.6939599%" y2="85.894655%" id="linearGradient-24">
            <stop stop-color="#EF624E" offset="0%"></stop>
            <stop stop-color="#DE4330" offset="44.8624214%"></stop>
            <stop stop-color="#D02E20" offset="100%"></stop>
        </linearGradient>
        <linearGradient x1="47.1043243%" y1="62.8007501%" x2="41.3257886%" y2="97.2557839%" id="linearGradient-25">
            <stop stop-color="#D83A2A" stop-opacity="0" offset="0%"></stop>
            <stop stop-color="#B72721" offset="100%"></stop>
        </linearGradient>
        <path d="M90.4927231,3.36780874 C102.517292,10.8383906 111.241804,30.2763152 127.706702,40.1354456 C144.1716,49.994576 169.326319,52.6003956 186.873129,55.8585871 C214.369564,60.9642816 228.582351,86.4372334 223.555274,107.393451 C217.672936,131.914972 209.445901,148.388949 211.867552,176.128643 C217.672936,202.777294 192.711256,241.714324 154.192737,251.862272 C115.674217,262.01022 64.1671644,255.356635 28.2049677,210.16355 C-7.75722905,164.970465 10.6046762,95.2127626 24.5204091,67.418063 C36.2715763,43.946776 54.4253036,17.2520337 61.6875015,9.69071997 C68.9496993,2.12940627 78.4681539,-4.10277314 90.4927231,3.36780874 Z" id="path-26"></path>
        <filter x="-52.7%" y="-107.1%" width="205.4%" height="314.3%" filterUnits="objectBoundingBox" id="filter-27">
            <feGaussianBlur stdDeviation="19.9105499" in="SourceGraphic"></feGaussianBlur>
        </filter>
        <linearGradient x1="100%" y1="43.0894355%" x2="-2.70570283e-13%" y2="57.3453379%" id="linearGradient-28">
            <stop stop-color="#F7A49B" stop-opacity="0.252485795" offset="0%"></stop>
            <stop stop-color="#FFC0B9" stop-opacity="0.565525308" offset="47.8638347%"></stop>
            <stop stop-color="#F7A49B" stop-opacity="0.234702797" offset="100%"></stop>
        </linearGradient>
        <filter x="-23.7%" y="-61.9%" width="147.4%" height="223.8%" filterUnits="objectBoundingBox" id="filter-29">
            <feGaussianBlur stdDeviation="3.98210997" in="SourceGraphic"></feGaussianBlur>
        </filter>
    </defs>
    <g id="页面-1" stroke="none" stroke-width="1" fill="none" fill-rule="evenodd">
        <g id="GeeClaw">
            <g id="编组" fill-rule="nonzero">
                <rect id="矩形" fill="#FFFFFF" x="0" y="0" width="824" height="824" rx="184"></rect>
                <rect id="矩形" fill-opacity="0.41" fill="url(#linearGradient-1)" x="0" y="0" width="824" height="824" rx="184"></rect>
            </g>
            <g id="编组-2备份-2" transform="translate(162, 138)">
                <g id="路径-22" transform="translate(173.9452, 0)">
                    <g id="左钳" fill-rule="nonzero">
                        <use fill="url(#linearGradient-2)" xlink:href="#path-4"></use>
                        <use fill="url(#linearGradient-3)" xlink:href="#path-4"></use>
                    </g>
                    <mask id="mask-6" fill="white">
                        <use xlink:href="#path-5"></use>
                    </mask>
                    <g id="左钳" fill-rule="nonzero"></g>
                    <path d="M304.412238,54.2221662 C287.01206,48.7984697 274.075058,47.4421631 265.601232,50.1532465 C252.890492,54.2198716 257.609792,71.6729413 251.19203,71.6729413 C244.774267,71.6729413 223.527886,65.4579923 217.768712,71.6729413 C212.009537,77.8878902 208.129307,92.4773961 198.220046,92.4773961 C188.310784,92.4773961 161.948218,103.903481 158.870188,112.856526 C156.818168,118.825223 154.009587,134.191732 150.444445,158.956053 L215.31634,104.046322 L273.814512,80.4467826 L304.412238,54.2221662 Z" fill="#E33A2B" filter="url(#filter-7)" mask="url(#mask-6)"></path>
                    <path d="M277.596663,48.7979597 C269.897993,48.6396789 264.875561,49.1788128 262.529368,50.4153614 C259.000926,52.2750076 256.720434,57.0796115 254.63514,59.9492152" id="路径-25" stroke="url(#linearGradient-8)" stroke-width="3.98210997" stroke-linecap="round" mask="url(#mask-6)"></path>
                    <path d="M229.549635,67.3155394 C224.460112,65.8044912 219.795051,66.9201249 215.554452,70.6624406 C211.313854,74.4047562 208.190051,79.8830625 206.183043,87.0973595" id="路径-26" stroke="url(#linearGradient-9)" stroke-width="3.98210997" stroke-linecap="round" mask="url(#mask-6)"></path>
                </g>
                <g id="路径-21" transform="translate(244.3304, 103.7295)">
                    <g id="右钳" fill-rule="nonzero">
                        <use fill="url(#linearGradient-10)" xlink:href="#path-12"></use>
                        <use fill="url(#linearGradient-11)" xlink:href="#path-12"></use>
                    </g>
                    <mask id="mask-14" fill="white">
                        <use xlink:href="#path-13"></use>
                    </mask>
                    <g id="蒙版" fill-rule="nonzero">
                        <use fill="url(#linearGradient-10)" xlink:href="#path-13"></use>
                        <use fill="url(#linearGradient-11)" xlink:href="#path-13"></use>
                    </g>
                    <path d="M243.382716,4.4408921e-16 C238.32511,6.65417059 235.796307,12.6808627 235.796307,18.0800762 C235.796307,26.1788966 237.69794,41.1284521 228.065683,45.1950671 C218.433425,49.2616822 214.828036,55.7303088 214.828036,65.0166682 C214.828036,74.3030276 209.205307,74.5735932 201.647405,79.4934438 C194.089504,84.4132944 187.517635,95.9848398 183.855231,101.073609 C180.192826,106.162378 154.244088,111.781059 136.552529,111.781059 C124.758156,111.781059 142.563187,86.9160851 189.967622,37.1861367 L230.50363,-1.32794304 L243.382716,4.4408921e-16 Z" fill="#E33A2B" filter="url(#filter-15)" mask="url(#mask-14)"></path>
                    <path d="M236.510065,20.2061751 C237.831819,31.2684891 234.12913,38.6534707 225.402,42.3611201" id="路径-23" stroke="url(#linearGradient-16)" stroke-width="3.98210997" stroke-linecap="round" mask="url(#mask-14)"></path>
                    <path d="M214.99236,59.2049147 C213.899134,67.2137051 209.153301,72.3962707 200.75486,74.7526115" id="路径-24" stroke="url(#linearGradient-17)" stroke-width="3.98210997" stroke-linecap="round" mask="url(#mask-14)"></path>
                </g>
                <g id="编组-5" transform="translate(0, 335.2753)">
                    <path d="M33.6030839,1.05928116 C17.9296538,13.8818859 -11.978024,72.2494232 5.12023122,133.39986 C22.2184865,194.550297 36.6591991,213.724652 48.0346677,213.724652 C59.4101363,213.724652 59.3804437,162.968342 96.9463352,151.637404 C134.512227,140.306465 157.934707,112.253165 157.934707,104.077572 C157.934707,95.901979 49.276514,-11.7633236 33.6030839,1.05928116 Z" id="3节" fill="url(#linearGradient-18)"></path>
                    <path d="M26.3156517,56.6193928 C39.1613566,60.5144392 32.24953,79.9338516 49.1051258,95.1346422 C65.9607217,110.335433 73.5642172,113.639509 78.9673536,119.461845 C84.3704901,125.284181 75.9896077,133.245667 57.9034823,129.037486 C39.8173569,124.829306 30.8292102,116.69471 21.0859243,98.5513533 C11.3426384,80.4079967 13.4699468,52.7243465 26.3156517,56.6193928 Z" id="路径-18" fill="#ED8C7D" filter="url(#filter-19)"></path>
                </g>
                <g id="编组-4" transform="translate(32.522, 233.5509)">
                    <path d="M12.7265702,96.3098441 C1.76936158,105.526431 -2.11246741,119.227197 1.08108323,137.412142 C5.87140919,164.689561 46.0248475,193.54436 66.4424933,203.986169 C86.8601391,214.427978 114.392604,214.427978 128.6878,208.586791 C138.217931,204.692666 99.5641875,167.267017 12.7265702,96.3098441 Z" id="阴影备份" fill="#9A0E02" filter="url(#filter-20)"></path>
                    <path d="M70.0795998,0.70262816 C49.8212895,12.9355697 18.5840156,59.2649437 3.95412817,88.683871 C-1.60823872,102.205508 -1.60823872,128.286453 27.364278,161.409328 C56.3367948,194.532203 103.473145,210.608102 120.755973,214.574941 C138.038801,218.54178 172.662254,148.41 194.245765,144.187847 C215.829276,139.965695 90.33791,-11.5303134 70.0795998,0.70262816 Z" id="2节" fill="url(#linearGradient-21)"></path>
                    <path d="M46.445353,57.0266724 C60.0260345,61.7113095 52.2595984,88.1729454 70.0795998,106.455189 C87.8996011,124.737433 112.315102,139.32678 118.027383,146.329401 C123.739664,153.332022 110.261993,154.201654 91.141056,149.140405 C72.0201194,144.079156 52.5434837,128.276506 42.2427284,106.455189 C31.9419732,84.6338722 32.8646714,52.3420353 46.445353,57.0266724 Z" id="路径-18" fill="#ED8C7D" filter="url(#filter-22)"></path>
                </g>
                <g id="编组-3" transform="translate(95.8073, 121.8096)">
                    <path d="M13.0123436,116.01159 C1.55508992,127.03752 -2.33615572,143.013033 1.33860672,163.938129 C6.85075037,195.325774 27.5448512,228.601769 52.4194683,243.412357 C77.2940854,258.222945 100.622571,264.597669 136.261921,249.153454 C160.021488,238.857311 118.938295,194.476689 13.0123436,116.01159 Z" id="阴影" fill="#9A0E02" filter="url(#filter-23)"></path>
                    <g id="1节">
                        <use fill="url(#linearGradient-24)" xlink:href="#path-26"></use>
                        <use fill="url(#linearGradient-25)" xlink:href="#path-26"></use>
                    </g>
                    <path d="M56.2532248,51.7665855 C55.091145,41.1248384 60.9472731,38.4644017 73.8216094,43.7852752 C93.1331137,51.7665855 109.997671,66.9064604 133.428947,68.3253963 C156.860224,69.7443322 184.905073,89.1577719 159.16701,95.7033893 C133.428947,102.249007 56.2532248,79.5897474 56.2532248,73.9575718 C56.2532248,70.2027882 56.2532248,62.8057927 56.2532248,51.7665855 Z" id="路径-19" fill="#ED8C7D" filter="url(#filter-27)"></path>
                    <path d="M78.1379057,46.9365919 C92.3655326,68.2860221 117.545763,77.8286579 153.678597,75.5644993" id="路径-20" stroke="url(#linearGradient-28)" stroke-width="11.9463299" stroke-linecap="round" filter="url(#filter-29)"></path>
                </g>
            </g>
        </g>
    </g>
</svg>