<svg xmlns="http://www.w3.org/2000/svg" xmlns:xlink="http://www.w3.org/1999/xlink" fill="none" version="1.1" width="50" height="49.99999237060547" viewBox="0 0 50 49.99999237060547"><defs><clipPath id="master_svg0_6_13717"><rect x="0" y="0" width="50" height="49.99999237060547" rx="0"/></clipPath><mask id="master_svg1_6_13721" style="mask-type:luminance" maskUnits="userSpaceOnUse" x="3.83349609375" y="36.55668258666992" width="8.569560050964355" height="4.524480819702148"><path d="M4.28218218375,37.60079358666992C3.47009578375,38.644904586669924,3.81812095475,39.456990686669926,4.86224399375,40.15306518666992C5.90636679375,40.849138786669926,8.342626093749999,41.08116338666992,9.96679879375,41.08116338666992Q11.59097099375,41.08116338666992,12.40305709375,39.10895368666992L9.03868819375,36.55668258666992Q5.09426859375,36.55668258666992,4.28218218375,37.60079358666992Z" fill="#FFFFFF" fill-opacity="1"/></mask></defs><g clip-path="url(#master_svg0_6_13717)"><g mask="url(#master_svg1_6_13721)"><path d="M4.28218218375,37.60079358666992C3.47009578375,38.644904586669924,3.81812095475,39.456990686669926,4.86224399375,40.15306518666992C5.90636679375,40.849138786669926,8.342626093749999,41.08116338666992,9.96679879375,41.08116338666992Q11.59097099375,41.08116338666992,12.40305709375,39.10895368666992L9.03868819375,36.55668258666992Q5.09426859375,36.55668258666992,4.28218218375,37.60079358666992Z" fill="#000000" fill-opacity="1"/></g><g><path d="M9.990766985308838,34.43074802098977Q9.722908675308839,35.288388247285766,9.823148255308837,36.34090397728577C9.873238925308838,36.866855377285766,10.028534485308837,37.344100677285766,10.250614385308838,37.772659077285766C10.164480485308838,37.258864177285766,10.116896185308837,36.67959137728577,10.116896185308837,36.039363177285765Q10.116896185308837,35.294010217285766,10.261078085308839,34.681652367285764Q12.843892085308838,39.495843177285764,12.293039285308838,39.88603087728577Q12.244455385308838,39.920444677285765,12.171494685308838,39.920444677285765C11.243396085308838,39.920444677285765,9.387198865308838,38.06424737728577,9.039164737308838,36.78811167728577Q8.702944755308838,35.555294777285766,9.990766985308838,34.43074802098977Z" fill-rule="evenodd" fill="#000000" fill-opacity="1"/></g><g><path d="M13.679022288271666,40.96488278390657C12.886766188271665,40.66778598390657,10.826449648271666,39.27170888390657,10.095972059876665,37.353958983906566C10.149856049271666,37.49247398390657,10.210911098271666,37.62653528390657,10.278074458271666,37.75614398390657C10.191940527271665,37.24234908390657,10.144356202271666,36.66307628390657,10.144356202271666,36.022847983906566Q10.144356202271666,34.146130383906566,11.058438428271666,33.112569808956565C10.917741068271665,34.44848578390657,11.116827188271666,35.74012078390657,11.453967688271666,36.78574928390657C11.293234588271666,35.95892178390657,11.371182888271665,34.94794958390657,11.577474088271666,33.37079848390657L12.634910988271665,37.600524283906566L14.732849088271665,40.24575128390657C14.624138288271666,40.541673583906565,14.557337188271665,40.84135428390657,14.528846188271665,41.13879288390657Q14.131511188271666,41.13456528390657,13.679022288271666,40.96488278390657ZM15.222821688271665,41.00241318390657Q15.263387188271665,40.98478638390657,15.303194488271664,40.96488278390657L15.254393488271665,40.903351183906565C15.243358088271666,40.936336383906564,15.232836188271666,40.96935978390657,15.222821688271665,41.00241318390657Z" fill-rule="evenodd" fill="#000000" fill-opacity="1"/></g><g><path d="M13.981143701165772,36.7160282060009C13.340230001165772,35.5474386060009,13.06544260116577,34.2467136060009,13.06544260116577,32.3571586060009Q13.06544260116577,30.9609414060009,13.665570301165772,29.6718902568249Q11.974967661165772,30.7506883060009,11.68948650116577,32.8442855060009C11.434386372165772,34.7150807060009,11.321524262165772,35.8503236060009,11.498711198165772,36.7617912060009C11.782932341165772,37.6432929060009,12.16526961116577,38.349955506000896,12.524856601165771,38.7609148060009C13.056995301165772,39.3690767060009,13.838201001165771,40.027054106000904,14.574701501165771,40.5716331060009C14.766090601165772,39.8182971060009,15.216140701165772,39.0736169060009,15.983026001165772,38.4345560060009C16.001448201165772,38.4192047060009,16.02017550116577,38.4039144060009,16.03920130116577,38.3886900060009Q13.91698290116577,36.2007856060009,13.91698290116577,34.932507006000904L13.916983101165771,30.8465081060009Q13.73365550116577,31.585465006000902,13.73365550116577,32.3571586060009C13.73365550116577,32.556848506000904,13.733116601165772,32.7517151060009,13.732590001165772,32.9420833060009C13.728499401165772,34.4210806060009,13.725160101165772,35.6285076060009,13.981143701165772,36.7160282060009ZM16.59729190116577,38.9446096060009C16.577851301165772,38.960152606000904,16.558722001165773,38.9757652060009,16.53991080116577,38.9914407060009C15.81885390116577,39.5923118060009,15.37789610116577,40.2865571060009,15.168681601165773,40.9935741060009C15.340892101165771,41.110850106000896,15.505247101165772,41.218235106000904,15.657168401165771,41.3131861060009Q15.86305480116577,41.441865106000904,16.06323240116577,41.4335241060009Q16.76541810116577,41.404266106000904,17.39735320116577,39.6890121060009Q16.97123000116577,39.3055019060009,16.59729190116577,38.9446096060009Z" fill-rule="evenodd" fill="#000000" fill-opacity="1"/></g><path d="M32.00905724212695,37.948303077037046Q31.962652080726954,38.06431607703705,31.97193339362695,38.175688177037046Q32.00905840512695,38.62117447703705,32.937155965126955,38.99241057703705C34.09727930512695,39.456456077037046,36.18550110512695,39.34044757703705,37.22961190512695,38.99242937703705C38.273723105126955,38.64441117703705,37.925681605126954,36.09210341703705,37.22961190512695,36.208133054237045C36.99553350512695,36.24715220903705,36.751614105126954,36.250088852037045,36.481310405126955,36.25334315703705C35.94782190512695,36.259766031037046,35.31155470512695,36.26742629703705,34.445316105126956,36.55617004703705Q33.140177405126956,36.99121266703705,32.00905724212695,37.948303077037046Z" fill="#000000" fill-opacity="1"/><path d="M36.997074604034424,37.833276033398434Q36.997083344599524,38.99339913339844,38.157197804034425,38.99339913339844Q42.56566620403442,37.36922643339844,42.56566620403442,36.673152433398435C42.56566620403442,35.97707853339844,41.985603804034426,34.81698638339844,40.59345650403442,34.58492279839844C39.201308704034425,34.35285923339844,38.38922260403442,34.93292090339844,37.92517328403442,35.397009133398434C37.461123944034426,35.86109733339844,36.997065863798525,36.673152433398435,36.997074604034424,37.833276033398434Z" fill="#000000" fill-opacity="1"/><path d="M36.88164278819214,40.73248843051453C36.64960996819214,42.00864003051453,36.88165239219214,43.63277843051453,37.11367705819214,44.212839830514525C37.34570181819214,44.79290173051453,38.157787928192135,45.372963630514526,38.27380032819214,44.67689013051452C38.38981272819214,43.980814730514524,38.96985862819214,42.936734930514525,39.317903728192135,42.472670830514524C39.665948828192136,42.00860713051453,40.24601812819214,41.312519330514526,40.362022628192136,41.89259503051453C40.47802712819214,42.472670830514524,40.24600242819214,44.444879330514524,39.317903728192135,45.488991530514525C38.38980462819214,46.533101730514524,40.12998982819214,47.345187730514525,42.33423182819214,46.069036730514526C44.538474128192135,44.79288653051452,44.88649512819214,42.240646630514526,44.88649512819214,40.84849813051453C44.88649512819214,39.45635013051453,43.95841212819214,36.09195900051453,41.638157828192135,35.74393859551453C39.35187432819214,35.40101355051453,38.75519772819214,36.29709619051452,38.29425152819214,36.98934033051452C38.28740262819214,36.99962613051453,38.28058372819214,37.009866730514524,38.27378962819214,37.02005753051453C37.80974022819214,37.71611663051453,37.11367559819214,39.456336930514524,36.88164278819214,40.73248843051453Z" fill="#000000" fill-opacity="1"/><g><path d="M13.767395615565198,32.38000942685738Q13.767395615565198,29.419446226857374,16.465672820265198,26.940717689212377Q17.0000616202652,29.190091426857375,17.0000616202652,31.000001726857377Q35.1985464202652,34.12620812685738,35.0664874202652,35.83952982685737Q35.0611234202652,35.90912702685738,35.0255114202652,35.976392526857374Q33.9814024202652,37.948601526857374,30.5010304202652,39.688787526857375Q30.1529944202652,40.500873526857376,26.092563420265197,41.42897252685738C22.115183520265198,42.33808752685738,18.249118020265197,41.354845526857375,16.129942020265197,39.35155452685738C16.248327820265196,39.229546526857376,16.376747220265198,39.110423526857375,16.515545220265196,38.99476052685738C17.907693520265198,37.83465652685737,21.0400172202652,37.02257052685738,23.476277920265197,38.994747526857374C23.7659984202652,39.229279526857376,24.044234420265198,39.473656526857376,24.309426420265197,39.72475652685738C23.885680420265196,39.277153526857376,23.4196573202652,38.84283252685738,22.9193932202652,38.43786352685738C20.483132520265197,36.46568562685738,17.3508087202652,37.27777152685738,15.958660520265198,38.437875526857376C15.821285320265197,38.552352526857376,15.694077220265198,38.67022052685738,15.576701620265197,38.790918526857375C14.912191620265197,38.089065526857375,14.398093160265198,37.437591526857375,14.014883820265197,36.738879026857376C13.758900292265198,35.65135842685738,13.762239692765197,34.44393182685738,13.766330182565198,32.96493412685737C13.766856670365197,32.77456592685738,13.767395615565198,32.57969932685738,13.767395615565198,32.38000942685738Z" fill-rule="evenodd" fill="#000000" fill-opacity="1"/></g><g><path d="M14.375513364630851,37.94845125736389C14.086627974630852,38.62251735736389,14.277329370630852,39.45644115736389,14.814896984630852,39.91946725736389C15.060322744630852,39.38674925736389,15.447950204630851,38.87259105736389,15.999410704630852,38.41304825736389C17.027333504630853,37.556460157363894,19.003987104630852,36.889609357363895,20.948652104630852,37.393217357363895Q20.96866300463085,37.38066695736389,20.988215704630854,37.36838975736389Q20.060116604630853,35.74421715736389,17.739871304630853,35.74421715736389C15.419624104630852,35.74421715736389,14.723550274630853,37.13636515736389,14.375513364630851,37.94845125736389ZM24.350176204630852,39.69992855736389C24.084985104630853,39.448828957363894,23.806748704630852,39.204452057363895,23.517028104630853,38.969920157363894C21.08076740463085,36.99774305736389,17.94844370463085,37.80982875736389,16.556295404630852,38.96993305736389C15.164147424630851,40.13003705736389,14.816103264630852,41.63820385736389,15.164147424630851,42.91435265736389C15.372599904630851,43.678671157363894,16.03881010463085,44.692664357363896,16.83876900463085,45.55755925736389C17.213854604630853,45.90321615736389,17.60095740463085,46.20167015736389,17.971613204630852,46.417886157363895C19.36376030463085,47.22997215736389,22.728120104630854,47.69402115736389,24.004255604630853,47.46199715736389C25.280391204630853,47.22997215736389,25.16437920463085,46.533897157363896,24.700330204630852,46.06984915736389C24.23628170463085,45.60579895736389,23.656218804630853,44.90972545736389,22.96014530463085,44.09763935736389C22.26407080463085,43.285553257363894,22.496096904630853,42.58947925736389,22.728120104630854,42.47346715736389C22.960143404630852,42.357454557363894,24.352293204630854,43.285553257363894,25.16437920463085,44.09763935736389C25.288637204630852,44.22189735736389,25.41289520463085,44.35430355736389,25.534659204630852,44.48405285736389C26.208685204630854,45.202278357363895,26.80630320463085,45.83908415736389,26.904565204630853,44.56168865736389C26.99675520463085,43.363216157363894,25.990048204630853,41.432125357363894,24.350176204630852,39.69992855736389Z" fill-rule="evenodd" fill="#000000" fill-opacity="1"/></g><path d="M31.42767807421875,2.100746275625C31.42767807421875,2.346445615625,31.272612574218748,2.565391415625,31.04083917421875,2.6469408156250003L31.04083917421875,2.6469408156250003Q25.02922727421875,4.763244915625,23.38521127421875,9.037691615625Q21.74709099421875,13.296811515625,24.26820997421875,17.462048515625L24.26820997421875,17.462048515625C24.322051974218752,17.553018515625,24.35098767421875,17.656705515625,24.35098767421875,17.762411515625C24.35098767421875,18.082193515625,24.09175257421875,18.341426515625,23.77196977421875,18.341426515625C23.56938097421875,18.341426515625,23.38152537421875,18.235546515625,23.27662277421875,18.062231515625L23.27662277421875,18.062231515625Q20.46016967421875,13.411076515625,22.30241495421875,8.621232015625Q24.13876487421875,3.846716115625,30.65613367421875,1.553566966625L30.65613367421875,1.553566966625C30.718225474218748,1.532826789625,30.78320507421875,1.521728515625,30.84865947421875,1.521728515625C31.16844367421875,1.521728515625,31.42767807421875,1.780963595625,31.42767807421875,2.100746275625Z" fill-rule="evenodd" fill="#000000" fill-opacity="1"/><path d="M43.95703642022705,5.348910690984497C43.95703642022705,5.618166030984497,43.77143142022705,5.851888330984497,43.509174420227055,5.912878530984497L43.509174420227055,5.912878530984497Q38.62190052022705,7.050525630984497,33.95201112022705,10.125818530984496Q29.50273126022705,13.055831230984497,30.03077892022705,16.752096930984496L30.03077892022705,16.752096930984496C30.03362032022705,16.7793679309845,30.03556502022705,16.806731930984498,30.03556502022705,16.834131930984498C30.03556502022705,17.153913930984498,29.776329870227052,17.413147930984497,29.45654726022705,17.413147930984497C29.168399660227053,17.413147930984497,28.924100590227052,17.201269930984495,28.88334922522705,16.9160189309845L28.88334922522705,16.9160189309845Q28.25021964022705,12.491570730984497,33.31395482022705,9.156916330984497Q38.15707872022705,5.967542130984497,43.24662742022705,4.783925988984497L43.24662742022705,4.783925988984497C43.28986542022705,4.774942338484497,43.33386942022705,4.769892930984497,43.37801842022705,4.769892930984497C43.69780142022705,4.769892930984497,43.95703642022705,5.029128010984497,43.95703642022705,5.348910690984497Z" fill-rule="evenodd" fill="#000000" fill-opacity="1"/><g><path d="M15.602007781625,29.01062155125C15.610554836125,29.25032878125,15.626918342125,29.48063445125,15.651265845125,29.69976233125C16.115315083125,33.87621303125,20.987833003125,37.24056433125,26.556424703125,37.588600131250004C32.125015703125,37.93663593125,36.533483703125,34.80430603125,39.201766703125,32.83209423125C40.670457703124995,31.746540531249998,41.225299703125,29.99317423125,41.311260703125,28.519967098848C41.407247703125,30.10689363125,40.957450703125005,32.35887763125,39.201766703125,33.65655713125C36.533483703125,35.62876893125,32.125015703125,38.76109853125,26.556424703125,38.41306303125C20.987833003125,38.06502723125,16.115315083125,34.700675931250004,15.651265845125,30.52422523125C15.600083751625,30.06358563125,15.584183212125,29.55355123125,15.602007781625,29.01062155125Z" fill-rule="evenodd" fill="#FFFFFF" fill-opacity="1"/></g><path d="M35.3035936203125,30.5234911475C35.3035936203125,30.5739447475,35.2898817203125,30.6234497775,35.2639231203125,30.6667133875Q34.5103378203125,31.9227970875,33.1262696203125,32.3002702875L33.1209702203125,32.3017155875L33.1156175203125,32.3029508875Q31.502357020312502,32.6752419875,29.5521490303125,31.5782497875C29.4645227713125,31.5288961875,29.4102783203125,31.4361465875,29.4102783203125,31.3355773875C29.4102783203125,31.1818357075,29.5349105703125,31.0572034675,29.6886522803125,31.0572034675C29.7364593103125,31.0572034675,29.7834607703125,31.0695155875,29.8251282003125,31.0929535075Q31.5839901203125,32.0822494875,32.9850628203125,31.7615791875Q34.1494055203125,31.4420109875,34.7864680203125,30.3802402775C34.8368249203125,30.2964212965,34.9274373203125,30.2451171875,35.0252199203125,30.2451171875C35.1789613203125,30.2451171875,35.3035936203125,30.3697494375,35.3035936203125,30.5234911475Z" fill-rule="evenodd" fill="#FFFFFF" fill-opacity="1"/><g><path d="M21.799920103125,18.110890159375C17.623446703125,18.110880259375,15.187216553125,26.347774459375,15.651265845125,30.524224859375C16.115315083125,34.700675859374996,20.987833003125,38.065026859374996,26.556424703125,38.413062859375C32.125015703125,38.761098859375,36.533483703125,35.628768859375,39.201766703125,33.656556859375C41.870050703125,31.684347859375002,41.522012703125,27.507903859375,40.825938703125004,26.811830859375C40.129865703125,26.115756059375002,39.549802703124996,22.983423259375,39.201766703125,21.939311959375C38.853729703125,20.895201159375,36.301486703125,14.630529959375,32.357038703125,17.414816159375Q26.208373703124998,15.094554559375,21.799920103125,18.110890159375ZM35.953683703125,27.391446859375C34.445495703125005,26.347426459375,33.981445703125004,24.375195059375,33.981445703125004,23.215090759375002C33.981445703125004,22.054986459375,34.561567703125,19.502555559375,36.997794703124995,20.198689459375C39.434024703125004,20.894823059375,39.782062703125,23.911168059375,39.782062703125,25.767364459375003C39.782062703125,27.623561859375002,37.461873703125,28.435465859375,35.953683703125,27.391446859375ZM17.971463403125,25.535835259375C17.275389403125,28.784180859375,18.899561903125,31.104426859375,22.727968703125,30.640377859375C26.556375703125,30.176328859374998,27.136437703125,27.856081859375,27.136437703125,26.695958859375C27.136437703125,25.535835259375,26.440362703125,21.939453159375,22.727968703125,21.939453159375Q19.015574503125,21.939453159375,17.971463403125,25.535835259375Z" fill-rule="evenodd" fill="#000000" fill-opacity="1"/></g><g><path d="M19.94961057375,27.508400915625C19.46739316375,25.304176115625,20.55237984375,23.796002815625002,21.99902679375,22.983930645625C23.44567369375,22.171858515625,25.13342949375,22.519892533525,25.85675289375,23.331967655625C26.58007379375,24.144042615625,26.94173099375,24.608081315625,27.18283839375,26.116241415624998C27.42394729375,27.624402015625,26.82117799375,29.480599415625,25.01287599375,30.060663715625C23.204573893750002,30.640728015625,20.43182796375,29.712626915625002,19.94961057375,27.508400915625ZM24.81643529375,24.375455215625Q24.88499209375,24.375455115625,24.95223189375,24.364309315625Q25.01947169375,24.353163715625,25.08281039375,24.331300515625Q25.14614869375,24.309437315625,25.20315269375,24.277697115625Q25.26015569375,24.245956615625,25.30863379375,24.205559015625Q25.35711099375,24.165161115625,25.39519929375,24.117658415625Q25.433287593750002,24.070155615625,25.45952369375,24.017373415625Q25.48575969375,23.964591215625,25.49913449375,23.908558015625Q25.51250939375,23.852524715625,25.51250939375,23.795393715625Q25.51250939375,23.738262615625,25.49913449375,23.682229315625Q25.48575969375,23.626195915625,25.45952369375,23.573413715625Q25.433287593750002,23.520631435625,25.39519929375,23.473128675625Q25.35711099375,23.425625915624998,25.30863379375,23.385228095625Q25.26015569375,23.344830275625,25.20315269375,23.313090025625Q25.14614869375,23.281349655625,25.08281039375,23.259486555625Q25.01947169375,23.237623455625,24.95223189375,23.226477745625Q24.88499209375,23.215332035625,24.81643529375,23.215332035625Q24.74787759375,23.215332035625,24.68063739375,23.226477745625Q24.61339759375,23.237623455625,24.55005879375,23.259486495625Q24.48672009375,23.281349655625,24.42971709375,23.313089965625Q24.37271359375,23.344830275625,24.32423639375,23.385228095625Q24.27575869375,23.425625915624998,24.23767039375,23.473128615625Q24.19958209375,23.520631435625,24.17334649375,23.573413615625Q24.14711089375,23.626195915625,24.13373569375,23.682229315625Q24.12036129375,23.738262615625,24.12036129375,23.795393715625Q24.12036129375,23.852524715625,24.13373569375,23.908558115625Q24.14711049375,23.964591415625,24.17334599375,24.017373515625Q24.19958209375,24.070155715625,24.23766999375,24.117658415625Q24.27575869375,24.165161115625,24.32423639375,24.205559015625Q24.37271359375,24.245956615625,24.42971709375,24.277697115625Q24.48672009375,24.309437315625,24.55005879375,24.331300515625Q24.61339759375,24.353163715625,24.68063739375,24.364309415625Q24.74787759375,24.375455115625,24.81643529375,24.375455215625Z" fill-rule="evenodd" fill="#000000" fill-opacity="1"/></g><g><path d="M34.97408473952637,26.502240175C34.54271971952637,26.031211374999998,33.77953414952637,25.197851175,33.981302153526364,22.171444875Q34.44533735952637,20.779296875,35.489462539526365,20.779296875C36.53358773952637,20.779296875,38.15774633952637,21.707395555,38.737808239526366,23.331567975C39.317869139526366,24.955740975,38.62179563952637,26.579913175,37.69369673952637,27.275987175C36.76559803952637,27.972062075,35.489462539526365,27.159975075,35.141425339526364,26.695925674999998C35.096029039526364,26.635397475,35.038789839526366,26.572895074999998,34.97408473952637,26.502240175ZM36.63402293952637,22.577633975Q36.67675543952637,22.621788275,36.72507453952637,22.658893075Q36.77339313952637,22.695997875,36.825441339526364,22.724627375Q36.877489539526366,22.753256874999998,36.931266739526365,22.772310975Q36.98504423952637,22.791365175,37.03848413952637,22.800111275Q37.091923739526365,22.808857475,37.14297243952637,22.806959675Q37.194021239526364,22.805062275,37.240716939526365,22.792593675Q37.287412639526366,22.780125175,37.32796093952637,22.757564975Q37.36850933952637,22.735004675,37.401351939526364,22.703219575Q37.434194539526366,22.671434175,37.458069039526364,22.631645475Q37.481943639526364,22.591856975,37.49593303952636,22.545594075Q37.509922539526364,22.499331375,37.513489239526365,22.448372175Q37.517055939526365,22.397412975,37.51006273952637,22.343715675Q37.50306943952637,22.290018275,37.485784739526366,22.235646475Q37.46850013952637,22.181274675,37.441588639526366,22.128317674999998Q37.41467713952637,22.075360775,37.37917283952637,22.025853875Q37.34366843952637,21.976347075,37.30093593952637,21.932192775Q37.258203039526364,21.888038475000002,37.209883939526364,21.850933575Q37.16156533952637,21.813828675,37.10951713952637,21.785199075Q37.057468939526366,21.756569445,37.003691439526364,21.737515385000002Q36.94991393952637,21.718461395,36.896474339526364,21.709715125Q36.843034539526364,21.700968865,36.79198573952637,21.702866435Q36.74093723952637,21.704764005,36.69424153952637,21.717232645Q36.647545839526366,21.729701225,36.606997939526366,21.752261635Q36.56644963952637,21.774821995,36.533607039526366,21.806607275Q36.50076433952637,21.838392375,36.476889339526366,21.878180874999998Q36.45301433952637,21.917969475,36.43902493952637,21.964232175Q36.42503543952637,22.010494975,36.42146873952637,22.061454275Q36.417902439526365,22.112413575,36.42489573952637,22.166110875Q36.43188903952637,22.219808175,36.44917343952637,22.274179975Q36.466458039526366,22.328551875,36.49336953952637,22.381508875Q36.52028133952637,22.434465775,36.55578563952637,22.483972675Q36.59129003952637,22.533479675,36.63402293952637,22.577633975Z" fill-rule="evenodd" fill="#000000" fill-opacity="1"/></g></g></svg>