<svg xmlns="http://www.w3.org/2000/svg" xmlns:xlink="http://www.w3.org/1999/xlink" fill="none" version="1.1" width="50" height="49.99999237060547" viewBox="0 0 50 49.99999237060547"><defs><clipPath id="master_svg0_6_13717"><rect x="-0.5208332538604736" y="-0.5208332538604736" width="51.04166650772095" height="51.041658878326416" rx="0"/></clipPath><mask id="master_svg1_6_13721" style="mask-type:luminance" maskUnits="userSpaceOnUse" x="5.83349609375" y="36.979248046875" width="7.694547176361084" height="4.062499523162842"><path d="M6.23636818375,37.916747986875C5.50720152375,38.854247946875,5.81969086475,39.583414346875,6.75720155375,40.208414546875C7.69471219375,40.833414346875,9.88221219375,41.041747546875,11.34054519375,41.041747546875Q12.79887819375,41.041747546875,13.528044693750001,39.270914346875L10.50720119375,36.979248046875Q6.96553479375,36.979248046875,6.23636818375,37.916747986875Z" fill="#FFFFFF" fill-opacity="1"/></mask><mask id="master_svg2_6_13723" style="mask-type:luminance" maskUnits="userSpaceOnUse" x="10.44512939453125" y="34.99951171875" width="3.071074962615967" height="4.999999523162842"><path d="M11.44512933453125,34.99951171875Q10.19513204453125,36.04117821875,10.50762943153125,37.18701151875C10.82012683453125,38.33284471875,12.48679329453125,39.99951121875,13.32012649453125,39.99951121875Q13.38563729453125,39.99951121875,13.429260494531249,39.96861121875Q13.94055059453125,39.60644721875,11.44512933453125,34.99951171875Z" fill="#FFFFFF" fill-opacity="1"/></mask><filter id="master_svg3_6_13725" filterUnits="objectBoundingBox" color-interpolation-filters="sRGB" x="0" y="0" width="1" height="1"><feFlood flood-opacity="0" result="BackgroundImageFix"/><feBlend mode="normal" in="SourceGraphic" in2="BackgroundImageFix" result="shape"/><feColorMatrix in="SourceAlpha" type="matrix" result="hardAlpha" values="0 0 0 0 0 0 0 0 0 0 0 0 0 0 0 0 0 0 127 0"/><feOffset dy="0.6249999403953552" dx="0.4166666269302368"/><feGaussianBlur stdDeviation="0"/><feComposite in2="hardAlpha" operator="arithmetic" k2="-1" k3="1"/><feColorMatrix type="matrix" values="0 0 0 0 1 0 0 0 0 1 0 0 0 0 1 0 0 0 1 0"/><feBlend mode="normal" in2="shape" result="effect1_innerShadow"/></filter><filter id="master_svg4_6_13725" filterUnits="objectBoundingBox" color-interpolation-filters="sRGB" x="0" y="0" width="1" height="1"><feFlood flood-opacity="0" result="BackgroundImageFix"/><feBlend mode="normal" in="SourceGraphic" in2="BackgroundImageFix" result="shape"/><feColorMatrix in="SourceAlpha" type="matrix" result="hardAlpha" values="0 0 0 0 0 0 0 0 0 0 0 0 0 0 0 0 0 0 127 0"/><feOffset dy="0.6249999403953552" dx="0.4166666269302368"/><feGaussianBlur stdDeviation="0"/><feComposite in2="hardAlpha" operator="arithmetic" k2="-1" k3="1"/><feColorMatrix type="matrix" values="0 0 0 0 1 0 0 0 0 1 0 0 0 0 1 0 0 0 1 0"/><feBlend mode="normal" in2="shape" result="effect1_innerShadow"/></filter><mask id="master_svg5_6_13725" style="mask-type:luminance" maskUnits="userSpaceOnUse" x="11.211669921875" y="33.333251953125" width="4.920348644256592" height="7.760415554046631"><path d="M12.590346421875001,33.333251953125Q11.027846421875,34.583251853125,11.236179748875,36.770751453125C11.444513081875,38.958251453125,13.840352321875,40.624917953125,14.673685521875,40.937417953125Q15.507019021875,41.249917553125,16.132018521875,40.937417953125L13.736185521875,37.916584453125L12.590346421875001,33.333251953125Z" fill="#FFFFFF" fill-opacity="1" filter="url(#master_svg4_6_13725)"/></mask><filter id="master_svg6_6_13727" filterUnits="objectBoundingBox" color-interpolation-filters="sRGB" x="0" y="0" width="1" height="1"><feFlood flood-opacity="0" result="BackgroundImageFix"/><feBlend mode="normal" in="SourceGraphic" in2="BackgroundImageFix" result="shape"/><feColorMatrix in="SourceAlpha" type="matrix" result="hardAlpha" values="0 0 0 0 0 0 0 0 0 0 0 0 0 0 0 0 0 0 127 0"/><feOffset dy="0.6249999403953552" dx="0.4166666269302368"/><feGaussianBlur stdDeviation="0"/><feComposite in2="hardAlpha" operator="arithmetic" k2="-1" k3="1"/><feColorMatrix type="matrix" values="0 0 0 0 1 0 0 0 0 1 0 0 0 0 1 0 0 0 1 0"/><feBlend mode="normal" in2="shape" result="effect1_innerShadow"/></filter><filter id="master_svg7_6_13727" filterUnits="objectBoundingBox" color-interpolation-filters="sRGB" x="0" y="0" width="1" height="1"><feFlood flood-opacity="0" result="BackgroundImageFix"/><feBlend mode="normal" in="SourceGraphic" in2="BackgroundImageFix" result="shape"/><feColorMatrix in="SourceAlpha" type="matrix" result="hardAlpha" values="0 0 0 0 0 0 0 0 0 0 0 0 0 0 0 0 0 0 127 0"/><feOffset dy="0.6249999403953552" dx="0.4166666269302368"/><feGaussianBlur stdDeviation="0"/><feComposite in2="hardAlpha" operator="arithmetic" k2="-1" k3="1"/><feColorMatrix type="matrix" values="0 0 0 0 1 0 0 0 0 1 0 0 0 0 1 0 0 0 1 0"/><feBlend mode="normal" in2="shape" result="effect1_innerShadow"/></filter><mask id="master_svg8_6_13727" style="mask-type:luminance" maskUnits="userSpaceOnUse" x="12.31988525390625" y="30.416748046875" width="5.692502498626709" height="10.941839218139648"><path d="M12.38738818490625,33.645914546875C12.07489839390625,35.937581046874996,12.90824520390625,38.125080546875,13.63740715390625,38.958414046875C14.36656905390625,39.791747046875,15.616554053906249,40.729247046875,16.44988775390625,41.250080046875Q16.63475225390625,41.365621046875,16.81448985390625,41.358131046875Q17.44497775390625,41.331861046875,18.01238775390625,39.791747046875Q14.887387553906251,36.979247546875,14.887387553906251,35.520914046875L14.88738775390625,30.416748046875Q12.69987794390625,31.354247986875,12.38738818490625,33.645914546875Z" fill="#FFFFFF" fill-opacity="1" filter="url(#master_svg7_6_13727)"/></mask><mask id="master_svg9_6_13730" style="mask-type:luminance" maskUnits="userSpaceOnUse" x="31.097412109375" y="36.662841796875" width="5.313904285430908" height="2.778245449066162"><path d="M31.132134292375,38.228771296875Q31.090467424175,38.332938596875,31.098801049675,38.432938796875Q31.132135335375,38.832937696875,31.965467569375,39.166268096875C33.007134109375,39.582931296875,34.882133709375,39.478768096875,35.819633509375,39.166284996875C36.757133509375,38.853801996875,36.444629709375,36.562102736875,35.819633509375,36.666284926475C35.609456109375,36.701319951875,35.390442809375,36.703956741875,35.147738909375,36.706878758875C34.668723309375,36.712645813875,34.097423509375,36.719523913875,33.319634009375,36.978784886875Q32.147759109375,37.369406576875,31.132134292375,38.228771296875Z" fill="#FFFFFF" fill-opacity="1"/></mask><mask id="master_svga_6_13732" style="mask-type:luminance" maskUnits="userSpaceOnUse" x="35.61090087890625" y="35.161376953125" width="4.999999046325684" height="4.005778789520264"><path d="M35.61090087890625,38.125489253125Q35.61090872699785,39.167155753125,36.65256737890625,39.167155753125Q40.61089987890625,37.708822453125,40.61089987890625,37.083822653125C40.61089987890625,36.458822753125,40.09006597890625,35.417184083125,38.84006687890625,35.208815839125C37.59006727890625,35.000447603125,36.86090077890625,35.521280883125,36.44423412890625,35.937982443125C36.02756750890625,36.354683953125,35.61089303111025,37.083822653125,35.61090087890625,38.125489253125Z" fill="#FFFFFF" fill-opacity="1"/></mask><mask id="master_svgb_6_13734" style="mask-type:luminance" maskUnits="userSpaceOnUse" x="35.42083740234375" y="36.181640625" width="7.273796558380127" height="9.925033569335938"><path d="M35.50713332034375,40.728671525C35.29879268234375,41.874519325,35.50714194034375,43.332821824999996,35.71547526234375,43.853654825C35.92380863234375,44.374487925,36.65297510234375,44.895321824999996,36.75714180234375,44.270321824999996C36.861308502343746,43.645321325,37.38212760234375,42.707849025,37.69463490234375,42.291169124999996C38.00714210234375,41.874489825,38.52798220234375,41.249477425,38.63214180234375,41.770323325C38.73630140234375,42.291169124999996,38.52796820234375,44.062001725,37.69463490234375,44.999502225C36.86130120234375,45.937001225,38.42380120234375,46.666168625,40.40297460234375,45.520320925C42.38214830234375,44.374474525,42.69463400234375,42.082836125,42.69463400234375,40.832836125C42.69463400234375,39.582836125,41.86131480234375,36.561973065,39.77797460234375,36.249487989C37.72513680234375,35.941578005,37.18938520234375,36.746164325,36.77550480234375,37.367725325C36.76935520234375,37.376961025,36.76323260234375,37.386155925,36.75713220234375,37.395306225C36.34046542234375,38.020292725,35.71547395234375,39.582824225,35.50713332034375,40.728671525Z" fill="#FFFFFF" fill-opacity="1"/></mask><filter id="master_svgc_6_13736" filterUnits="objectBoundingBox" color-interpolation-filters="sRGB" x="0" y="0" width="1" height="1"><feFlood flood-opacity="0" result="BackgroundImageFix"/><feBlend mode="normal" in="SourceGraphic" in2="BackgroundImageFix" result="shape"/><feColorMatrix in="SourceAlpha" type="matrix" result="hardAlpha" values="0 0 0 0 0 0 0 0 0 0 0 0 0 0 0 0 0 0 127 0"/><feOffset dy="0.6249999403953552" dx="0.4166666269302368"/><feGaussianBlur stdDeviation="0"/><feComposite in2="hardAlpha" operator="arithmetic" k2="-1" k3="1"/><feColorMatrix type="matrix" values="0 0 0 0 1 0 0 0 0 1 0 0 0 0 1 0 0 0 1 0"/><feBlend mode="normal" in2="shape" result="effect1_innerShadow"/></filter><filter id="master_svgd_6_13736" filterUnits="objectBoundingBox" color-interpolation-filters="sRGB" x="0" y="0" width="1" height="1"><feFlood flood-opacity="0" result="BackgroundImageFix"/><feBlend mode="normal" in="SourceGraphic" in2="BackgroundImageFix" result="shape"/><feColorMatrix in="SourceAlpha" type="matrix" result="hardAlpha" values="0 0 0 0 0 0 0 0 0 0 0 0 0 0 0 0 0 0 127 0"/><feOffset dy="0.6249999403953552" dx="0.4166666269302368"/><feGaussianBlur stdDeviation="0"/><feComposite in2="hardAlpha" operator="arithmetic" k2="-1" k3="1"/><feColorMatrix type="matrix" values="0 0 0 0 1 0 0 0 0 1 0 0 0 0 1 0 0 0 1 0"/><feBlend mode="normal" in2="shape" result="effect1_innerShadow"/></filter><mask id="master_svge_6_13736" style="mask-type:luminance" maskUnits="userSpaceOnUse" x="14.153076171875" y="27.91650390625" width="19.734634399414062" height="13.743488311767578"><path d="M14.153076171875,33.22900340625C14.153076171875,36.14566990625,14.882242741875,37.499836906249996,16.757242471875,39.37483590625C18.632241771875,41.24983590625,22.173908271875,42.18733590625,25.819741171875002,41.35400290625Q29.465573171875,40.52066990625,29.778073171875,39.79150290625Q32.903074171875005,38.22900290625,33.840572171874996,36.45816990625Q33.862272171875,36.41717910625,33.873983171875,36.37350940625Q34.368170171875,34.53060910625,17.069742471875,27.91650390625Q14.153076171875,30.31233720625,14.153076171875,33.22900340625Z" fill="#FFFFFF" fill-opacity="1" filter="url(#master_svgd_6_13736)"/></mask><mask id="master_svgf_6_13739" style="mask-type:luminance" maskUnits="userSpaceOnUse" x="15.17840576171875" y="36.249755859375" width="6.05816125869751" height="3.9895827770233154"><path d="M15.29906835171875,38.228922259375C14.98656837171875,38.958088859375,15.29908489171875,39.895588859375,16.02823490171875,40.208088659375Q16.75738506171875,40.520588859374996,21.236567061718752,37.708088959375Q20.40323356171875,36.249755859375,18.31990166171875,36.249755859375C16.23656806171875,36.249755859375,15.61156824171875,37.499755759375,15.29906835171875,38.228922259375Z" fill="#FFFFFF" fill-opacity="1"/></mask><filter id="master_svgg_6_13741" filterUnits="objectBoundingBox" color-interpolation-filters="sRGB" x="0" y="0" width="1" height="1"><feFlood flood-opacity="0" result="BackgroundImageFix"/><feBlend mode="normal" in="SourceGraphic" in2="BackgroundImageFix" result="shape"/><feColorMatrix in="SourceAlpha" type="matrix" result="hardAlpha" values="0 0 0 0 0 0 0 0 0 0 0 0 0 0 0 0 0 0 127 0"/><feOffset dy="0.6249999403953552" dx="0.4166666269302368"/><feGaussianBlur stdDeviation="0"/><feComposite in2="hardAlpha" operator="arithmetic" k2="-1" k3="1"/><feColorMatrix type="matrix" values="0 0 0 0 1 0 0 0 0 1 0 0 0 0 1 0 0 0 1 0"/><feBlend mode="normal" in2="shape" result="effect1_innerShadow"/></filter><filter id="master_svgh_6_13741" filterUnits="objectBoundingBox" color-interpolation-filters="sRGB" x="0" y="0" width="1" height="1"><feFlood flood-opacity="0" result="BackgroundImageFix"/><feBlend mode="normal" in="SourceGraphic" in2="BackgroundImageFix" result="shape"/><feColorMatrix in="SourceAlpha" type="matrix" result="hardAlpha" values="0 0 0 0 0 0 0 0 0 0 0 0 0 0 0 0 0 0 127 0"/><feOffset dy="0.6249999403953552" dx="0.4166666269302368"/><feGaussianBlur stdDeviation="0"/><feComposite in2="hardAlpha" operator="arithmetic" k2="-1" k3="1"/><feColorMatrix type="matrix" values="0 0 0 0 1 0 0 0 0 1 0 0 0 0 1 0 0 0 1 0"/><feBlend mode="normal" in2="shape" result="effect1_innerShadow"/></filter><mask id="master_svgi_6_13741" style="mask-type:luminance" maskUnits="userSpaceOnUse" x="15.39447021484375" y="37.57421875" width="11.159614562988281" height="9.250463485717773"><path d="M16.75718521484375,38.64606355C15.50718528484375,39.68771295,15.19467887484375,41.04188515,15.50718529484375,42.18773035C15.81969168484375,43.33357625,17.27801331484375,45.10438395,18.52801201484375,45.83355145C19.77801081484375,46.56271745,22.79884581484375,46.97938445,23.944679214843752,46.77105145C25.09051231484375,46.56271745,24.98634621484375,45.93771745,24.569679214843752,45.52105095C24.15301321484375,45.10438395,23.632179214843752,44.47938445,23.00717971484375,43.75021835C22.38217971484375,43.02105145,22.59051421484375,42.39605145,22.79884581484375,42.29188485C23.00717781484375,42.18771835,24.257179214843752,43.02105145,24.98634621484375,43.75021835C25.09791661484375,43.861788250000004,25.209486014843748,43.98067425,25.31881711484375,44.09717515C25.92402021484375,44.74206445,26.46061721484375,45.31384945,26.54884621484375,44.16688445C26.65301221484375,42.81271835,25.194679214843752,40.41685625,23.00717781484375,38.64605205C20.81967691484375,36.87524807,18.00718521484375,37.604414161,16.75718521484375,38.64606355Z" fill="#FFFFFF" fill-opacity="1" filter="url(#master_svgh_6_13741)"/></mask><filter id="master_svgj_6_13746" filterUnits="objectBoundingBox" color-interpolation-filters="sRGB" x="0" y="0" width="1" height="1"><feFlood flood-opacity="0" result="BackgroundImageFix"/><feBlend mode="normal" in="SourceGraphic" in2="BackgroundImageFix" result="shape"/><feColorMatrix in="SourceAlpha" type="matrix" result="hardAlpha" values="0 0 0 0 0 0 0 0 0 0 0 0 0 0 0 0 0 0 127 0"/><feOffset dy="-0.4166666269302368" dx="0"/><feGaussianBlur stdDeviation="0"/><feComposite in2="hardAlpha" operator="arithmetic" k2="-1" k3="1"/><feColorMatrix type="matrix" values="0 0 0 0 1 0 0 0 0 1 0 0 0 0 1 0 0 0 1 0"/><feBlend mode="normal" in2="shape" result="effect1_innerShadow"/></filter><filter id="master_svgk_6_13746" filterUnits="objectBoundingBox" color-interpolation-filters="sRGB" x="0" y="0" width="1" height="1"><feFlood flood-opacity="0" result="BackgroundImageFix"/><feBlend mode="normal" in="SourceGraphic" in2="BackgroundImageFix" result="shape"/><feColorMatrix in="SourceAlpha" type="matrix" result="hardAlpha" values="0 0 0 0 0 0 0 0 0 0 0 0 0 0 0 0 0 0 127 0"/><feOffset dy="-0.4166666269302368" dx="0"/><feGaussianBlur stdDeviation="0"/><feComposite in2="hardAlpha" operator="arithmetic" k2="-1" k3="1"/><feColorMatrix type="matrix" values="0 0 0 0 1 0 0 0 0 1 0 0 0 0 1 0 0 0 1 0"/><feBlend mode="normal" in2="shape" result="effect1_innerShadow"/></filter><mask id="master_svgl_6_13746" style="mask-type:luminance" maskUnits="userSpaceOnUse" x="16.39404296875" y="18.88623046875" width="23.101415634155273" height="19.78396987915039"><path d="M21.96542306875,20.41703406875C18.21539726875,20.41702516875,16.02792337875,27.81287476875,16.44458997975,31.562880468750002C16.86125650875,35.31288546875,21.23625616875,38.33371346875,26.236255668749997,38.646211468749996C31.23625296875,38.958711468749996,35.194585968750005,36.14621346875,37.59041996875,34.37537946875C39.98625196875,32.60454646875,39.67375196875,28.85454656875,39.04875196875,28.22954746875C38.42375196875,27.60454656875,37.90291796875,24.79204706875,37.59041996875,23.85454706875C37.27791796875,22.91704746875,34.98627896875,17.29204316875,31.444585968749998,19.792034148749998Q25.923743268750002,17.70868756875,21.96542306875,20.41703406875Z" fill="#FFFFFF" fill-opacity="1" filter="url(#master_svgk_6_13746)"/></mask><linearGradient x1="0.5" y1="0" x2="0.11355509234984085" y2="0.7844883614466716" id="master_svgm_6_9446"><stop offset="0%" stop-color="#FFFFFF" stop-opacity="1"/><stop offset="100%" stop-color="#EEEEEE" stop-opacity="1"/></linearGradient><mask id="master_svgn_6_13749" style="mask-type:luminance" maskUnits="userSpaceOnUse" x="18.38690185546875" y="23.8544921875" width="8.413872241973877" height="7.865589618682861"><path d="M18.52788032546875,27.083658687499998C17.90288042546875,30.0003246875,19.36121350546875,32.0836581875,22.79871275546875,31.6669911875C26.23621225546875,31.2503246875,26.757045755468752,29.1669916875,26.757045755468752,28.1253251875C26.757045755468752,27.083658687499998,26.132045755468752,23.8544921875,22.79871275546875,23.8544921875Q19.46538015546875,23.8544921875,18.52788032546875,27.083658687499998Z" fill="#FFFFFF" fill-opacity="1"/></mask><linearGradient x1="0.5" y1="0" x2="0.2968626050620038" y2="0.8382243558419455" id="master_svgo_6_9446"><stop offset="0%" stop-color="#FFFFFF" stop-opacity="1"/><stop offset="100%" stop-color="#EEEEEE" stop-opacity="1"/></linearGradient><mask id="master_svgp_6_13753" style="mask-type:luminance" maskUnits="userSpaceOnUse" x="32.873046875" y="22.185302734375" width="5.2383623123168945" height="6.978030204772949"><path d="M32.903076171875,24.999989534375C32.903076171875,26.041638834375,33.319742801875,27.812491434374998,34.673935871875,28.749909834375C36.028129071875,29.687326934375,38.111408671875,28.958324434375,38.111408671875,27.291658434375C38.111408671875,25.624991934375,37.798909171874996,22.916637364375,35.611436171875,22.291583764375C33.423963071875,21.666530194375,32.903076171875,23.958339734375,32.903076171875,24.999989534375Z" fill="#FFFFFF" fill-opacity="1"/></mask></defs><g clip-path="url(#master_svg0_6_13717)"><g mask="url(#master_svg1_6_13721)"><path d="M6.23636818375,37.916747986875C5.50720152375,38.854247946875,5.81969086475,39.583414346875,6.75720155375,40.208414546875C7.69471219375,40.833414346875,9.88221219375,41.041747546875,11.34054519375,41.041747546875Q12.79887819375,41.041747546875,13.528044693750001,39.270914346875L10.50720119375,36.979248046875Q6.96553479375,36.979248046875,6.23636818375,37.916747986875Z" fill="#000000" fill-opacity="1"/></g><g mask="url(#master_svg2_6_13723)"><path d="M11.44512933453125,34.99951171875Q10.19513204453125,36.04117821875,10.50762943153125,37.18701151875C10.82012683453125,38.33284471875,12.48679329453125,39.99951121875,13.32012649453125,39.99951121875Q13.38563729453125,39.99951121875,13.429260494531249,39.96861121875Q13.94055059453125,39.60644721875,11.44512933453125,34.99951171875Z" fill="#000000" fill-opacity="1"/></g><g mask="url(#master_svg5_6_13725)"><path d="M12.590346421875001,33.333251953125Q11.027846421875,34.583251853125,11.236179748875,36.770751453125C11.444513081875,38.958251453125,13.840352321875,40.624917953125,14.673685521875,40.937417953125Q15.507019021875,41.249917553125,16.132018521875,40.937417953125L13.736185521875,37.916584453125L12.590346421875001,33.333251953125Z" fill="#000000" fill-opacity="1" filter="url(#master_svg3_6_13725)"/></g><g mask="url(#master_svg8_6_13727)"><path d="M12.38738818490625,33.645914546875C12.07489839390625,35.937581046874996,12.90824520390625,38.125080546875,13.63740715390625,38.958414046875C14.36656905390625,39.791747046875,15.616554053906249,40.729247046875,16.44988775390625,41.250080046875Q16.63475225390625,41.365621046875,16.81448985390625,41.358131046875Q17.44497775390625,41.331861046875,18.01238775390625,39.791747046875Q14.887387553906251,36.979247546875,14.887387553906251,35.520914046875L14.88738775390625,30.416748046875Q12.69987794390625,31.354247986875,12.38738818490625,33.645914546875Z" fill="#000000" fill-opacity="1" filter="url(#master_svg6_6_13727)"/></g><g mask="url(#master_svg9_6_13730)"><path d="M31.132134292375,38.228771296875Q31.090467424175,38.332938596875,31.098801049675,38.432938796875Q31.132135335375,38.832937696875,31.965467569375,39.166268096875C33.007134109375,39.582931296875,34.882133709375,39.478768096875,35.819633509375,39.166284996875C36.757133509375,38.853801996875,36.444629709375,36.562102736875,35.819633509375,36.666284926475C35.609456109375,36.701319951875,35.390442809375,36.703956741875,35.147738909375,36.706878758875C34.668723309375,36.712645813875,34.097423509375,36.719523913875,33.319634009375,36.978784886875Q32.147759109375,37.369406576875,31.132134292375,38.228771296875Z" fill="#000000" fill-opacity="1"/></g><g mask="url(#master_svga_6_13732)"><path d="M35.61090087890625,38.125489253125Q35.61090872699785,39.167155753125,36.65256737890625,39.167155753125Q40.61089987890625,37.708822453125,40.61089987890625,37.083822653125C40.61089987890625,36.458822753125,40.09006597890625,35.417184083125,38.84006687890625,35.208815839125C37.59006727890625,35.000447603125,36.86090077890625,35.521280883125,36.44423412890625,35.937982443125C36.02756750890625,36.354683953125,35.61089303111025,37.083822653125,35.61090087890625,38.125489253125Z" fill="#000000" fill-opacity="1"/></g><g mask="url(#master_svgb_6_13734)"><path d="M35.50713332034375,40.728671525C35.29879268234375,41.874519325,35.50714194034375,43.332821824999996,35.71547526234375,43.853654825C35.92380863234375,44.374487925,36.65297510234375,44.895321824999996,36.75714180234375,44.270321824999996C36.861308502343746,43.645321325,37.38212760234375,42.707849025,37.69463490234375,42.291169124999996C38.00714210234375,41.874489825,38.52798220234375,41.249477425,38.63214180234375,41.770323325C38.73630140234375,42.291169124999996,38.52796820234375,44.062001725,37.69463490234375,44.999502225C36.86130120234375,45.937001225,38.42380120234375,46.666168625,40.40297460234375,45.520320925C42.38214830234375,44.374474525,42.69463400234375,42.082836125,42.69463400234375,40.832836125C42.69463400234375,39.582836125,41.86131480234375,36.561973065,39.77797460234375,36.249487989C37.72513680234375,35.941578005,37.18938520234375,36.746164325,36.77550480234375,37.367725325C36.76935520234375,37.376961025,36.76323260234375,37.386155925,36.75713220234375,37.395306225C36.34046542234375,38.020292725,35.71547395234375,39.582824225,35.50713332034375,40.728671525Z" fill="#000000" fill-opacity="1"/></g><g mask="url(#master_svge_6_13736)"><path d="M14.153076171875,33.22900340625C14.153076171875,36.14566990625,14.882242741875,37.499836906249996,16.757242471875,39.37483590625C18.632241771875,41.24983590625,22.173908271875,42.18733590625,25.819741171875002,41.35400290625Q29.465573171875,40.52066990625,29.778073171875,39.79150290625Q32.903074171875005,38.22900290625,33.840572171874996,36.45816990625Q33.862272171875,36.41717910625,33.873983171875,36.37350940625Q34.368170171875,34.53060910625,17.069742471875,27.91650390625Q14.153076171875,30.31233720625,14.153076171875,33.22900340625Z" fill="#000000" fill-opacity="1" filter="url(#master_svgc_6_13736)"/></g><g mask="url(#master_svgf_6_13739)"><path d="M15.29906835171875,38.228922259375C14.98656837171875,38.958088859375,15.29908489171875,39.895588859375,16.02823490171875,40.208088659375Q16.75738506171875,40.520588859374996,21.236567061718752,37.708088959375Q20.40323356171875,36.249755859375,18.31990166171875,36.249755859375C16.23656806171875,36.249755859375,15.61156824171875,37.499755759375,15.29906835171875,38.228922259375Z" fill="#000000" fill-opacity="1"/></g><g mask="url(#master_svgi_6_13741)"><path d="M16.75718521484375,38.64606355C15.50718528484375,39.68771295,15.19467887484375,41.04188515,15.50718529484375,42.18773035C15.81969168484375,43.33357625,17.27801331484375,45.10438395,18.52801201484375,45.83355145C19.77801081484375,46.56271745,22.79884581484375,46.97938445,23.944679214843752,46.77105145C25.09051231484375,46.56271745,24.98634621484375,45.93771745,24.569679214843752,45.52105095C24.15301321484375,45.10438395,23.632179214843752,44.47938445,23.00717971484375,43.75021835C22.38217971484375,43.02105145,22.59051421484375,42.39605145,22.79884581484375,42.29188485C23.00717781484375,42.18771835,24.257179214843752,43.02105145,24.98634621484375,43.75021835C25.09791661484375,43.861788250000004,25.209486014843748,43.98067425,25.31881711484375,44.09717515C25.92402021484375,44.74206445,26.46061721484375,45.31384945,26.54884621484375,44.16688445C26.65301221484375,42.81271835,25.194679214843752,40.41685625,23.00717781484375,38.64605205C20.81967691484375,36.87524807,18.00718521484375,37.604414161,16.75718521484375,38.64606355Z" fill="#000000" fill-opacity="1" filter="url(#master_svgg_6_13741)"/></g><path d="M30.26277733642578,6.53192809625Q30.33893493642578,6.50513177625,30.40337943642578,6.45650139625Q30.46782493642578,6.40787100625,30.514486336425783,6.34198689625Q30.56114773642578,6.27610282625,30.585632336425782,6.19917055625Q30.61011603642578,6.12223827825,30.61011603642578,6.04150390625Q30.610115036425782,5.99029862525,30.60012623642578,5.94007724625Q30.590135536425784,5.88985586625,30.57054043642578,5.84254833625Q30.550945236425783,5.79524084625,30.52249623642578,5.75266522625Q30.494048136425782,5.71008956625,30.457840936425782,5.67388194625Q30.42163273642578,5.63767436625,30.379056936425783,5.60922622625Q30.33648203642578,5.58077812625,30.28917503642578,5.56118270625Q30.24186753642578,5.54158729625,30.19164613642578,5.53159761625Q30.14142513642578,5.52160799625,30.090219936425783,5.52160793625Q30.00142523642578,5.52160793625,29.91766353642578,5.55107942625L29.917352636425782,5.55019545625Q24.065452736425783,7.60919780625,22.416607056425782,11.89620210625Q20.762467936425782,16.19696990625,23.290539836425783,20.37369490625L23.29134133642578,20.37320890625Q23.32607503642578,20.43059390625,23.374236736425782,20.47728390625Q23.42239843642578,20.52397390625,23.480833636425782,20.55690890625Q23.53926893642578,20.589845906249998,23.604150336425782,20.60687190625Q23.66903183642578,20.62389790625,23.73610993642578,20.62389790625Q23.787315136425782,20.62389690625,23.83753653642578,20.61390690625Q23.887757936425782,20.603915906250002,23.93506543642578,20.58432090625Q23.98237303642578,20.56472590625,24.02494863642578,20.53627790625Q24.067524236425783,20.507829906250002,24.10373183642578,20.471622906249998Q24.13993943642578,20.43541490625,24.16838763642578,20.39283990625Q24.19683563642578,20.35026390625,24.216431136425783,20.30295690625Q24.236026536425783,20.25564990625,24.24601613642578,20.20542690625Q24.25600603642578,20.15520690625,24.25600603642578,20.104001906249998Q24.25600603642578,19.95891590625,24.180878736425782,19.83479490625L24.181680436425783,19.83430990625Q21.91798552642578,16.09437190625,23.38884213642578,12.27013830625Q24.864992636425782,8.432142506249999,30.26308823642578,6.53281235625L30.26277733642578,6.53192809625Z" fill-rule="evenodd" fill="#000000" fill-opacity="1"/><path d="M41.45800700048828,9.4643905725Q41.54377800048828,9.4444437025,41.61819600048828,9.3973640825Q41.69261500048828,9.3502844525,41.747377000488285,9.2813240925Q41.802141000488284,9.2123637225,41.83114100048828,9.1292157125Q41.86013900048828,9.0460676995,41.86013900048828,8.9580078125Q41.86013800048828,8.9068025315,41.85014900048828,8.8565811525Q41.84015800048828,8.8063597725,41.82056200048828,8.7590522425Q41.800967000488285,8.7117447525,41.772520000488285,8.6691691325Q41.74407200048828,8.6265934725,41.70786500048828,8.5903858525Q41.67165700048828,8.5541782725,41.629081000488284,8.5257301325Q41.58650500048828,8.4972820325,41.539198000488284,8.4776866125Q41.49189000048828,8.4580912025,41.44166900048828,8.4481015225Q41.39144800048828,8.4381119025,41.34024300048828,8.4381118425Q41.280586000488285,8.4381118425,41.22248100048828,8.4516248725L41.222268000488285,8.4507120225Q36.652398100488284,9.5134726125,32.30379100048828,12.3771894125Q27.75709900048828,15.371351712500001,28.324653680488282,19.344165812500002L28.32558164048828,19.3440328125Q28.33216551048828,19.3901198125,28.34683239048828,19.4343028125Q28.361499250488283,19.4784848125,28.383782480488282,19.5193598125Q28.40606573048828,19.5602338125,28.43525636048828,19.596498812500002Q28.46444696048828,19.632762812499998,28.499616150488283,19.6632648125Q28.53478533048828,19.6937668125,28.57481413048828,19.7175338125Q28.61484289048828,19.741302812500003,28.65845765048828,19.7575818125Q28.70207241148828,19.7738608125,28.747885439488282,19.7821308125Q28.79369846348828,19.790402812499998,28.840252101488282,19.790402812499998Q28.89145738048828,19.7904018125,28.94167876048828,19.7804118125Q28.99190015048828,19.7704218125,29.039207640488282,19.7508268125Q29.086515160488283,19.7312318125,29.12909079048828,19.7027838125Q29.17166644048828,19.6743358125,29.20787403048828,19.638127812500002Q29.24408162048828,19.6019198125,29.272529720488283,19.5593438125Q29.30097789048828,19.5167688125,29.32057333048828,19.4694618125Q29.340168710488282,19.4221538125,29.350158390488282,19.3719328125Q29.360148070488282,19.3217118125,29.360148070488282,19.270506812500003Q29.360148070488282,19.2335588125,29.35492271048828,19.1969818125L29.35585058048828,19.1968488125Q28.881720423488282,15.877996912499999,32.876697500488284,13.2471595125Q37.06975840048828,10.4858758125,41.45822000048828,9.4653036025L41.45800700048828,9.4643905725Z" fill-rule="evenodd" fill="#000000" fill-opacity="1"/><g mask="url(#master_svgl_6_13746)"><path d="M21.96542306875,20.41703406875C18.21539726875,20.41702516875,16.02792337875,27.81287476875,16.44458997975,31.562880468750002C16.86125650875,35.31288546875,21.23625616875,38.33371346875,26.236255668749997,38.646211468749996C31.23625296875,38.958711468749996,35.194585968750005,36.14621346875,37.59041996875,34.37537946875C39.98625196875,32.60454646875,39.67375196875,28.85454656875,39.04875196875,28.22954746875C38.42375196875,27.60454656875,37.90291796875,24.79204706875,37.59041996875,23.85454706875C37.27791796875,22.91704746875,34.98627896875,17.29204316875,31.444585968749998,19.792034148749998Q25.923743268750002,17.70868756875,21.96542306875,20.41703406875Z" fill="#000000" fill-opacity="1" filter="url(#master_svgj_6_13746)"/><path d="M34.0547027546875,31.690854099375Q34.0903224546875,31.631488017375,34.0903224546875,31.562255859375Q34.0903220546875,31.512537714375,34.0712957546875,31.466604143375Q34.0522694546875,31.420670569375,34.0171136546875,31.385514529375Q33.9819574546875,31.350358499375,33.9360237546875,31.331332189375Q33.8900899546875,31.312305869375,33.8403725546875,31.312305849375Q33.7745237546875,31.312305869375,33.7172222546875,31.344749449375Q33.6599206546875,31.377193029375,33.6260423546875,31.433657839375L33.6259989546875,31.433631929375Q33.0539851546875,32.386988279375,32.0085298546875,32.673926359375Q30.7505165546875,32.961853959375,29.1712713546875,32.073528529375L29.1712468346875,32.073572099375Q29.1141807136875,32.041472439375,29.0487060546875,32.041472439375Q28.9989879096875,32.041472439375,28.9530543386875,32.060498719375Q28.9071207646875,32.079524989375,28.8719647246875,32.114681069375Q28.8368086946875,32.149837019375,28.8177823846875,32.195770619375Q28.7987560646875,32.241704229375,28.7987560446875,32.291422429375Q28.7987560646875,32.359147609375,28.8329468346875,32.417608679375Q28.8671376246875,32.476069689375,28.9261652446875,32.509272699375L28.9261407546875,32.509316269375Q30.6772186546875,33.494297659375,32.1257541546875,33.160020159375L32.1305601546875,33.158910959375L32.1353185546875,33.157613259375Q33.3780636546875,32.818682759375,34.0547456546875,31.690879789375L34.0547027546875,31.690854099375Z" fill-rule="evenodd" fill="#FFFFFF" fill-opacity="1"/></g><g mask="url(#master_svgn_6_13749)"><path d="M18.52788032546875,27.083658687499998C17.90288042546875,30.0003246875,19.36121350546875,32.0836581875,22.79871275546875,31.6669911875C26.23621225546875,31.2503246875,26.757045755468752,29.1669916875,26.757045755468752,28.1253251875C26.757045755468752,27.083658687499998,26.132045755468752,23.8544921875,22.79871275546875,23.8544921875Q19.46538015546875,23.8544921875,18.52788032546875,27.083658687499998Z" fill="url(#master_svgm_6_9446)" fill-opacity="1"/><path d="M22.27784104609375,24.687713118125C21.02784103609375,25.416866978125,20.09033971609375,26.771045178125,20.50700794609375,28.750203178125C20.92367613609375,30.729361978125,23.319514746093752,31.562697378125,24.88200904609375,31.041861978125C26.44450334609375,30.521026178125,26.96533684609375,28.854359578125,26.757002846093748,27.500192878125C26.548669846093752,26.146026478125002,26.23617364609375,25.729369478125,25.61117504609375,25.000213088125C24.98617554609375,24.271056562825,23.52784104609375,23.958559278125,22.27784104609375,24.687713118125Z" fill="#000000" fill-opacity="1"/><ellipse cx="24.673889100551605" cy="25.520833253860474" rx="0.6249999403953552" ry="0.5208332538604736" fill="#FFFFFF" fill-opacity="1"/></g><g mask="url(#master_svgp_6_13753)"><path d="M32.903076171875,24.999989534375C32.903076171875,26.041638834375,33.319742801875,27.812491434374998,34.673935871875,28.749909834375C36.028129071875,29.687326934375,38.111408671875,28.958324434375,38.111408671875,27.291658434375C38.111408671875,25.624991934375,37.798909171874996,22.916637364375,35.611436171875,22.291583764375C33.423963071875,21.666530194375,32.903076171875,23.958339734375,32.903076171875,24.999989534375Z" fill="url(#master_svgo_6_9446)" fill-opacity="1"/><path d="M32.90295211,24.06298818125C32.721786065,26.78037688125,33.407044825,27.528645081249998,33.794364515,27.95157858125C33.852462825,28.01501938125,33.903857575,28.07113938125,33.944618575,28.12548778125C34.257118675,28.54215428125,35.402951675,29.27132128125,36.236284975,28.64632078125C37.069618675,28.02132078125,37.694618274999996,26.56298808125,37.173785175,25.10465458125C36.652951675,23.64632153125,35.194631375,22.81298828125,34.257118675,22.81298828125Q33.319606035,22.81298828125,32.90295211,24.06298818125Z" fill="#000000" fill-opacity="1"/><ellipse cx="36.05419409275055" cy="23.862223267555237" rx="0.5601755380630493" ry="0.4166666269302368" fill="#FFFFFF" fill-opacity="1"/></g></g></svg>