<?xml version="1.0" encoding="UTF-8"?>
<svg width="22px" height="22px" viewBox="0 0 22 22" version="1.1" xmlns="http://www.w3.org/2000/svg" xmlns:xlink="http://www.w3.org/1999/xlink">
    <title>虾钳-黑</title>
    <defs>
        <linearGradient x1="80.4420357%" y1="34.0762703%" x2="37.835019%" y2="45.7876756%" id="linearGradient-1">
            <stop stop-color="#F1A896" offset="0%"></stop>
            <stop stop-color="#E14330" offset="100%"></stop>
        </linearGradient>
        <linearGradient x1="50%" y1="11.6817918%" x2="24.8452644%" y2="65.3810028%" id="linearGradient-2">
            <stop stop-color="#FFC4C4" stop-opacity="0" offset="0%"></stop>
            <stop stop-color="#D43423" stop-opacity="0.332604895" offset="61.0853175%"></stop>
            <stop stop-color="#B43530" stop-opacity="0.698426573" offset="100%"></stop>
        </linearGradient>
        <path d="M10.8240489,1.88088533 C10.9419658,1.49372301 9.75319093,0.232262353 6.93391275,0.0161792797 C4.11463457,-0.199903794 2.03763092,1.80849349 1.35987568,2.4577486 C0.682120441,3.10700371 -0.0791775495,4.2153735 0.00664780428,4.50296583 C0.0638647068,4.69469405 0.787049296,5.3884025 2.17620157,6.58409118 L3.54376252,6.58409118 L4.71654666,7.46095097 C4.78733256,6.57762431 5.2683613,5.49347311 6.15963287,4.20849735 C6.50298355,3.71347731 7.07114392,3.77886596 7.67841392,3.57266538 C7.92914706,3.48752809 8.01298172,2.97537027 8.24310877,2.90746441 C8.44624285,2.84752363 8.95796341,2.94719445 9.16069105,2.90746441 C9.41009949,2.85858599 9.48043471,2.30163715 9.70819857,2.25327002 C10.2307998,2.14229224 10.286766,2.20327636 10.5659645,2.12372401 C10.7394318,2.07429779 10.8046915,1.94444225 10.8240489,1.88088533 Z" id="path-3"></path>
        <path d="M3.69365761,8.53382555 C2.96435845,8.97947005 1.83981658,10.6672432 1.31314064,11.738971 C1.11289543,12.2315625 1.11289543,13.181688 2.15590603,14.3883501 C3.19891664,15.5950122 4.89582524,16.1806552 5.51800704,16.3251666 C6.14018884,16.4696781 7.38663316,13.9147863 8.16363956,13.7609738 C8.94064597,13.6071613 4.42295678,8.08818105 3.69365761,8.53382555 Z" id="path-4"></path>
        <filter x="-3.5%" y="-3.2%" width="107.1%" height="106.4%" filterUnits="objectBoundingBox" id="filter-5">
            <feOffset dx="0.5" dy="0" in="SourceAlpha" result="shadowOffsetInner1"></feOffset>
            <feComposite in="shadowOffsetInner1" in2="SourceAlpha" operator="arithmetic" k2="-1" k3="1" result="shadowInnerInner1"></feComposite>
            <feColorMatrix values="0 0 0 0 1   0 0 0 0 1   0 0 0 0 1  0 0 0 1 0" type="matrix" in="shadowInnerInner1"></feColorMatrix>
        </filter>
        <path d="M6.70679951,4.56019599 C7.139684,4.83234834 7.45376642,5.54046945 8.04650275,5.89963632 C8.63923909,6.25880318 9.54480895,6.35373286 10.1764941,6.47242836 C11.1663658,6.65842816 11.6780261,7.58640454 11.4970513,8.34983687 C11.2852872,9.24315277 10.9891139,9.84329766 11.0762934,10.8538511 C11.2852872,11.8246581 10.3866667,13.2431292 9,13.6128176 C7.6133333,13.9825061 5.75907939,13.7401168 4.46444031,12.0937385 C3.16980123,10.4473602 3.83082982,7.90609595 4.3317962,6.89353859 C4.75483822,6.0384826 5.4083724,5.06599654 5.66981153,4.79053884 C5.93125065,4.51508115 6.27391501,4.28804365 6.70679951,4.56019599 Z" id="path-6"></path>
        <filter x="-3.2%" y="-2.7%" width="106.4%" height="105.4%" filterUnits="objectBoundingBox" id="filter-7">
            <feOffset dx="0.5" dy="0" in="SourceAlpha" result="shadowOffsetInner1"></feOffset>
            <feComposite in="shadowOffsetInner1" in2="SourceAlpha" operator="arithmetic" k2="-1" k3="1" result="shadowInnerInner1"></feComposite>
            <feColorMatrix values="0 0 0 0 1   0 0 0 0 1   0 0 0 0 1  0 0 0 1 0" type="matrix" in="shadowInnerInner1"></feColorMatrix>
        </filter>
    </defs>
    <g id="虾钳-黑" stroke="none" stroke-width="1" fill="none" fill-rule="evenodd">
        <g id="编组-2备份-2" transform="translate(2, 1)">
            <g id="路径-22" transform="translate(6.262, 0)" fill-rule="nonzero">
                <g id="左钳">
                    <use fill="url(#linearGradient-1)" xlink:href="#path-3"></use>
                    <use fill="url(#linearGradient-2)" xlink:href="#path-3"></use>
                    <use fill="#000000" xlink:href="#path-3"></use>
                </g>
            </g>
            <path d="M17.6227917,3.80597735 C17.5390106,3.85447001 17.2155605,4.01909307 17.0940261,4.25202773 C17.0013094,4.42973001 17.1093642,4.71849317 17.0023614,4.96018229 C16.9333008,5.11617063 16.5479499,5.24261411 16.4595197,5.40942684 C16.3591686,5.59872671 16.3735725,5.92009435 16.2612122,6.14740121 C16.1488518,6.37470807 15.7082169,6.37470807 15.5919736,6.51302279 C15.1958928,6.98430839 15.1456747,7.392356 14.5188857,7.66066257 C13.2853622,8.18869109 11.9659389,8.2342892 10.5606158,7.79745691 L10.0555069,9.95739526 L10.5606158,11.108637 L8.79589544,13.5141039 C10.1025957,13.518311 11.6209734,13.1047184 13.3510285,12.2733262 C15.9461113,11.0262379 17.2520636,8.62434144 17.7151914,7.15616937 C18.101885,5.9303033 18.0074111,4.31158968 17.9315476,4.03240621 C17.855684,3.75322274 17.7139362,3.75322274 17.6227917,3.80597735 Z" id="右钳" fill="#000000" fill-rule="nonzero"></path>
            <path d="M1.20971102,12.2526276 C0.645467536,12.7197535 -0.431208865,14.8460754 0.184328324,17.0737781 C0.799865513,19.3014807 1.31973117,20 1.72924804,20 C2.13876491,20 2.13769597,18.1509541 3.49006807,17.7381694 C4.84244016,17.3253848 5.68564946,16.3034066 5.68564946,16.0055708 C5.68564946,15.707735 1.7739545,11.7855018 1.20971102,12.2526276 Z" id="3节" fill="#000000"></path>
            <g id="2节">
                <use fill="#000000" fill-rule="evenodd" xlink:href="#path-4"></use>
                <use fill="black" fill-opacity="1" filter="url(#filter-5)" xlink:href="#path-4"></use>
            </g>
            <g id="1节">
                <use fill="#000000" fill-rule="evenodd" xlink:href="#path-6"></use>
                <use fill="black" fill-opacity="1" filter="url(#filter-7)" xlink:href="#path-6"></use>
            </g>
        </g>
    </g>
</svg>