<svg xmlns="http://www.w3.org/2000/svg" xmlns:xlink="http://www.w3.org/1999/xlink" fill="none" version="1.1" width="50" height="49.99999237060547" viewBox="0 0 50 49.99999237060547"><defs><clipPath id="master_svg0_6_13717"><rect x="0" y="0" width="50" height="49.99999237060547" rx="0"/></clipPath><mask id="master_svg1_6_13721" style="mask-type:luminance" maskUnits="userSpaceOnUse" x="3.83349609375" y="36.55668258666992" width="8.569560050964355" height="4.524480819702148"><path d="M4.28218218375,37.60079358666992C3.47009578375,38.644904586669924,3.81812095475,39.456990686669926,4.86224399375,40.15306518666992C5.90636679375,40.849138786669926,8.342626093749999,41.08116338666992,9.96679879375,41.08116338666992Q11.59097099375,41.08116338666992,12.40305709375,39.10895368666992L9.03868819375,36.55668258666992Q5.09426859375,36.55668258666992,4.28218218375,37.60079358666992Z" fill="#FFFFFF" fill-opacity="1"/></mask></defs><g clip-path="url(#master_svg0_6_13717)"><g mask="url(#master_svg1_6_13721)"><path d="M4.28218218375,37.60079358666992C3.47009578375,38.644904586669924,3.81812095475,39.456990686669926,4.86224399375,40.15306518666992C5.90636679375,40.849138786669926,8.342626093749999,41.08116338666992,9.96679879375,41.08116338666992Q11.59097099375,41.08116338666992,12.40305709375,39.10895368666992L9.03868819375,36.55668258666992Q5.09426859375,36.55668258666992,4.28218218375,37.60079358666992Z" fill="#000000" fill-opacity="1"/></g><path d="M10.083275685308838,34.35181427001953Q8.691130605308837,35.51193747001953,9.039164737308838,36.78807327001953C9.387198865308838,38.06420897001953,11.243396085308838,39.920406370019535,12.171494685308838,39.920406370019535Q12.244455385308838,39.920406370019535,12.293039285308838,39.88599257001953Q12.862472485308839,39.48264357001953,10.083275685308838,34.35181427001953Z" fill="#000000" fill-opacity="1"/><path d="M11.358725536706544,32.496070861816406Q9.618540306706542,33.888218861816405,9.850564984706542,36.32447766181641C10.082589686706543,38.760736961816406,12.750880236706543,40.616933861816406,13.678978936706542,40.964971561816405Q14.607077636706542,41.3130073618164,15.303151136706543,40.964971561816405L12.634867636706543,37.600613161816405L11.358725536706544,32.496070861816406Z" fill="#000000" fill-opacity="1"/><g><path d="M9.850564984706542,36.32447766181641Q9.618540306706542,33.888218861816405,11.358725536706544,32.496070861816406L11.425057136706544,32.761396051816405Q10.144312856706543,33.801481761816405,10.144312856706543,36.022936861816405C10.144312856706543,36.671370061816404,10.193124626706544,37.2572746618164,10.281361546706544,37.7759537618164C10.055908876706543,37.32353876181641,9.899360991706542,36.836835861816404,9.850564984706542,36.32447766181641ZM13.275193236706542,40.775201761816405C13.430167936706543,40.85925576181641,13.567195636706543,40.92305276181641,13.678978936706542,40.964971561816405Q14.607077636706542,41.3130073618164,15.303151136706543,40.964971561816405L15.284591636706544,40.94157126181641Q14.098948936706542,40.8765840618164,13.275193236706542,40.775201761816405Z" fill-rule="evenodd" fill="#FFFFFF" fill-opacity="1"/></g><path d="M11.132687255790772,32.84428833120117C10.78466159179077,35.39655973120117,11.712775351790771,37.83281803120117,12.52485659179077,38.760917631201174C13.336937691790771,39.689015731201174,14.729068991790772,40.73312673120117,15.657168391790773,41.31318873120117Q15.863054791790772,41.44186773120117,16.06323239179077,41.43352673120117Q16.76541809179077,41.40426873120117,17.39735319179077,39.689015731201174Q13.916982891790772,36.556683031201175,13.916982891790772,34.932509931201174L13.916983091790772,29.247905731201172Q11.480712891790771,30.292016731201173,11.132687255790772,32.84428833120117Z" fill="#000000" fill-opacity="1"/><g><path d="M11.49871120179077,36.76179413120117C11.141055158790772,35.652536831201175,10.938766221790772,34.26642223120117,11.132687255790772,32.84428833120117Q11.480712891790771,30.292016731201173,13.916983091790772,29.247905731201172L13.916983091790772,29.52142429120117Q11.995576621790772,30.59955393120117,11.689486501790771,32.84428833120117C11.434386371790772,34.715083631201175,11.321524261790772,35.85032653120117,11.49871120179077,36.76179413120117ZM14.67925499179077,40.64840673120117C15.029395791790773,40.90371373120117,15.366101791790772,41.13127273120117,15.657168391790773,41.31318873120117Q15.863054791790772,41.44186773120117,16.06323239179077,41.43352673120117Q16.70249369179077,41.40689073120117,17.283530691790773,39.98289173120117Q15.589259191790772,40.687436731201174,14.67925499179077,40.64840673120117Z" fill-rule="evenodd" fill="#FFFFFF" fill-opacity="1"/></g><path d="M32.00905724212695,37.948303077037046Q31.962652080726954,38.06431607703705,31.97193339362695,38.175688177037046Q32.00905840512695,38.62117447703705,32.937155965126955,38.99241057703705C34.09727930512695,39.456456077037046,36.18550110512695,39.34044757703705,37.22961190512695,38.99242937703705C38.273723105126955,38.64441117703705,37.925681605126954,36.09210341703705,37.22961190512695,36.208133054237045C36.99553350512695,36.24715220903705,36.751614105126954,36.250088852037045,36.481310405126955,36.25334315703705C35.94782190512695,36.259766031037046,35.31155470512695,36.26742629703705,34.445316105126956,36.55617004703705Q33.140177405126956,36.99121266703705,32.00905724212695,37.948303077037046Z" fill="#000000" fill-opacity="1"/><path d="M36.997074604034424,37.833276033398434Q36.997083344599524,38.99339913339844,38.157197804034425,38.99339913339844Q42.56566620403442,37.36922643339844,42.56566620403442,36.673152433398435C42.56566620403442,35.97707853339844,41.985603804034426,34.81698638339844,40.59345650403442,34.58492279839844C39.201308704034425,34.35285923339844,38.38922260403442,34.93292090339844,37.92517328403442,35.397009133398434C37.461123944034426,35.86109733339844,36.997065863798525,36.673152433398435,36.997074604034424,37.833276033398434Z" fill="#000000" fill-opacity="1"/><path d="M36.88164278819214,40.73248843051453C36.64960996819214,42.00864003051453,36.88165239219214,43.63277843051453,37.11367705819214,44.212839830514525C37.34570181819214,44.79290173051453,38.157787928192135,45.372963630514526,38.27380032819214,44.67689013051452C38.38981272819214,43.980814730514524,38.96985862819214,42.936734930514525,39.317903728192135,42.472670830514524C39.665948828192136,42.00860713051453,40.24601812819214,41.312519330514526,40.362022628192136,41.89259503051453C40.47802712819214,42.472670830514524,40.24600242819214,44.444879330514524,39.317903728192135,45.488991530514525C38.38980462819214,46.533101730514524,40.12998982819214,47.345187730514525,42.33423182819214,46.069036730514526C44.538474128192135,44.79288653051452,44.88649512819214,42.240646630514526,44.88649512819214,40.84849813051453C44.88649512819214,39.45635013051453,43.95841212819214,36.09195900051453,41.638157828192135,35.74393859551453C39.35187432819214,35.40101355051453,38.75519772819214,36.29709619051452,38.29425152819214,36.98934033051452C38.28740262819214,36.99962613051453,38.28058372819214,37.009866730514524,38.27378962819214,37.02005753051453C37.80974022819214,37.71611663051453,37.11367559819214,39.456336930514524,36.88164278819214,40.73248843051453Z" fill="#000000" fill-opacity="1"/><path d="M13.099166870117188,32.37996765192871C13.099166870117188,35.628313051928714,13.911253150117188,37.13647485192871,15.999474970117188,39.22469485192871C18.08769657011719,41.31291785192871,22.03211597011719,42.35702885192871,26.092547870117187,41.428929851928714Q30.152978870117188,40.50083185192871,30.50101487011719,39.688745851928715Q33.98138587011719,37.94855985192871,35.02549587011718,35.97635075192871Q35.049663870117186,35.93069935192871,35.062705870117185,35.88206385192871Q35.61309087011719,33.82958985192871,16.34751197011719,26.46333885192871Q13.099166870117188,29.13162275192871,13.099166870117188,32.37996765192871Z" fill="#000000" fill-opacity="1"/><g><path d="M14.014867960117188,36.73883685192871C13.373954240117188,35.57024765192871,13.099166870117188,34.26952265192871,13.099166870117188,32.37996765192871Q13.099166870117188,29.13162275192871,16.34751197011719,26.46333885192871Q16.578228670117188,26.55155407592871,16.806116570117187,26.63901223192871Q13.767379760117187,29.23817445192871,13.767379760117187,32.37996765192871C13.767379760117187,32.57965755192871,13.766840820117187,32.77452425192871,13.766314330117188,32.96489235192871C13.762223840117187,34.443889651928714,13.758884370117187,35.65131665192871,14.014867960117188,36.73883685192871Z" fill-rule="evenodd" fill="#FFFFFF" fill-opacity="1"/></g><path d="M14.375478749233398,37.94847009243164C14.027441739233398,38.76055669243164,14.375497159233399,39.80466749243164,15.187565029233399,40.15270419243164Q15.999632989233397,40.50074199243164,20.9881810892334,37.36840859243164Q20.0600819892334,35.74423599243164,17.7398366892334,35.74423599243164C15.419589489233399,35.74423599243164,14.7235156592334,37.13638399243164,14.375478749233398,37.94847009243164Z" fill="#000000" fill-opacity="1"/><path d="M15.999410452149773,38.41304831361389C14.607262402149773,39.57315231361389,14.259218232149772,41.081319113613894,14.607262422149773,42.35746791361389C14.955306572149773,43.63361761361389,16.579466352149772,45.605798913613896,17.971612952149773,46.417886013613895C19.36376005214977,47.22997181361389,22.728119852149774,47.694021813613894,24.004255352149773,47.461996813613894C25.280390552149772,47.22997181361389,25.164379552149775,46.53389761361389,24.700329552149775,46.06984921361389C24.236281452149772,45.605798913613896,23.656218552149774,44.90972541361389,22.960145052149773,44.097639813613895C22.264071052149774,43.285553213613895,22.496096652149774,42.58947921361389,22.728119852149774,42.47346711361389C22.960143152149772,42.35745451361389,24.352293052149772,43.285553213613895,25.164379552149775,44.097639813613895C25.288637552149773,44.22189781361389,25.41289555214977,44.35430411361389,25.534659552149773,44.484052413613895C26.208684552149773,45.20227791361389,26.80630355214977,45.83908391361389,26.904564552149772,44.56168861361389C27.020576552149773,43.05352901361389,25.39640355214977,40.38521291361389,22.960143152149772,38.41303541361389C20.52388245214977,36.44085824361389,17.391558652149772,37.25294400361389,15.999410452149773,38.41304831361389Z" fill="#000000" fill-opacity="1"/><g><path d="M14.607262422149773,42.35746791361389C14.259218232149772,41.081319113613894,14.607262402149773,39.57315231361389,15.999410452149773,38.41304831361389C17.391558652149772,37.25294400361389,20.52388245214977,36.44085824361389,22.960143152149772,38.41303541361389C23.46040725214977,38.81800451361389,23.926430752149773,39.25232621361389,24.350175952149772,39.69992851361389C24.084984852149773,39.448828913613895,23.806748452149773,39.20445201361389,23.517027852149774,38.96992011361389C21.08076715214977,36.99774301361389,17.94844345214977,37.80982875361389,16.556295152149772,38.96993301361389C15.164147182149772,40.130037113613895,14.816102992149773,41.63820381361389,15.164147182149772,42.91435261361389C15.372599702149772,43.67867111361389,16.03880985214977,44.69266441361389,16.83876875214977,45.55755921361389C15.805069852149773,44.604961613613895,14.862640632149773,43.29384591361389,14.607262422149773,42.35746791361389ZM25.474143552149773,44.41960451361389C25.494376552149774,44.441127013613894,25.514551552149772,44.46262621361389,25.534659552149773,44.484052413613895C25.735414552149773,44.69797251361389,25.929391552149774,44.904670013613895,26.105415552149772,45.055717713613895C26.100795552149773,45.05079531361389,26.096171552149773,45.04586811361389,26.09154455214977,45.040937213613894C25.969779552149774,44.91118881361389,25.845521552149773,44.77878261361389,25.72126355214977,44.654524613613894C25.643678552149773,44.57693931361389,25.560799552149774,44.49829551361389,25.474143552149773,44.41960451361389Z" fill-rule="evenodd" fill="#FFFFFF" fill-opacity="1"/></g><path d="M31.42767807421875,2.100746275625C31.42767807421875,2.346445615625,31.272612574218748,2.565391415625,31.04083917421875,2.6469408156250003L31.04083917421875,2.6469408156250003Q25.02922727421875,4.763244915625,23.38521127421875,9.037691615625Q21.74709099421875,13.296811515625,24.26820997421875,17.462048515625L24.26820997421875,17.462048515625C24.322051974218752,17.553018515625,24.35098767421875,17.656705515625,24.35098767421875,17.762411515625C24.35098767421875,18.082193515625,24.09175257421875,18.341426515625,23.77196977421875,18.341426515625C23.56938097421875,18.341426515625,23.38152537421875,18.235546515625,23.27662277421875,18.062231515625L23.27662277421875,18.062231515625Q20.46016967421875,13.411076515625,22.30241495421875,8.621232015625Q24.13876487421875,3.846716115625,30.65613367421875,1.553566966625L30.65613367421875,1.553566966625C30.718225474218748,1.532826789625,30.78320507421875,1.521728515625,30.84865947421875,1.521728515625C31.16844367421875,1.521728515625,31.42767807421875,1.780963595625,31.42767807421875,2.100746275625Z" fill-rule="evenodd" fill="#000000" fill-opacity="1"/><path d="M43.95703642022705,5.348910690984497C43.95703642022705,5.618166030984497,43.77143142022705,5.851888330984497,43.509174420227055,5.912878530984497L43.509174420227055,5.912878530984497Q38.62190052022705,7.050525630984497,33.95201112022705,10.125818530984496Q29.50273126022705,13.055831230984497,30.03077892022705,16.752096930984496L30.03077892022705,16.752096930984496C30.03362032022705,16.7793679309845,30.03556502022705,16.806731930984498,30.03556502022705,16.834131930984498C30.03556502022705,17.153913930984498,29.776329870227052,17.413147930984497,29.45654726022705,17.413147930984497C29.168399660227053,17.413147930984497,28.924100590227052,17.201269930984495,28.88334922522705,16.9160189309845L28.88334922522705,16.9160189309845Q28.25021964022705,12.491570730984497,33.31395482022705,9.156916330984497Q38.15707872022705,5.967542130984497,43.24662742022705,4.783925988984497L43.24662742022705,4.783925988984497C43.28986542022705,4.774942338484497,43.33386942022705,4.769892930984497,43.37801842022705,4.769892930984497C43.69780142022705,4.769892930984497,43.95703642022705,5.029128010984497,43.95703642022705,5.348910690984497Z" fill-rule="evenodd" fill="#000000" fill-opacity="1"/><path d="M21.799922010473633,18.110963592297363C17.623448610473634,18.110953692297365,15.187218460473632,26.347847892297363,15.651267752473633,30.524298292297363C16.115316990473634,34.70074929229736,20.987834910473634,38.06510029229736,26.556426610473633,38.41313629229737C32.125017610473634,38.76117229229736,36.53348561047363,35.628842292297364,39.201768610473636,33.656630292297365C41.870052610473635,31.684421292297365,41.52201461047363,27.50797729229736,40.82594061047364,26.811904292297363C40.12986761047363,26.115829492297365,39.54980461047363,22.983496692297365,39.201768610473636,21.939385392297364C38.85373161047363,20.895274592297362,36.30148861047363,14.630603392297363,32.35704061047363,17.414889592297364Q26.20837561047363,15.094627992297363,21.799922010473633,18.110963592297363Z" fill="#000000" fill-opacity="1"/><g><path d="M15.602009688973633,29.01078081486084C15.610556743473634,29.25048804486084,15.626920249473633,29.48079371486084,15.651267752473633,29.69992159486084C16.115316990473634,33.87637229486084,20.987834910473634,37.24072359486084,26.556426610473633,37.588759394860844C32.125017610473634,37.93679519486084,36.53348561047363,34.80446529486084,39.201768610473636,32.832253494860836C40.67045961047363,31.746699794860838,41.225301610473636,29.99333349486084,41.311262610473634,28.52012636245884C41.407249610473635,30.10705289486084,40.95745261047364,32.35903689486084,39.201768610473636,33.65671639486084C36.53348561047363,35.62892819486084,32.125017610473634,38.76125779486084,26.556426610473633,38.41322229486084C20.987834910473634,38.06518649486084,16.115316990473634,34.700835194860844,15.651267752473633,30.52438449486084C15.600085658973633,30.06374489486084,15.584185119473632,29.55371049486084,15.602009688973633,29.01078081486084Z" fill-rule="evenodd" fill="#FFFFFF" fill-opacity="1"/></g><path d="M35.3036460723999,30.52367902134033C35.3036460723999,30.574132621340333,35.2899341723999,30.62363765134033,35.2639755723999,30.666901261340332Q34.5103902723999,31.922984961340333,33.1263220723999,32.30045816134033L33.1210226723999,32.30190346134033L33.1156699723999,32.303138761340335Q31.502409472399904,32.675429861340334,29.5522014823999,31.57843766134033C29.4645752233999,31.52908406134033,29.410330772399902,31.436334461340333,29.410330772399902,31.33576526134033C29.410330772399902,31.18202358134033,29.534963022399904,31.05739134134033,29.688704732399902,31.05739134134033C29.736511762399903,31.05739134134033,29.783513222399904,31.069703461340332,29.8251806523999,31.09314138134033Q31.584042572399902,32.08243736134033,32.9851152723999,31.761767061340333Q34.1494579723999,31.442198861340334,34.7865204723999,30.380428151340332C34.836877372399904,30.296609170340332,34.9274897723999,30.245305061340332,35.025272372399904,30.245305061340332C35.179013772399905,30.245305061340332,35.3036460723999,30.369937311340333,35.3036460723999,30.52367902134033Z" fill-rule="evenodd" fill="#FFFFFF" fill-opacity="1"/><path d="M17.97146822337158,25.53578231923828C17.27539426337158,28.784127219238282,18.899566793371584,31.10437391923828,22.727973493371582,30.64032461923828C26.556380293371582,30.17627521923828,27.136442193371582,27.85602851923828,27.136442193371582,26.695905719238283C27.136442193371582,25.53578231923828,26.440367693371584,21.93939971923828,22.727973493371582,21.93939971923828Q19.015579193371583,21.93939971923828,17.97146822337158,25.53578231923828Z" fill="#FFFFFF" fill-opacity="1"/><g><path d="M25.47228856738281,22.872655745929567C24.66435716738281,22.323113821929564,23.32339496738281,22.181661815929566,22.14786886738281,22.867373285929567C20.75572067738281,23.679445455929567,19.711608107382812,25.187618755929567,20.175659227382813,27.391843555929565C20.639710307382813,29.596069555929567,23.308000067382814,30.524170655929566,25.048179167382813,29.944106355929566C25.126765767382814,29.917910355929564,25.202986667382813,29.889112255929565,25.276873567382815,29.857860755929565C26.840534667382812,28.944628455929564,27.136391667382814,27.524385655929564,27.136391667382814,26.695856855929566C27.136391667382814,25.912953355929567,26.819388367382814,24.020538555929566,25.47228856738281,22.872655745929567Z" fill-rule="evenodd" fill="#000000" fill-opacity="1"/></g><ellipse cx="24.816390991210938" cy="23.795234501361847" rx="0.6960740089416504" ry="0.5800616145133972" fill="#FFFFFF" fill-opacity="1"/><path d="M33.981388092041016,23.215161537524413C33.981388092041016,24.375265637524414,34.44543743204102,26.347496937524415,35.953627392041014,27.391517137524414C37.46181729204102,28.435536337524415,39.78200439204102,27.623632437524414,39.78200439204102,25.767435537524413C39.78200439204102,23.911238437524414,39.43396809204101,20.894893767524415,36.99773859204102,20.198759987524415C34.56150949204102,19.502626237524414,33.981388092041016,22.055056937524412,33.981388092041016,23.215161537524413Z" fill="#FFFFFF" fill-opacity="1"/><g><path d="M35.58371879204102,27.099547167145538C34.368290512041014,26.01094846714554,33.981388092041016,24.27454356714554,33.981388092041016,23.215251967145537C33.981388092041016,22.72751296714554,34.08392955204101,21.993668267145537,34.38383621204102,21.358601387145537Q34.81596088204102,20.77945786714554,35.489407192041014,20.77945786714554C36.53353239204102,20.77945786714554,38.15769099204101,21.70755654714554,38.737752892041016,23.331728967145537C39.317813892041016,24.95590196714554,38.62174029204102,26.58007416714554,37.693641392041016,27.27614816714554C37.00896029204102,27.789659767145537,36.134864292041016,27.482373067145538,35.58371879204102,27.099547167145538Z" fill-rule="evenodd" fill="#000000" fill-opacity="1"/></g><ellipse cx="37.49084651470184" cy="21.948010325431824" rx="0.6238778829574585" ry="0.4640493392944336" fill="#FFFFFF" fill-opacity="1" transform="matrix(0.6954444646835327,0.718579888343811,-0.718579888343811,0.6954444646835327,26.665981653737717,-19.948802964122493)"/></g></svg>